solid fit_jig_preliminary
facet normal 0 0 -1
outer loop
vertex 0 0 0
vertex 30 73 0
vertex 30 0 0
endloop
endfacet
facet normal 0 0 -1
outer loop
vertex 0 0 0
vertex 0 73 0
vertex 30 73 0
endloop
endfacet
facet normal 0 0 1
outer loop
vertex 0 0 10
vertex 30 0 10
vertex 30 73 10
endloop
endfacet
facet normal 0 0 1
outer loop
vertex 0 0 10
vertex 30 73 10
vertex 0 73 10
endloop
endfacet
facet normal 0 -1 0
outer loop
vertex 0 0 0
vertex 30 0 0
vertex 30 0 10
endloop
endfacet
facet normal 0 -1 0
outer loop
vertex 0 0 0
vertex 30 0 10
vertex 0 0 10
endloop
endfacet
facet normal 0 1 0
outer loop
vertex 0 73 0
vertex 30 73 10
vertex 30 73 0
endloop
endfacet
facet normal 0 1 0
outer loop
vertex 0 73 0
vertex 0 73 10
vertex 30 73 10
endloop
endfacet
facet normal -1 0 0
outer loop
vertex 0 0 0
vertex 0 0 10
vertex 0 73 10
endloop
endfacet
facet normal -1 0 0
outer loop
vertex 0 0 0
vertex 0 73 10
vertex 0 73 0
endloop
endfacet
facet normal 1 0 0
outer loop
vertex 30 0 0
vertex 30 73 0
vertex 30 73 10
endloop
endfacet
facet normal 1 0 0
outer loop
vertex 30 0 0
vertex 30 73 10
vertex 30 0 10
endloop
endfacet
endsolid fit_jig_preliminary
