solid base_preliminary
facet normal 0 0 -1
outer loop
vertex 0 0 0
vertex 172 82 0
vertex 172 0 0
endloop
endfacet
facet normal 0 0 -1
outer loop
vertex 0 0 0
vertex 0 82 0
vertex 172 82 0
endloop
endfacet
facet normal 0 0 1
outer loop
vertex 0 0 52
vertex 172 0 52
vertex 172 82 52
endloop
endfacet
facet normal 0 0 1
outer loop
vertex 0 0 52
vertex 172 82 52
vertex 0 82 52
endloop
endfacet
facet normal 0 -1 0
outer loop
vertex 0 0 0
vertex 172 0 0
vertex 172 0 52
endloop
endfacet
facet normal 0 -1 0
outer loop
vertex 0 0 0
vertex 172 0 52
vertex 0 0 52
endloop
endfacet
facet normal 0 1 0
outer loop
vertex 0 82 0
vertex 172 82 52
vertex 172 82 0
endloop
endfacet
facet normal 0 1 0
outer loop
vertex 0 82 0
vertex 0 82 52
vertex 172 82 52
endloop
endfacet
facet normal -1 0 0
outer loop
vertex 0 0 0
vertex 0 0 52
vertex 0 82 52
endloop
endfacet
facet normal -1 0 0
outer loop
vertex 0 0 0
vertex 0 82 52
vertex 0 82 0
endloop
endfacet
facet normal 1 0 0
outer loop
vertex 172 0 0
vertex 172 82 0
vertex 172 82 52
endloop
endfacet
facet normal 1 0 0
outer loop
vertex 172 0 0
vertex 172 82 52
vertex 172 0 52
endloop
endfacet
endsolid base_preliminary
