solid OpenSCAD_Model
  facet normal 1 -0 0
    outer loop
      vertex 104 0 26
      vertex 104 3 0
      vertex 104 3 26
    endloop
  endfacet
  facet normal 1 0 0
    outer loop
      vertex 104 3 0
      vertex 104 0 26
      vertex 104 0 0
    endloop
  endfacet
  facet normal -0 0 1
    outer loop
      vertex 0 3 26
      vertex 104 0 26
      vertex 104 3 26
    endloop
  endfacet
  facet normal 0 0 1
    outer loop
      vertex 104 0 26
      vertex 0 3 26
      vertex 0 0 26
    endloop
  endfacet
  facet normal 0 0 -1
    outer loop
      vertex 0 0 0
      vertex 104 3 0
      vertex 104 0 0
    endloop
  endfacet
  facet normal -0 0 -1
    outer loop
      vertex 104 3 0
      vertex 0 0 0
      vertex 0 3 0
    endloop
  endfacet
  facet normal -1 0 0
    outer loop
      vertex 0 0 0
      vertex 0 3 26
      vertex 0 3 0
    endloop
  endfacet
  facet normal -1 -0 0
    outer loop
      vertex 0 3 26
      vertex 0 0 0
      vertex 0 0 26
    endloop
  endfacet
  facet normal 0 1 0
    outer loop
      vertex 104 3 26
      vertex 103 3 25
      vertex 0 3 26
    endloop
  endfacet
  facet normal 0 1 0
    outer loop
      vertex 104 3 26
      vertex 103 3 13.7414
      vertex 103 3 25
    endloop
  endfacet
  facet normal 0 1 0
    outer loop
      vertex 104 3 26
      vertex 103.048 3 13.641
      vertex 103 3 13.7414
    endloop
  endfacet
  facet normal 0 1 0
    outer loop
      vertex 104 3 26
      vertex 103.103 3 13.4862
      vertex 103.048 3 13.641
    endloop
  endfacet
  facet normal 0 1 0
    outer loop
      vertex 104 3 26
      vertex 103.143 3 13.3268
      vertex 103.103 3 13.4862
    endloop
  endfacet
  facet normal 0 1 0
    outer loop
      vertex 104 3 26
      vertex 103.167 3 13.1642
      vertex 103.143 3 13.3268
    endloop
  endfacet
  facet normal 0 1 0
    outer loop
      vertex 104 3 26
      vertex 103.175 3 13
      vertex 103.167 3 13.1642
    endloop
  endfacet
  facet normal 0 1 -0
    outer loop
      vertex 104 3 0
      vertex 103.175 3 13
      vertex 104 3 26
    endloop
  endfacet
  facet normal 0 1 0
    outer loop
      vertex 104 3 0
      vertex 103 3 12.2586
      vertex 103.048 3 12.359
    endloop
  endfacet
  facet normal 0 1 0
    outer loop
      vertex 104 3 0
      vertex 103.048 3 12.359
      vertex 103.103 3 12.5138
    endloop
  endfacet
  facet normal 0 1 0
    outer loop
      vertex 104 3 0
      vertex 103.103 3 12.5138
      vertex 103.143 3 12.6732
    endloop
  endfacet
  facet normal 0 1 0
    outer loop
      vertex 104 3 0
      vertex 103.143 3 12.6732
      vertex 103.167 3 12.8358
    endloop
  endfacet
  facet normal 0 1 0
    outer loop
      vertex 103.175 3 13
      vertex 104 3 0
      vertex 103.167 3 12.8358
    endloop
  endfacet
  facet normal 0 1 0
    outer loop
      vertex 103 3 1
      vertex 104 3 0
      vertex 1 3 1
    endloop
  endfacet
  facet normal 0 1 0
    outer loop
      vertex 103 3 12.2586
      vertex 104 3 0
      vertex 103 3 1
    endloop
  endfacet
  facet normal 0 1 -0
    outer loop
      vertex 1 3 25
      vertex 0 3 26
      vertex 103 3 25
    endloop
  endfacet
  facet normal 0 1 -0
    outer loop
      vertex 1 3 13.7414
      vertex 0 3 26
      vertex 1 3 25
    endloop
  endfacet
  facet normal 0 1 -0
    outer loop
      vertex 0.952501 3 13.641
      vertex 0 3 26
      vertex 1 3 13.7414
    endloop
  endfacet
  facet normal 0 1 -0
    outer loop
      vertex 0.897124 3 13.4862
      vertex 0 3 26
      vertex 0.952501 3 13.641
    endloop
  endfacet
  facet normal 0 1 -0
    outer loop
      vertex 0.857184 3 13.3268
      vertex 0 3 26
      vertex 0.897124 3 13.4862
    endloop
  endfacet
  facet normal 0 1 -0
    outer loop
      vertex 0.833065 3 13.1642
      vertex 0 3 26
      vertex 0.857184 3 13.3268
    endloop
  endfacet
  facet normal 0 1 -0
    outer loop
      vertex 0.825 3 13
      vertex 0 3 26
      vertex 0.833065 3 13.1642
    endloop
  endfacet
  facet normal 0 1 0
    outer loop
      vertex 0 3 0
      vertex 0.825 3 13
      vertex 0.833065 3 12.8358
    endloop
  endfacet
  facet normal 0 1 0
    outer loop
      vertex 0 3 0
      vertex 1 3 12.2586
      vertex 1 3 1
    endloop
  endfacet
  facet normal 0 1 0
    outer loop
      vertex 1 3 12.2586
      vertex 0 3 0
      vertex 0.952501 3 12.359
    endloop
  endfacet
  facet normal 0 1 0
    outer loop
      vertex 0.952501 3 12.359
      vertex 0 3 0
      vertex 0.897124 3 12.5138
    endloop
  endfacet
  facet normal 0 1 0
    outer loop
      vertex 0.897124 3 12.5138
      vertex 0 3 0
      vertex 0.857184 3 12.6732
    endloop
  endfacet
  facet normal 0 1 0
    outer loop
      vertex 0.857184 3 12.6732
      vertex 0 3 0
      vertex 0.833065 3 12.8358
    endloop
  endfacet
  facet normal 0 1 0
    outer loop
      vertex 0.825 3 13
      vertex 0 3 0
      vertex 0 3 26
    endloop
  endfacet
  facet normal 0 1 0
    outer loop
      vertex 0 3 0
      vertex 1 3 1
      vertex 104 3 0
    endloop
  endfacet
  facet normal 0 -1 0
    outer loop
      vertex 2.98623 0 14.6029
      vertex 0 0 26
      vertex 2.82678 0 14.6428
    endloop
  endfacet
  facet normal 0 -1 0
    outer loop
      vertex 104 0 26
      vertex 101.336 0 14.6669
      vertex 101.5 0 14.675
    endloop
  endfacet
  facet normal 0 -1 0
    outer loop
      vertex 3.14099 0 14.5475
      vertex 0 0 26
      vertex 2.98623 0 14.6029
    endloop
  endfacet
  facet normal 0 -1 0
    outer loop
      vertex 104 0 26
      vertex 101.173 0 14.6428
      vertex 101.336 0 14.6669
    endloop
  endfacet
  facet normal 0 -1 0
    outer loop
      vertex 3.28959 0 14.4772
      vertex 0 0 26
      vertex 3.14099 0 14.5475
    endloop
  endfacet
  facet normal 0 -1 0
    outer loop
      vertex 104 0 26
      vertex 101.014 0 14.6029
      vertex 101.173 0 14.6428
    endloop
  endfacet
  facet normal 0 -1 0
    outer loop
      vertex 3.43058 0 14.3927
      vertex 0 0 26
      vertex 3.28959 0 14.4772
    endloop
  endfacet
  facet normal 0 -1 0
    outer loop
      vertex 104 0 26
      vertex 100.859 0 14.5475
      vertex 101.014 0 14.6029
    endloop
  endfacet
  facet normal 0 -1 0
    outer loop
      vertex 3.56261 0 14.2948
      vertex 0 0 26
      vertex 3.43058 0 14.3927
    endloop
  endfacet
  facet normal 0 -1 0
    outer loop
      vertex 104 0 26
      vertex 100.71 0 14.4772
      vertex 100.859 0 14.5475
    endloop
  endfacet
  facet normal 0 -1 0
    outer loop
      vertex 3.6844 0 14.1844
      vertex 0 0 26
      vertex 3.56261 0 14.2948
    endloop
  endfacet
  facet normal 0 -1 0
    outer loop
      vertex 104 0 26
      vertex 100.569 0 14.3927
      vertex 100.71 0 14.4772
    endloop
  endfacet
  facet normal 0 -1 0
    outer loop
      vertex 3.79479 0 14.0626
      vertex 0 0 26
      vertex 3.6844 0 14.1844
    endloop
  endfacet
  facet normal 0 -1 0
    outer loop
      vertex 104 0 26
      vertex 100.437 0 14.2948
      vertex 100.569 0 14.3927
    endloop
  endfacet
  facet normal 0 -1 0
    outer loop
      vertex 3.89271 0 13.9306
      vertex 0 0 26
      vertex 3.79479 0 14.0626
    endloop
  endfacet
  facet normal 0 -1 0
    outer loop
      vertex 104 0 26
      vertex 100.316 0 14.1844
      vertex 100.437 0 14.2948
    endloop
  endfacet
  facet normal 0 -1 0
    outer loop
      vertex 3.97722 0 13.7896
      vertex 0 0 26
      vertex 3.89271 0 13.9306
    endloop
  endfacet
  facet normal 0 -1 0
    outer loop
      vertex 104 0 26
      vertex 100.205 0 14.0626
      vertex 100.316 0 14.1844
    endloop
  endfacet
  facet normal 0 -1 0
    outer loop
      vertex 0 0 26
      vertex 3.97722 0 13.7896
      vertex 104 0 26
    endloop
  endfacet
  facet normal 0 -1 0
    outer loop
      vertex 104 0 26
      vertex 100.107 0 13.9306
      vertex 100.205 0 14.0626
    endloop
  endfacet
  facet normal 0 -1 0
    outer loop
      vertex 100.023 0 13.7896
      vertex 104 0 26
      vertex 3.97722 0 13.7896
    endloop
  endfacet
  facet normal 0 -1 0
    outer loop
      vertex 104 0 26
      vertex 100.023 0 13.7896
      vertex 100.107 0 13.9306
    endloop
  endfacet
  facet normal 0 -1 0
    outer loop
      vertex 4.0475 0 13.641
      vertex 100.023 0 13.7896
      vertex 3.97722 0 13.7896
    endloop
  endfacet
  facet normal 0 -1 0
    outer loop
      vertex 4.0475 0 13.641
      vertex 99.9525 0 13.641
      vertex 100.023 0 13.7896
    endloop
  endfacet
  facet normal 0 -1 0
    outer loop
      vertex 4.10287 0 13.4862
      vertex 99.9525 0 13.641
      vertex 4.0475 0 13.641
    endloop
  endfacet
  facet normal 0 -1 0
    outer loop
      vertex 4.10287 0 13.4862
      vertex 99.8971 0 13.4862
      vertex 99.9525 0 13.641
    endloop
  endfacet
  facet normal 0 -1 0
    outer loop
      vertex 4.14281 0 13.3268
      vertex 99.8971 0 13.4862
      vertex 4.10287 0 13.4862
    endloop
  endfacet
  facet normal 0 -1 0
    outer loop
      vertex 4.14281 0 13.3268
      vertex 99.8572 0 13.3268
      vertex 99.8971 0 13.4862
    endloop
  endfacet
  facet normal 0 -1 0
    outer loop
      vertex 4.16693 0 13.1642
      vertex 99.8572 0 13.3268
      vertex 4.14281 0 13.3268
    endloop
  endfacet
  facet normal 0 -1 0
    outer loop
      vertex 4.16693 0 13.1642
      vertex 99.8331 0 13.1642
      vertex 99.8572 0 13.3268
    endloop
  endfacet
  facet normal 0 -1 0
    outer loop
      vertex 4.175 0 13
      vertex 99.8331 0 13.1642
      vertex 4.16693 0 13.1642
    endloop
  endfacet
  facet normal 0 -1 0
    outer loop
      vertex 4.175 0 13
      vertex 99.825 0 13
      vertex 99.8331 0 13.1642
    endloop
  endfacet
  facet normal 0 -1 0
    outer loop
      vertex 4.16693 0 12.8358
      vertex 99.825 0 13
      vertex 4.175 0 13
    endloop
  endfacet
  facet normal 0 -1 0
    outer loop
      vertex 4.16693 0 12.8358
      vertex 99.8331 0 12.8358
      vertex 99.825 0 13
    endloop
  endfacet
  facet normal 0 -1 0
    outer loop
      vertex 4.14281 0 12.6732
      vertex 99.8331 0 12.8358
      vertex 4.16693 0 12.8358
    endloop
  endfacet
  facet normal 0 -1 0
    outer loop
      vertex 4.14281 0 12.6732
      vertex 99.8572 0 12.6732
      vertex 99.8331 0 12.8358
    endloop
  endfacet
  facet normal 0 -1 0
    outer loop
      vertex 4.10287 0 12.5138
      vertex 99.8572 0 12.6732
      vertex 4.14281 0 12.6732
    endloop
  endfacet
  facet normal 0 -1 0
    outer loop
      vertex 4.10287 0 12.5138
      vertex 99.8971 0 12.5138
      vertex 99.8572 0 12.6732
    endloop
  endfacet
  facet normal 0 -1 0
    outer loop
      vertex 4.0475 0 12.359
      vertex 99.8971 0 12.5138
      vertex 4.10287 0 12.5138
    endloop
  endfacet
  facet normal 0 -1 0
    outer loop
      vertex 4.0475 0 12.359
      vertex 99.9525 0 12.359
      vertex 99.8971 0 12.5138
    endloop
  endfacet
  facet normal 0 -1 0
    outer loop
      vertex 3.97722 0 12.2104
      vertex 99.9525 0 12.359
      vertex 4.0475 0 12.359
    endloop
  endfacet
  facet normal 0 -1 0
    outer loop
      vertex 3.97722 0 12.2104
      vertex 100.023 0 12.2104
      vertex 99.9525 0 12.359
    endloop
  endfacet
  facet normal 0 -1 0
    outer loop
      vertex 0 0 0
      vertex 3.97722 0 12.2104
      vertex 3.89271 0 12.0694
    endloop
  endfacet
  facet normal 0 -1 -0
    outer loop
      vertex 3.97722 0 12.2104
      vertex 0 0 0
      vertex 100.023 0 12.2104
    endloop
  endfacet
  facet normal 0 -1 0
    outer loop
      vertex 0 0 0
      vertex 3.89271 0 12.0694
      vertex 3.79479 0 11.9374
    endloop
  endfacet
  facet normal 0 -1 0
    outer loop
      vertex 104 0 0
      vertex 100.023 0 12.2104
      vertex 0 0 0
    endloop
  endfacet
  facet normal 0 -1 0
    outer loop
      vertex 0 0 0
      vertex 3.79479 0 11.9374
      vertex 3.6844 0 11.8156
    endloop
  endfacet
  facet normal 0 -1 0
    outer loop
      vertex 100.023 0 12.2104
      vertex 104 0 0
      vertex 100.107 0 12.0694
    endloop
  endfacet
  facet normal 0 -1 0
    outer loop
      vertex 0 0 0
      vertex 3.6844 0 11.8156
      vertex 3.56261 0 11.7052
    endloop
  endfacet
  facet normal 0 -1 0
    outer loop
      vertex 100.107 0 12.0694
      vertex 104 0 0
      vertex 100.205 0 11.9374
    endloop
  endfacet
  facet normal 0 -1 0
    outer loop
      vertex 0 0 0
      vertex 3.56261 0 11.7052
      vertex 3.43058 0 11.6073
    endloop
  endfacet
  facet normal 0 -1 0
    outer loop
      vertex 100.205 0 11.9374
      vertex 104 0 0
      vertex 100.316 0 11.8156
    endloop
  endfacet
  facet normal 0 -1 0
    outer loop
      vertex 0 0 0
      vertex 3.43058 0 11.6073
      vertex 3.28959 0 11.5228
    endloop
  endfacet
  facet normal 0 -1 0
    outer loop
      vertex 100.316 0 11.8156
      vertex 104 0 0
      vertex 100.437 0 11.7052
    endloop
  endfacet
  facet normal 0 -1 0
    outer loop
      vertex 0 0 0
      vertex 3.28959 0 11.5228
      vertex 3.14099 0 11.4525
    endloop
  endfacet
  facet normal 0 -1 0
    outer loop
      vertex 100.437 0 11.7052
      vertex 104 0 0
      vertex 100.569 0 11.6073
    endloop
  endfacet
  facet normal 0 -1 0
    outer loop
      vertex 0 0 0
      vertex 3.14099 0 11.4525
      vertex 2.98623 0 11.3971
    endloop
  endfacet
  facet normal 0 -1 0
    outer loop
      vertex 100.569 0 11.6073
      vertex 104 0 0
      vertex 100.71 0 11.5228
    endloop
  endfacet
  facet normal 0 -1 0
    outer loop
      vertex 0 0 0
      vertex 2.98623 0 11.3971
      vertex 2.82678 0 11.3572
    endloop
  endfacet
  facet normal 0 -1 0
    outer loop
      vertex 100.71 0 11.5228
      vertex 104 0 0
      vertex 100.859 0 11.4525
    endloop
  endfacet
  facet normal 0 -1 0
    outer loop
      vertex 0 0 0
      vertex 2.82678 0 11.3572
      vertex 2.66418 0 11.3331
    endloop
  endfacet
  facet normal 0 -1 0
    outer loop
      vertex 100.859 0 11.4525
      vertex 104 0 0
      vertex 101.014 0 11.3971
    endloop
  endfacet
  facet normal 0 -1 0
    outer loop
      vertex 0 0 0
      vertex 2.66418 0 11.3331
      vertex 2.5 0 11.325
    endloop
  endfacet
  facet normal 0 -1 0
    outer loop
      vertex 101.014 0 11.3971
      vertex 104 0 0
      vertex 101.173 0 11.3572
    endloop
  endfacet
  facet normal 0 -1 0
    outer loop
      vertex 2.66418 0 14.6669
      vertex 0 0 26
      vertex 2.5 0 14.675
    endloop
  endfacet
  facet normal 0 -1 0
    outer loop
      vertex 0 0 26
      vertex 2.33582 0 14.6669
      vertex 2.5 0 14.675
    endloop
  endfacet
  facet normal 0 -1 0
    outer loop
      vertex 0 0 26
      vertex 2.17322 0 14.6428
      vertex 2.33582 0 14.6669
    endloop
  endfacet
  facet normal 0 -1 0
    outer loop
      vertex 0 0 26
      vertex 2.01377 0 14.6029
      vertex 2.17322 0 14.6428
    endloop
  endfacet
  facet normal 0 -1 0
    outer loop
      vertex 0 0 26
      vertex 1.859 0 14.5475
      vertex 2.01377 0 14.6029
    endloop
  endfacet
  facet normal 0 -1 0
    outer loop
      vertex 0 0 26
      vertex 1.71041 0 14.4772
      vertex 1.859 0 14.5475
    endloop
  endfacet
  facet normal 0 -1 0
    outer loop
      vertex 0 0 26
      vertex 1.56942 0 14.3927
      vertex 1.71041 0 14.4772
    endloop
  endfacet
  facet normal 0 -1 0
    outer loop
      vertex 0 0 26
      vertex 1.43739 0 14.2948
      vertex 1.56942 0 14.3927
    endloop
  endfacet
  facet normal 0 -1 0
    outer loop
      vertex 0 0 26
      vertex 1.3156 0 14.1844
      vertex 1.43739 0 14.2948
    endloop
  endfacet
  facet normal 0 -1 0
    outer loop
      vertex 0 0 26
      vertex 1.20521 0 14.0626
      vertex 1.3156 0 14.1844
    endloop
  endfacet
  facet normal 0 -1 0
    outer loop
      vertex 0 0 26
      vertex 1.10729 0 13.9306
      vertex 1.20521 0 14.0626
    endloop
  endfacet
  facet normal 0 -1 0
    outer loop
      vertex 0 0 26
      vertex 1.02278 0 13.7896
      vertex 1.10729 0 13.9306
    endloop
  endfacet
  facet normal 0 -1 0
    outer loop
      vertex 0 0 26
      vertex 0.952501 0 13.641
      vertex 1.02278 0 13.7896
    endloop
  endfacet
  facet normal 0 -1 0
    outer loop
      vertex 0 0 26
      vertex 0.897124 0 13.4862
      vertex 0.952501 0 13.641
    endloop
  endfacet
  facet normal 0 -1 0
    outer loop
      vertex 0 0 26
      vertex 0.857184 0 13.3268
      vertex 0.897124 0 13.4862
    endloop
  endfacet
  facet normal 0 -1 0
    outer loop
      vertex 0 0 26
      vertex 0.833065 0 13.1642
      vertex 0.857184 0 13.3268
    endloop
  endfacet
  facet normal 0 -1 0
    outer loop
      vertex 0 0 26
      vertex 0.825 0 13
      vertex 0.833065 0 13.1642
    endloop
  endfacet
  facet normal 0 -1 0
    outer loop
      vertex 0 0 0
      vertex 0.825 0 13
      vertex 0 0 26
    endloop
  endfacet
  facet normal 0 -1 0
    outer loop
      vertex 101.173 0 11.3572
      vertex 104 0 0
      vertex 101.336 0 11.3331
    endloop
  endfacet
  facet normal 0 -1 -0
    outer loop
      vertex 2.33582 0 11.3331
      vertex 0 0 0
      vertex 2.5 0 11.325
    endloop
  endfacet
  facet normal 0 -1 -0
    outer loop
      vertex 2.17322 0 11.3572
      vertex 0 0 0
      vertex 2.33582 0 11.3331
    endloop
  endfacet
  facet normal 0 -1 -0
    outer loop
      vertex 2.01377 0 11.3971
      vertex 0 0 0
      vertex 2.17322 0 11.3572
    endloop
  endfacet
  facet normal 0 -1 -0
    outer loop
      vertex 1.859 0 11.4525
      vertex 0 0 0
      vertex 2.01377 0 11.3971
    endloop
  endfacet
  facet normal 0 -1 -0
    outer loop
      vertex 1.71041 0 11.5228
      vertex 0 0 0
      vertex 1.859 0 11.4525
    endloop
  endfacet
  facet normal 0 -1 -0
    outer loop
      vertex 1.56942 0 11.6073
      vertex 0 0 0
      vertex 1.71041 0 11.5228
    endloop
  endfacet
  facet normal 0 -1 -0
    outer loop
      vertex 1.43739 0 11.7052
      vertex 0 0 0
      vertex 1.56942 0 11.6073
    endloop
  endfacet
  facet normal 0 -1 -0
    outer loop
      vertex 1.3156 0 11.8156
      vertex 0 0 0
      vertex 1.43739 0 11.7052
    endloop
  endfacet
  facet normal 0 -1 -0
    outer loop
      vertex 1.20521 0 11.9374
      vertex 0 0 0
      vertex 1.3156 0 11.8156
    endloop
  endfacet
  facet normal 0 -1 -0
    outer loop
      vertex 1.10729 0 12.0694
      vertex 0 0 0
      vertex 1.20521 0 11.9374
    endloop
  endfacet
  facet normal 0 -1 -0
    outer loop
      vertex 1.02278 0 12.2104
      vertex 0 0 0
      vertex 1.10729 0 12.0694
    endloop
  endfacet
  facet normal 0 -1 -0
    outer loop
      vertex 0.952501 0 12.359
      vertex 0 0 0
      vertex 1.02278 0 12.2104
    endloop
  endfacet
  facet normal 0 -1 -0
    outer loop
      vertex 0.897124 0 12.5138
      vertex 0 0 0
      vertex 0.952501 0 12.359
    endloop
  endfacet
  facet normal 0 -1 -0
    outer loop
      vertex 0.857184 0 12.6732
      vertex 0 0 0
      vertex 0.897124 0 12.5138
    endloop
  endfacet
  facet normal 0 -1 -0
    outer loop
      vertex 0.833065 0 12.8358
      vertex 0 0 0
      vertex 0.857184 0 12.6732
    endloop
  endfacet
  facet normal 0 -1 -0
    outer loop
      vertex 0.825 0 13
      vertex 0 0 0
      vertex 0.833065 0 12.8358
    endloop
  endfacet
  facet normal 0 -1 0
    outer loop
      vertex 2.82678 0 14.6428
      vertex 0 0 26
      vertex 2.66418 0 14.6669
    endloop
  endfacet
  facet normal 0 -1 0
    outer loop
      vertex 101.664 0 14.6669
      vertex 104 0 26
      vertex 101.5 0 14.675
    endloop
  endfacet
  facet normal 0 -1 0
    outer loop
      vertex 101.827 0 14.6428
      vertex 104 0 26
      vertex 101.664 0 14.6669
    endloop
  endfacet
  facet normal 0 -1 0
    outer loop
      vertex 101.986 0 14.6029
      vertex 104 0 26
      vertex 101.827 0 14.6428
    endloop
  endfacet
  facet normal 0 -1 0
    outer loop
      vertex 102.141 0 14.5475
      vertex 104 0 26
      vertex 101.986 0 14.6029
    endloop
  endfacet
  facet normal 0 -1 0
    outer loop
      vertex 102.29 0 14.4772
      vertex 104 0 26
      vertex 102.141 0 14.5475
    endloop
  endfacet
  facet normal 0 -1 0
    outer loop
      vertex 102.431 0 14.3927
      vertex 104 0 26
      vertex 102.29 0 14.4772
    endloop
  endfacet
  facet normal 0 -1 0
    outer loop
      vertex 102.563 0 14.2948
      vertex 104 0 26
      vertex 102.431 0 14.3927
    endloop
  endfacet
  facet normal 0 -1 0
    outer loop
      vertex 102.684 0 14.1844
      vertex 104 0 26
      vertex 102.563 0 14.2948
    endloop
  endfacet
  facet normal 0 -1 0
    outer loop
      vertex 102.795 0 14.0626
      vertex 104 0 26
      vertex 102.684 0 14.1844
    endloop
  endfacet
  facet normal 0 -1 0
    outer loop
      vertex 102.893 0 13.9306
      vertex 104 0 26
      vertex 102.795 0 14.0626
    endloop
  endfacet
  facet normal 0 -1 0
    outer loop
      vertex 102.977 0 13.7896
      vertex 104 0 26
      vertex 102.893 0 13.9306
    endloop
  endfacet
  facet normal 0 -1 0
    outer loop
      vertex 103.048 0 13.641
      vertex 104 0 26
      vertex 102.977 0 13.7896
    endloop
  endfacet
  facet normal 0 -1 0
    outer loop
      vertex 103.103 0 13.4862
      vertex 104 0 26
      vertex 103.048 0 13.641
    endloop
  endfacet
  facet normal 0 -1 0
    outer loop
      vertex 103.143 0 13.3268
      vertex 104 0 26
      vertex 103.103 0 13.4862
    endloop
  endfacet
  facet normal 0 -1 0
    outer loop
      vertex 103.167 0 13.1642
      vertex 104 0 26
      vertex 103.143 0 13.3268
    endloop
  endfacet
  facet normal 0 -1 0
    outer loop
      vertex 103.175 0 13
      vertex 104 0 26
      vertex 103.167 0 13.1642
    endloop
  endfacet
  facet normal 0 -1 0
    outer loop
      vertex 104 0 0
      vertex 103.175 0 13
      vertex 103.167 0 12.8358
    endloop
  endfacet
  facet normal 0 -1 0
    outer loop
      vertex 101.336 0 11.3331
      vertex 104 0 0
      vertex 101.5 0 11.325
    endloop
  endfacet
  facet normal 0 -1 0
    outer loop
      vertex 103.175 0 13
      vertex 104 0 0
      vertex 104 0 26
    endloop
  endfacet
  facet normal 0 -1 0
    outer loop
      vertex 103.143 0 12.6732
      vertex 104 0 0
      vertex 103.167 0 12.8358
    endloop
  endfacet
  facet normal 0 -1 0
    outer loop
      vertex 103.103 0 12.5138
      vertex 104 0 0
      vertex 103.143 0 12.6732
    endloop
  endfacet
  facet normal 0 -1 0
    outer loop
      vertex 103.048 0 12.359
      vertex 104 0 0
      vertex 103.103 0 12.5138
    endloop
  endfacet
  facet normal 0 -1 0
    outer loop
      vertex 102.977 0 12.2104
      vertex 104 0 0
      vertex 103.048 0 12.359
    endloop
  endfacet
  facet normal 0 -1 0
    outer loop
      vertex 102.893 0 12.0694
      vertex 104 0 0
      vertex 102.977 0 12.2104
    endloop
  endfacet
  facet normal 0 -1 0
    outer loop
      vertex 102.795 0 11.9374
      vertex 104 0 0
      vertex 102.893 0 12.0694
    endloop
  endfacet
  facet normal 0 -1 0
    outer loop
      vertex 102.684 0 11.8156
      vertex 104 0 0
      vertex 102.795 0 11.9374
    endloop
  endfacet
  facet normal 0 -1 0
    outer loop
      vertex 102.563 0 11.7052
      vertex 104 0 0
      vertex 102.684 0 11.8156
    endloop
  endfacet
  facet normal 0 -1 0
    outer loop
      vertex 102.431 0 11.6073
      vertex 104 0 0
      vertex 102.563 0 11.7052
    endloop
  endfacet
  facet normal 0 -1 0
    outer loop
      vertex 102.29 0 11.5228
      vertex 104 0 0
      vertex 102.431 0 11.6073
    endloop
  endfacet
  facet normal 0 -1 0
    outer loop
      vertex 102.141 0 11.4525
      vertex 104 0 0
      vertex 102.29 0 11.5228
    endloop
  endfacet
  facet normal 0 -1 0
    outer loop
      vertex 101.986 0 11.3971
      vertex 104 0 0
      vertex 102.141 0 11.4525
    endloop
  endfacet
  facet normal 0 -1 0
    outer loop
      vertex 101.827 0 11.3572
      vertex 104 0 0
      vertex 101.986 0 11.3971
    endloop
  endfacet
  facet normal 0 -1 0
    outer loop
      vertex 101.664 0 11.3331
      vertex 104 0 0
      vertex 101.827 0 11.3572
    endloop
  endfacet
  facet normal 0 -1 0
    outer loop
      vertex 101.5 0 11.325
      vertex 104 0 0
      vertex 101.664 0 11.3331
    endloop
  endfacet
  facet normal 1 -0 0
    outer loop
      vertex 103 3 25
      vertex 103 4 13.7414
      vertex 103 4 25
    endloop
  endfacet
  facet normal 1 0 0
    outer loop
      vertex 103 4 13.7414
      vertex 103 3 25
      vertex 103 3 13.7414
    endloop
  endfacet
  facet normal 1 -0 0
    outer loop
      vertex 103 3 12.2586
      vertex 103 4 1
      vertex 103 4 12.2586
    endloop
  endfacet
  facet normal 1 0 0
    outer loop
      vertex 103 4 1
      vertex 103 3 12.2586
      vertex 103 3 1
    endloop
  endfacet
  facet normal -0 0 1
    outer loop
      vertex 1 4 25
      vertex 103 3 25
      vertex 103 4 25
    endloop
  endfacet
  facet normal 0 0 1
    outer loop
      vertex 103 3 25
      vertex 1 4 25
      vertex 1 3 25
    endloop
  endfacet
  facet normal 0 0 -1
    outer loop
      vertex 1 3 1
      vertex 103 4 1
      vertex 103 3 1
    endloop
  endfacet
  facet normal -0 0 -1
    outer loop
      vertex 103 4 1
      vertex 1 3 1
      vertex 1 4 1
    endloop
  endfacet
  facet normal -1 0 0
    outer loop
      vertex 1 3 13.7414
      vertex 1 4 25
      vertex 1 4 13.7414
    endloop
  endfacet
  facet normal -1 -0 0
    outer loop
      vertex 1 4 25
      vertex 1 3 13.7414
      vertex 1 3 25
    endloop
  endfacet
  facet normal -1 0 0
    outer loop
      vertex 1 3 1
      vertex 1 4 12.2586
      vertex 1 4 1
    endloop
  endfacet
  facet normal -1 -0 0
    outer loop
      vertex 1 4 12.2586
      vertex 1 3 1
      vertex 1 3 12.2586
    endloop
  endfacet
  facet normal 0 1 0
    outer loop
      vertex 2.82678 4 11.3572
      vertex 1 4 1
      vertex 2.66418 4 11.3331
    endloop
  endfacet
  facet normal 0 1 0
    outer loop
      vertex 101.664 4 11.3331
      vertex 103 4 1
      vertex 101.5 4 11.325
    endloop
  endfacet
  facet normal 0 1 0
    outer loop
      vertex 101.827 4 11.3572
      vertex 103 4 1
      vertex 101.664 4 11.3331
    endloop
  endfacet
  facet normal 0 1 0
    outer loop
      vertex 101.986 4 11.3971
      vertex 103 4 1
      vertex 101.827 4 11.3572
    endloop
  endfacet
  facet normal 0 1 0
    outer loop
      vertex 102.141 4 11.4525
      vertex 103 4 1
      vertex 101.986 4 11.3971
    endloop
  endfacet
  facet normal 0 1 0
    outer loop
      vertex 102.29 4 11.5228
      vertex 103 4 1
      vertex 102.141 4 11.4525
    endloop
  endfacet
  facet normal 0 1 0
    outer loop
      vertex 102.431 4 11.6073
      vertex 103 4 1
      vertex 102.29 4 11.5228
    endloop
  endfacet
  facet normal 0 1 0
    outer loop
      vertex 102.563 4 11.7052
      vertex 103 4 1
      vertex 102.431 4 11.6073
    endloop
  endfacet
  facet normal 0 1 0
    outer loop
      vertex 102.684 4 11.8156
      vertex 103 4 1
      vertex 102.563 4 11.7052
    endloop
  endfacet
  facet normal 0 1 0
    outer loop
      vertex 102.795 4 11.9374
      vertex 103 4 1
      vertex 102.684 4 11.8156
    endloop
  endfacet
  facet normal 0 1 0
    outer loop
      vertex 102.893 4 12.0694
      vertex 103 4 1
      vertex 102.795 4 11.9374
    endloop
  endfacet
  facet normal 0 1 0
    outer loop
      vertex 102.977 4 12.2104
      vertex 103 4 1
      vertex 102.893 4 12.0694
    endloop
  endfacet
  facet normal 0 1 -0
    outer loop
      vertex 103 4 1
      vertex 102.977 4 12.2104
      vertex 103 4 12.2586
    endloop
  endfacet
  facet normal 0 1 0
    outer loop
      vertex 101.014 4 14.6029
      vertex 103 4 25
      vertex 101.173 4 14.6428
    endloop
  endfacet
  facet normal 0 1 0
    outer loop
      vertex 1 4 25
      vertex 2.66418 4 14.6669
      vertex 2.5 4 14.675
    endloop
  endfacet
  facet normal 0 1 0
    outer loop
      vertex 100.859 4 14.5475
      vertex 103 4 25
      vertex 101.014 4 14.6029
    endloop
  endfacet
  facet normal 0 1 0
    outer loop
      vertex 1 4 25
      vertex 2.82678 4 14.6428
      vertex 2.66418 4 14.6669
    endloop
  endfacet
  facet normal 0 1 0
    outer loop
      vertex 100.71 4 14.4772
      vertex 103 4 25
      vertex 100.859 4 14.5475
    endloop
  endfacet
  facet normal 0 1 0
    outer loop
      vertex 1 4 25
      vertex 2.98623 4 14.6029
      vertex 2.82678 4 14.6428
    endloop
  endfacet
  facet normal 0 1 0
    outer loop
      vertex 100.569 4 14.3927
      vertex 103 4 25
      vertex 100.71 4 14.4772
    endloop
  endfacet
  facet normal 0 1 0
    outer loop
      vertex 1 4 25
      vertex 3.14099 4 14.5475
      vertex 2.98623 4 14.6029
    endloop
  endfacet
  facet normal 0 1 0
    outer loop
      vertex 100.437 4 14.2948
      vertex 103 4 25
      vertex 100.569 4 14.3927
    endloop
  endfacet
  facet normal 0 1 0
    outer loop
      vertex 1 4 25
      vertex 3.28959 4 14.4772
      vertex 3.14099 4 14.5475
    endloop
  endfacet
  facet normal 0 1 0
    outer loop
      vertex 100.316 4 14.1844
      vertex 103 4 25
      vertex 100.437 4 14.2948
    endloop
  endfacet
  facet normal 0 1 0
    outer loop
      vertex 1 4 25
      vertex 3.43058 4 14.3927
      vertex 3.28959 4 14.4772
    endloop
  endfacet
  facet normal 0 1 0
    outer loop
      vertex 100.205 4 14.0626
      vertex 103 4 25
      vertex 100.316 4 14.1844
    endloop
  endfacet
  facet normal 0 1 0
    outer loop
      vertex 1 4 25
      vertex 3.56261 4 14.2948
      vertex 3.43058 4 14.3927
    endloop
  endfacet
  facet normal 0 1 0
    outer loop
      vertex 100.107 4 13.9306
      vertex 103 4 25
      vertex 100.205 4 14.0626
    endloop
  endfacet
  facet normal 0 1 0
    outer loop
      vertex 1 4 25
      vertex 3.6844 4 14.1844
      vertex 3.56261 4 14.2948
    endloop
  endfacet
  facet normal 0 1 0
    outer loop
      vertex 100.023 4 13.7896
      vertex 103 4 25
      vertex 100.107 4 13.9306
    endloop
  endfacet
  facet normal 0 1 0
    outer loop
      vertex 1 4 25
      vertex 3.79479 4 14.0626
      vertex 3.6844 4 14.1844
    endloop
  endfacet
  facet normal 0 1 0
    outer loop
      vertex 99.9525 4 13.641
      vertex 103 4 25
      vertex 100.023 4 13.7896
    endloop
  endfacet
  facet normal 0 1 0
    outer loop
      vertex 1 4 25
      vertex 3.89271 4 13.9306
      vertex 3.79479 4 14.0626
    endloop
  endfacet
  facet normal 0 1 0
    outer loop
      vertex 103 4 25
      vertex 99.9525 4 13.641
      vertex 1 4 25
    endloop
  endfacet
  facet normal 0 1 0
    outer loop
      vertex 1 4 25
      vertex 3.97722 4 13.7896
      vertex 3.89271 4 13.9306
    endloop
  endfacet
  facet normal 0 1 -0
    outer loop
      vertex 4.0475 4 13.641
      vertex 1 4 25
      vertex 99.9525 4 13.641
    endloop
  endfacet
  facet normal 0 1 0
    outer loop
      vertex 1 4 25
      vertex 4.0475 4 13.641
      vertex 3.97722 4 13.7896
    endloop
  endfacet
  facet normal 0 1 -0
    outer loop
      vertex 99.8971 4 13.4862
      vertex 4.0475 4 13.641
      vertex 99.9525 4 13.641
    endloop
  endfacet
  facet normal 0 1 0
    outer loop
      vertex 99.8971 4 13.4862
      vertex 4.10287 4 13.4862
      vertex 4.0475 4 13.641
    endloop
  endfacet
  facet normal 0 1 -0
    outer loop
      vertex 99.8572 4 13.3268
      vertex 4.10287 4 13.4862
      vertex 99.8971 4 13.4862
    endloop
  endfacet
  facet normal 0 1 0
    outer loop
      vertex 99.8572 4 13.3268
      vertex 4.14281 4 13.3268
      vertex 4.10287 4 13.4862
    endloop
  endfacet
  facet normal 0 1 -0
    outer loop
      vertex 99.8331 4 13.1642
      vertex 4.14281 4 13.3268
      vertex 99.8572 4 13.3268
    endloop
  endfacet
  facet normal 0 1 0
    outer loop
      vertex 99.8331 4 13.1642
      vertex 4.16693 4 13.1642
      vertex 4.14281 4 13.3268
    endloop
  endfacet
  facet normal 0 1 -0
    outer loop
      vertex 99.825 4 13
      vertex 4.16693 4 13.1642
      vertex 99.8331 4 13.1642
    endloop
  endfacet
  facet normal 0 1 0
    outer loop
      vertex 99.825 4 13
      vertex 4.175 4 13
      vertex 4.16693 4 13.1642
    endloop
  endfacet
  facet normal 0 1 0
    outer loop
      vertex 99.8331 4 12.8358
      vertex 4.175 4 13
      vertex 99.825 4 13
    endloop
  endfacet
  facet normal 0 1 0
    outer loop
      vertex 99.8331 4 12.8358
      vertex 4.16693 4 12.8358
      vertex 4.175 4 13
    endloop
  endfacet
  facet normal 0 1 0
    outer loop
      vertex 99.8572 4 12.6732
      vertex 4.16693 4 12.8358
      vertex 99.8331 4 12.8358
    endloop
  endfacet
  facet normal 0 1 0
    outer loop
      vertex 99.8572 4 12.6732
      vertex 4.14281 4 12.6732
      vertex 4.16693 4 12.8358
    endloop
  endfacet
  facet normal 0 1 0
    outer loop
      vertex 99.8971 4 12.5138
      vertex 4.14281 4 12.6732
      vertex 99.8572 4 12.6732
    endloop
  endfacet
  facet normal 0 1 0
    outer loop
      vertex 99.8971 4 12.5138
      vertex 4.10287 4 12.5138
      vertex 4.14281 4 12.6732
    endloop
  endfacet
  facet normal 0 1 0
    outer loop
      vertex 99.9525 4 12.359
      vertex 4.10287 4 12.5138
      vertex 99.8971 4 12.5138
    endloop
  endfacet
  facet normal 0 1 0
    outer loop
      vertex 99.9525 4 12.359
      vertex 4.0475 4 12.359
      vertex 4.10287 4 12.5138
    endloop
  endfacet
  facet normal 0 1 0
    outer loop
      vertex 103 4 1
      vertex 99.9525 4 12.359
      vertex 100.023 4 12.2104
    endloop
  endfacet
  facet normal 0 1 0
    outer loop
      vertex 99.9525 4 12.359
      vertex 103 4 1
      vertex 4.0475 4 12.359
    endloop
  endfacet
  facet normal 0 1 0
    outer loop
      vertex 103 4 1
      vertex 100.023 4 12.2104
      vertex 100.107 4 12.0694
    endloop
  endfacet
  facet normal 0 1 0
    outer loop
      vertex 1 4 1
      vertex 4.0475 4 12.359
      vertex 103 4 1
    endloop
  endfacet
  facet normal 0 1 0
    outer loop
      vertex 103 4 1
      vertex 100.107 4 12.0694
      vertex 100.205 4 11.9374
    endloop
  endfacet
  facet normal 0 1 0
    outer loop
      vertex 4.0475 4 12.359
      vertex 1 4 1
      vertex 3.97722 4 12.2104
    endloop
  endfacet
  facet normal 0 1 0
    outer loop
      vertex 103 4 1
      vertex 100.205 4 11.9374
      vertex 100.316 4 11.8156
    endloop
  endfacet
  facet normal 0 1 0
    outer loop
      vertex 3.97722 4 12.2104
      vertex 1 4 1
      vertex 3.89271 4 12.0694
    endloop
  endfacet
  facet normal 0 1 0
    outer loop
      vertex 103 4 1
      vertex 100.316 4 11.8156
      vertex 100.437 4 11.7052
    endloop
  endfacet
  facet normal 0 1 0
    outer loop
      vertex 3.89271 4 12.0694
      vertex 1 4 1
      vertex 3.79479 4 11.9374
    endloop
  endfacet
  facet normal 0 1 0
    outer loop
      vertex 103 4 1
      vertex 100.437 4 11.7052
      vertex 100.569 4 11.6073
    endloop
  endfacet
  facet normal 0 1 0
    outer loop
      vertex 3.79479 4 11.9374
      vertex 1 4 1
      vertex 3.6844 4 11.8156
    endloop
  endfacet
  facet normal 0 1 0
    outer loop
      vertex 103 4 1
      vertex 100.569 4 11.6073
      vertex 100.71 4 11.5228
    endloop
  endfacet
  facet normal 0 1 0
    outer loop
      vertex 3.6844 4 11.8156
      vertex 1 4 1
      vertex 3.56261 4 11.7052
    endloop
  endfacet
  facet normal 0 1 0
    outer loop
      vertex 103 4 1
      vertex 100.71 4 11.5228
      vertex 100.859 4 11.4525
    endloop
  endfacet
  facet normal 0 1 0
    outer loop
      vertex 3.56261 4 11.7052
      vertex 1 4 1
      vertex 3.43058 4 11.6073
    endloop
  endfacet
  facet normal 0 1 0
    outer loop
      vertex 103 4 1
      vertex 100.859 4 11.4525
      vertex 101.014 4 11.3971
    endloop
  endfacet
  facet normal 0 1 0
    outer loop
      vertex 3.43058 4 11.6073
      vertex 1 4 1
      vertex 3.28959 4 11.5228
    endloop
  endfacet
  facet normal 0 1 0
    outer loop
      vertex 103 4 1
      vertex 101.014 4 11.3971
      vertex 101.173 4 11.3572
    endloop
  endfacet
  facet normal 0 1 0
    outer loop
      vertex 3.28959 4 11.5228
      vertex 1 4 1
      vertex 3.14099 4 11.4525
    endloop
  endfacet
  facet normal 0 1 0
    outer loop
      vertex 103 4 1
      vertex 101.173 4 11.3572
      vertex 101.336 4 11.3331
    endloop
  endfacet
  facet normal 0 1 0
    outer loop
      vertex 3.14099 4 11.4525
      vertex 1 4 1
      vertex 2.98623 4 11.3971
    endloop
  endfacet
  facet normal 0 1 0
    outer loop
      vertex 103 4 1
      vertex 101.336 4 11.3331
      vertex 101.5 4 11.325
    endloop
  endfacet
  facet normal 0 1 0
    outer loop
      vertex 2.98623 4 11.3971
      vertex 1 4 1
      vertex 2.82678 4 11.3572
    endloop
  endfacet
  facet normal 0 1 0
    outer loop
      vertex 101.336 4 14.6669
      vertex 103 4 25
      vertex 101.5 4 14.675
    endloop
  endfacet
  facet normal 0 1 0
    outer loop
      vertex 103 4 25
      vertex 101.664 4 14.6669
      vertex 101.5 4 14.675
    endloop
  endfacet
  facet normal 0 1 0
    outer loop
      vertex 103 4 25
      vertex 101.827 4 14.6428
      vertex 101.664 4 14.6669
    endloop
  endfacet
  facet normal 0 1 0
    outer loop
      vertex 103 4 25
      vertex 101.986 4 14.6029
      vertex 101.827 4 14.6428
    endloop
  endfacet
  facet normal 0 1 0
    outer loop
      vertex 103 4 25
      vertex 102.141 4 14.5475
      vertex 101.986 4 14.6029
    endloop
  endfacet
  facet normal 0 1 0
    outer loop
      vertex 103 4 25
      vertex 102.29 4 14.4772
      vertex 102.141 4 14.5475
    endloop
  endfacet
  facet normal 0 1 0
    outer loop
      vertex 103 4 25
      vertex 102.431 4 14.3927
      vertex 102.29 4 14.4772
    endloop
  endfacet
  facet normal 0 1 0
    outer loop
      vertex 103 4 25
      vertex 102.563 4 14.2948
      vertex 102.431 4 14.3927
    endloop
  endfacet
  facet normal 0 1 0
    outer loop
      vertex 103 4 25
      vertex 102.684 4 14.1844
      vertex 102.563 4 14.2948
    endloop
  endfacet
  facet normal 0 1 0
    outer loop
      vertex 103 4 25
      vertex 102.795 4 14.0626
      vertex 102.684 4 14.1844
    endloop
  endfacet
  facet normal 0 1 0
    outer loop
      vertex 103 4 25
      vertex 102.893 4 13.9306
      vertex 102.795 4 14.0626
    endloop
  endfacet
  facet normal 0 1 0
    outer loop
      vertex 103 4 25
      vertex 102.977 4 13.7896
      vertex 102.893 4 13.9306
    endloop
  endfacet
  facet normal -0 1 0
    outer loop
      vertex 102.977 4 13.7896
      vertex 103 4 25
      vertex 103 4 13.7414
    endloop
  endfacet
  facet normal 0 1 0
    outer loop
      vertex 101.173 4 14.6428
      vertex 103 4 25
      vertex 101.336 4 14.6669
    endloop
  endfacet
  facet normal 0 1 -0
    outer loop
      vertex 2.33582 4 14.6669
      vertex 1 4 25
      vertex 2.5 4 14.675
    endloop
  endfacet
  facet normal 0 1 -0
    outer loop
      vertex 2.17322 4 14.6428
      vertex 1 4 25
      vertex 2.33582 4 14.6669
    endloop
  endfacet
  facet normal 0 1 -0
    outer loop
      vertex 2.01377 4 14.6029
      vertex 1 4 25
      vertex 2.17322 4 14.6428
    endloop
  endfacet
  facet normal 0 1 -0
    outer loop
      vertex 1.859 4 14.5475
      vertex 1 4 25
      vertex 2.01377 4 14.6029
    endloop
  endfacet
  facet normal 0 1 -0
    outer loop
      vertex 1.71041 4 14.4772
      vertex 1 4 25
      vertex 1.859 4 14.5475
    endloop
  endfacet
  facet normal 0 1 -0
    outer loop
      vertex 1.56942 4 14.3927
      vertex 1 4 25
      vertex 1.71041 4 14.4772
    endloop
  endfacet
  facet normal 0 1 -0
    outer loop
      vertex 1.43739 4 14.2948
      vertex 1 4 25
      vertex 1.56942 4 14.3927
    endloop
  endfacet
  facet normal 0 1 -0
    outer loop
      vertex 1.3156 4 14.1844
      vertex 1 4 25
      vertex 1.43739 4 14.2948
    endloop
  endfacet
  facet normal 0 1 -0
    outer loop
      vertex 1.20521 4 14.0626
      vertex 1 4 25
      vertex 1.3156 4 14.1844
    endloop
  endfacet
  facet normal 0 1 -0
    outer loop
      vertex 1.10729 4 13.9306
      vertex 1 4 25
      vertex 1.20521 4 14.0626
    endloop
  endfacet
  facet normal 0 1 -0
    outer loop
      vertex 1.02278 4 13.7896
      vertex 1 4 25
      vertex 1.10729 4 13.9306
    endloop
  endfacet
  facet normal 0 1 0
    outer loop
      vertex 1 4 25
      vertex 1.02278 4 13.7896
      vertex 1 4 13.7414
    endloop
  endfacet
  facet normal 0 1 0
    outer loop
      vertex 2.66418 4 11.3331
      vertex 1 4 1
      vertex 2.5 4 11.325
    endloop
  endfacet
  facet normal 0 1 0
    outer loop
      vertex 1.02278 4 12.2104
      vertex 1 4 1
      vertex 1 4 12.2586
    endloop
  endfacet
  facet normal 0 1 0
    outer loop
      vertex 1.10729 4 12.0694
      vertex 1 4 1
      vertex 1.02278 4 12.2104
    endloop
  endfacet
  facet normal 0 1 0
    outer loop
      vertex 1.20521 4 11.9374
      vertex 1 4 1
      vertex 1.10729 4 12.0694
    endloop
  endfacet
  facet normal 0 1 0
    outer loop
      vertex 1.3156 4 11.8156
      vertex 1 4 1
      vertex 1.20521 4 11.9374
    endloop
  endfacet
  facet normal 0 1 0
    outer loop
      vertex 1.43739 4 11.7052
      vertex 1 4 1
      vertex 1.3156 4 11.8156
    endloop
  endfacet
  facet normal 0 1 0
    outer loop
      vertex 1.56942 4 11.6073
      vertex 1 4 1
      vertex 1.43739 4 11.7052
    endloop
  endfacet
  facet normal 0 1 0
    outer loop
      vertex 1.71041 4 11.5228
      vertex 1 4 1
      vertex 1.56942 4 11.6073
    endloop
  endfacet
  facet normal 0 1 0
    outer loop
      vertex 1.859 4 11.4525
      vertex 1 4 1
      vertex 1.71041 4 11.5228
    endloop
  endfacet
  facet normal 0 1 0
    outer loop
      vertex 2.01377 4 11.3971
      vertex 1 4 1
      vertex 1.859 4 11.4525
    endloop
  endfacet
  facet normal 0 1 0
    outer loop
      vertex 2.17322 4 11.3572
      vertex 1 4 1
      vertex 2.01377 4 11.3971
    endloop
  endfacet
  facet normal 0 1 0
    outer loop
      vertex 2.33582 4 11.3331
      vertex 1 4 1
      vertex 2.17322 4 11.3572
    endloop
  endfacet
  facet normal 0 1 0
    outer loop
      vertex 2.5 4 11.325
      vertex 1 4 1
      vertex 2.33582 4 11.3331
    endloop
  endfacet
  facet normal -0.989176 0 0.146734
    outer loop
      vertex 4.14281 0 12.6732
      vertex 4.16693 4 12.8358
      vertex 4.14281 4 12.6732
    endloop
  endfacet
  facet normal -0.989176 0 0.146734
    outer loop
      vertex 4.16693 4 12.8358
      vertex 4.14281 0 12.6732
      vertex 4.16693 0 12.8358
    endloop
  endfacet
  facet normal -0.998794 0 0.0490881
    outer loop
      vertex 4.16693 0 12.8358
      vertex 4.175 4 13
      vertex 4.16693 4 12.8358
    endloop
  endfacet
  facet normal -0.998794 0 0.0490881
    outer loop
      vertex 4.175 4 13
      vertex 4.16693 0 12.8358
      vertex 4.175 0 13
    endloop
  endfacet
  facet normal -0.970013 0 0.243051
    outer loop
      vertex 4.10287 0 12.5138
      vertex 4.14281 4 12.6732
      vertex 4.10287 4 12.5138
    endloop
  endfacet
  facet normal -0.970013 0 0.243051
    outer loop
      vertex 4.14281 4 12.6732
      vertex 4.10287 0 12.5138
      vertex 4.14281 0 12.6732
    endloop
  endfacet
  facet normal -0.74096 0 0.671549
    outer loop
      vertex 3.6844 0 11.8156
      vertex 3.79479 4 11.9374
      vertex 3.6844 4 11.8156
    endloop
  endfacet
  facet normal -0.74096 0 0.671549
    outer loop
      vertex 3.79479 4 11.9374
      vertex 3.6844 0 11.8156
      vertex 3.79479 0 11.9374
    endloop
  endfacet
  facet normal 0.857734 -0 0.514093
    outer loop
      vertex 1.02278 0 12.2104
      vertex 1.10729 4 12.0694
      vertex 1.02278 4 12.2104
    endloop
  endfacet
  facet normal 0.857734 0 0.514093
    outer loop
      vertex 1.10729 4 12.0694
      vertex 1.02278 0 12.2104
      vertex 1.10729 0 12.0694
    endloop
  endfacet
  facet normal 0.427665 0 0.903937
    outer loop
      vertex 1.71041 4 11.5228
      vertex 1.859 0 11.4525
      vertex 1.859 4 11.4525
    endloop
  endfacet
  facet normal 0.427665 0 0.903937
    outer loop
      vertex 1.859 0 11.4525
      vertex 1.71041 4 11.5228
      vertex 1.71041 0 11.5228
    endloop
  endfacet
  facet normal -0.146615 0 -0.989194
    outer loop
      vertex 2.66418 0 14.6669
      vertex 2.82678 4 14.6428
      vertex 2.82678 0 14.6428
    endloop
  endfacet
  facet normal -0.146615 0 -0.989194
    outer loop
      vertex 2.82678 4 14.6428
      vertex 2.66418 0 14.6669
      vertex 2.66418 4 14.6669
    endloop
  endfacet
  facet normal -0.33703 0 0.941494
    outer loop
      vertex 2.98623 4 11.3971
      vertex 3.14099 0 11.4525
      vertex 3.14099 4 11.4525
    endloop
  endfacet
  facet normal -0.33703 0 0.941494
    outer loop
      vertex 3.14099 0 11.4525
      vertex 2.98623 4 11.3971
      vertex 2.98623 0 11.3971
    endloop
  endfacet
  facet normal -0.514075 0 0.857745
    outer loop
      vertex 3.28959 4 11.5228
      vertex 3.43058 0 11.6073
      vertex 3.43058 4 11.6073
    endloop
  endfacet
  facet normal -0.514075 0 0.857745
    outer loop
      vertex 3.43058 0 11.6073
      vertex 3.28959 4 11.5228
      vertex 3.28959 0 11.5228
    endloop
  endfacet
  facet normal -0.998794 0 -0.0490881
    outer loop
      vertex 4.175 0 13
      vertex 4.16693 4 13.1642
      vertex 4.175 4 13
    endloop
  endfacet
  facet normal -0.998794 -0 -0.0490881
    outer loop
      vertex 4.16693 4 13.1642
      vertex 4.175 0 13
      vertex 4.16693 0 13.1642
    endloop
  endfacet
  facet normal -0.803143 0 -0.595786
    outer loop
      vertex 3.89271 0 13.9306
      vertex 3.79479 4 14.0626
      vertex 3.89271 4 13.9306
    endloop
  endfacet
  facet normal -0.803143 -0 -0.595786
    outer loop
      vertex 3.79479 4 14.0626
      vertex 3.89271 0 13.9306
      vertex 3.79479 0 14.0626
    endloop
  endfacet
  facet normal -0.0492762 0 0.998785
    outer loop
      vertex 2.5 4 11.325
      vertex 2.66418 0 11.3331
      vertex 2.66418 4 11.3331
    endloop
  endfacet
  facet normal -0.0492762 0 0.998785
    outer loop
      vertex 2.66418 0 11.3331
      vertex 2.5 4 11.325
      vertex 2.5 0 11.325
    endloop
  endfacet
  facet normal 0.74096 0 -0.671549
    outer loop
      vertex 1.3156 0 14.1844
      vertex 1.20521 4 14.0626
      vertex 1.3156 4 14.1844
    endloop
  endfacet
  facet normal 0.74096 0 -0.671549
    outer loop
      vertex 1.20521 4 14.0626
      vertex 1.3156 0 14.1844
      vertex 1.20521 0 14.0626
    endloop
  endfacet
  facet normal 0.514075 0 0.857745
    outer loop
      vertex 1.56942 4 11.6073
      vertex 1.71041 0 11.5228
      vertex 1.71041 4 11.5228
    endloop
  endfacet
  facet normal 0.514075 0 0.857745
    outer loop
      vertex 1.71041 0 11.5228
      vertex 1.56942 4 11.6073
      vertex 1.56942 0 11.6073
    endloop
  endfacet
  facet normal 0.427665 0 -0.903937
    outer loop
      vertex 1.71041 0 14.4772
      vertex 1.859 4 14.5475
      vertex 1.859 0 14.5475
    endloop
  endfacet
  facet normal 0.427665 0 -0.903937
    outer loop
      vertex 1.859 4 14.5475
      vertex 1.71041 0 14.4772
      vertex 1.71041 4 14.4772
    endloop
  endfacet
  facet normal -0.24275 0 -0.970089
    outer loop
      vertex 2.82678 0 14.6428
      vertex 2.98623 4 14.6029
      vertex 2.98623 0 14.6029
    endloop
  endfacet
  facet normal -0.24275 0 -0.970089
    outer loop
      vertex 2.98623 4 14.6029
      vertex 2.82678 0 14.6428
      vertex 2.82678 4 14.6428
    endloop
  endfacet
  facet normal -0.514075 0 -0.857745
    outer loop
      vertex 3.28959 0 14.4772
      vertex 3.43058 4 14.3927
      vertex 3.43058 0 14.3927
    endloop
  endfacet
  facet normal -0.514075 0 -0.857745
    outer loop
      vertex 3.43058 4 14.3927
      vertex 3.28959 0 14.4772
      vertex 3.28959 4 14.4772
    endloop
  endfacet
  facet normal -0.941579 0 -0.336791
    outer loop
      vertex 4.10287 0 13.4862
      vertex 4.0475 4 13.641
      vertex 4.10287 4 13.4862
    endloop
  endfacet
  facet normal -0.941579 -0 -0.336791
    outer loop
      vertex 4.0475 4 13.641
      vertex 4.10287 0 13.4862
      vertex 4.0475 0 13.641
    endloop
  endfacet
  facet normal 0.74096 -0 0.671549
    outer loop
      vertex 1.20521 0 11.9374
      vertex 1.3156 4 11.8156
      vertex 1.20521 4 11.9374
    endloop
  endfacet
  facet normal 0.74096 0 0.671549
    outer loop
      vertex 1.3156 4 11.8156
      vertex 1.20521 0 11.9374
      vertex 1.3156 0 11.8156
    endloop
  endfacet
  facet normal 0.0492762 0 0.998785
    outer loop
      vertex 2.33582 4 11.3331
      vertex 2.5 0 11.325
      vertex 2.5 4 11.325
    endloop
  endfacet
  facet normal 0.0492762 0 0.998785
    outer loop
      vertex 2.5 0 11.325
      vertex 2.33582 4 11.3331
      vertex 2.33582 0 11.3331
    endloop
  endfacet
  facet normal 0.146615 0 0.989194
    outer loop
      vertex 2.17322 4 11.3572
      vertex 2.33582 0 11.3331
      vertex 2.33582 4 11.3331
    endloop
  endfacet
  facet normal 0.146615 0 0.989194
    outer loop
      vertex 2.33582 0 11.3331
      vertex 2.17322 4 11.3572
      vertex 2.17322 0 11.3572
    endloop
  endfacet
  facet normal -0.857734 0 -0.514093
    outer loop
      vertex 3.97722 0 13.7896
      vertex 3.89271 4 13.9306
      vertex 3.97722 4 13.7896
    endloop
  endfacet
  facet normal -0.857734 -0 -0.514093
    outer loop
      vertex 3.89271 4 13.9306
      vertex 3.97722 0 13.7896
      vertex 3.89271 0 13.9306
    endloop
  endfacet
  facet normal -0.427642 0 -0.903948
    outer loop
      vertex 3.14099 0 14.5475
      vertex 3.28959 4 14.4772
      vertex 3.28959 0 14.4772
    endloop
  endfacet
  facet normal -0.427642 0 -0.903948
    outer loop
      vertex 3.28959 4 14.4772
      vertex 3.14099 0 14.5475
      vertex 3.14099 4 14.5475
    endloop
  endfacet
  facet normal -0.671612 0 0.740903
    outer loop
      vertex 3.56261 4 11.7052
      vertex 3.6844 0 11.8156
      vertex 3.6844 4 11.8156
    endloop
  endfacet
  facet normal -0.671612 0 0.740903
    outer loop
      vertex 3.6844 0 11.8156
      vertex 3.56261 4 11.7052
      vertex 3.56261 0 11.7052
    endloop
  endfacet
  facet normal 0.24275 0 0.970089
    outer loop
      vertex 2.01377 4 11.3971
      vertex 2.17322 0 11.3572
      vertex 2.17322 4 11.3572
    endloop
  endfacet
  facet normal 0.24275 0 0.970089
    outer loop
      vertex 2.17322 0 11.3572
      vertex 2.01377 4 11.3971
      vertex 2.01377 0 11.3971
    endloop
  endfacet
  facet normal -0.427642 0 0.903948
    outer loop
      vertex 3.14099 4 11.4525
      vertex 3.28959 0 11.5228
      vertex 3.28959 4 11.5228
    endloop
  endfacet
  facet normal -0.427642 0 0.903948
    outer loop
      vertex 3.28959 0 11.5228
      vertex 3.14099 4 11.4525
      vertex 3.14099 0 11.4525
    endloop
  endfacet
  facet normal 0.803143 -0 0.595786
    outer loop
      vertex 1.10729 0 12.0694
      vertex 1.20521 4 11.9374
      vertex 1.10729 4 12.0694
    endloop
  endfacet
  facet normal 0.803143 0 0.595786
    outer loop
      vertex 1.20521 4 11.9374
      vertex 1.10729 0 12.0694
      vertex 1.20521 0 11.9374
    endloop
  endfacet
  facet normal -0.0492762 0 -0.998785
    outer loop
      vertex 2.5 0 14.675
      vertex 2.66418 4 14.6669
      vertex 2.66418 0 14.6669
    endloop
  endfacet
  facet normal -0.0492762 0 -0.998785
    outer loop
      vertex 2.66418 4 14.6669
      vertex 2.5 0 14.675
      vertex 2.5 4 14.675
    endloop
  endfacet
  facet normal -0.803143 0 0.595786
    outer loop
      vertex 3.79479 0 11.9374
      vertex 3.89271 4 12.0694
      vertex 3.79479 4 11.9374
    endloop
  endfacet
  facet normal -0.803143 0 0.595786
    outer loop
      vertex 3.89271 4 12.0694
      vertex 3.79479 0 11.9374
      vertex 3.89271 0 12.0694
    endloop
  endfacet
  facet normal -0.903995 0 -0.427542
    outer loop
      vertex 4.0475 0 13.641
      vertex 3.97722 4 13.7896
      vertex 4.0475 4 13.641
    endloop
  endfacet
  facet normal -0.903995 -0 -0.427542
    outer loop
      vertex 3.97722 4 13.7896
      vertex 4.0475 0 13.641
      vertex 3.97722 0 13.7896
    endloop
  endfacet
  facet normal 0.24275 0 -0.970089
    outer loop
      vertex 2.01377 0 14.6029
      vertex 2.17322 4 14.6428
      vertex 2.17322 0 14.6428
    endloop
  endfacet
  facet normal 0.24275 0 -0.970089
    outer loop
      vertex 2.17322 4 14.6428
      vertex 2.01377 0 14.6029
      vertex 2.01377 4 14.6029
    endloop
  endfacet
  facet normal 0.671612 0 -0.740903
    outer loop
      vertex 1.3156 0 14.1844
      vertex 1.43739 4 14.2948
      vertex 1.43739 0 14.2948
    endloop
  endfacet
  facet normal 0.671612 0 -0.740903
    outer loop
      vertex 1.43739 4 14.2948
      vertex 1.3156 0 14.1844
      vertex 1.3156 4 14.1844
    endloop
  endfacet
  facet normal 0.998796 -0 0.0490578
    outer loop
      vertex 0.825 0 13
      vertex 0.833065 3 12.8358
      vertex 0.825 3 13
    endloop
  endfacet
  facet normal 0.998796 0 0.0490578
    outer loop
      vertex 0.833065 3 12.8358
      vertex 0.825 0 13
      vertex 0.833065 0 12.8358
    endloop
  endfacet
  facet normal -0.33703 0 -0.941494
    outer loop
      vertex 2.98623 0 14.6029
      vertex 3.14099 4 14.5475
      vertex 3.14099 0 14.5475
    endloop
  endfacet
  facet normal -0.33703 0 -0.941494
    outer loop
      vertex 3.14099 4 14.5475
      vertex 2.98623 0 14.6029
      vertex 2.98623 4 14.6029
    endloop
  endfacet
  facet normal -0.671612 0 -0.740903
    outer loop
      vertex 3.56261 0 14.2948
      vertex 3.6844 4 14.1844
      vertex 3.6844 0 14.1844
    endloop
  endfacet
  facet normal -0.671612 0 -0.740903
    outer loop
      vertex 3.6844 4 14.1844
      vertex 3.56261 0 14.2948
      vertex 3.56261 4 14.2948
    endloop
  endfacet
  facet normal -0.970013 0 -0.243051
    outer loop
      vertex 4.14281 0 13.3268
      vertex 4.10287 4 13.4862
      vertex 4.14281 4 13.3268
    endloop
  endfacet
  facet normal -0.970013 -0 -0.243051
    outer loop
      vertex 4.10287 4 13.4862
      vertex 4.14281 0 13.3268
      vertex 4.10287 0 13.4862
    endloop
  endfacet
  facet normal -0.74096 0 -0.671549
    outer loop
      vertex 3.79479 0 14.0626
      vertex 3.6844 4 14.1844
      vertex 3.79479 4 14.0626
    endloop
  endfacet
  facet normal -0.74096 -0 -0.671549
    outer loop
      vertex 3.6844 4 14.1844
      vertex 3.79479 0 14.0626
      vertex 3.6844 0 14.1844
    endloop
  endfacet
  facet normal -0.941579 0 0.336791
    outer loop
      vertex 4.0475 0 12.359
      vertex 4.10287 4 12.5138
      vertex 4.0475 4 12.359
    endloop
  endfacet
  facet normal -0.941579 0 0.336791
    outer loop
      vertex 4.10287 4 12.5138
      vertex 4.0475 0 12.359
      vertex 4.10287 0 12.5138
    endloop
  endfacet
  facet normal -0.59562 0 0.803266
    outer loop
      vertex 3.43058 4 11.6073
      vertex 3.56261 0 11.7052
      vertex 3.56261 4 11.7052
    endloop
  endfacet
  facet normal -0.59562 0 0.803266
    outer loop
      vertex 3.56261 0 11.7052
      vertex 3.43058 4 11.6073
      vertex 3.43058 0 11.6073
    endloop
  endfacet
  facet normal 0.903943 0 0.427653
    outer loop
      vertex 0.952501 3 12.359
      vertex 0.952501 0 12.359
      vertex 1 3 12.2586
    endloop
  endfacet
  facet normal 0.904112 -0 0.427296
    outer loop
      vertex 1 3 12.2586
      vertex 1.02278 4 12.2104
      vertex 1 4 12.2586
    endloop
  endfacet
  facet normal 0.903998 -4.74467e-06 0.427537
    outer loop
      vertex 1.02278 0 12.2104
      vertex 1 3 12.2586
      vertex 0.952501 0 12.359
    endloop
  endfacet
  facet normal 0.904112 0 0.427296
    outer loop
      vertex 1 3 12.2586
      vertex 1.02278 0 12.2104
      vertex 1.02278 4 12.2104
    endloop
  endfacet
  facet normal 0.970013 0 -0.243051
    outer loop
      vertex 0.897124 0 13.4862
      vertex 0.857184 3 13.3268
      vertex 0.897124 3 13.4862
    endloop
  endfacet
  facet normal 0.970013 0 -0.243051
    outer loop
      vertex 0.857184 3 13.3268
      vertex 0.897124 0 13.4862
      vertex 0.857184 0 13.3268
    endloop
  endfacet
  facet normal -0.903995 0 0.427542
    outer loop
      vertex 3.97722 0 12.2104
      vertex 4.0475 4 12.359
      vertex 3.97722 4 12.2104
    endloop
  endfacet
  facet normal -0.903995 0 0.427542
    outer loop
      vertex 4.0475 4 12.359
      vertex 3.97722 0 12.2104
      vertex 4.0475 0 12.359
    endloop
  endfacet
  facet normal -0.989176 0 -0.146734
    outer loop
      vertex 4.16693 0 13.1642
      vertex 4.14281 4 13.3268
      vertex 4.16693 4 13.1642
    endloop
  endfacet
  facet normal -0.989176 -0 -0.146734
    outer loop
      vertex 4.14281 4 13.3268
      vertex 4.16693 0 13.1642
      vertex 4.14281 0 13.3268
    endloop
  endfacet
  facet normal -0.857734 0 0.514093
    outer loop
      vertex 3.89271 0 12.0694
      vertex 3.97722 4 12.2104
      vertex 3.89271 4 12.0694
    endloop
  endfacet
  facet normal -0.857734 0 0.514093
    outer loop
      vertex 3.97722 4 12.2104
      vertex 3.89271 0 12.0694
      vertex 3.97722 0 12.2104
    endloop
  endfacet
  facet normal 0.337011 0 0.941501
    outer loop
      vertex 1.859 4 11.4525
      vertex 2.01377 0 11.3971
      vertex 2.01377 4 11.3971
    endloop
  endfacet
  facet normal 0.337011 0 0.941501
    outer loop
      vertex 2.01377 0 11.3971
      vertex 1.859 4 11.4525
      vertex 1.859 0 11.4525
    endloop
  endfacet
  facet normal 0.803143 0 -0.595786
    outer loop
      vertex 1.20521 0 14.0626
      vertex 1.10729 4 13.9306
      vertex 1.20521 4 14.0626
    endloop
  endfacet
  facet normal 0.803143 0 -0.595786
    outer loop
      vertex 1.10729 4 13.9306
      vertex 1.20521 0 14.0626
      vertex 1.10729 0 13.9306
    endloop
  endfacet
  facet normal 0.857734 0 -0.514093
    outer loop
      vertex 1.10729 0 13.9306
      vertex 1.02278 4 13.7896
      vertex 1.10729 4 13.9306
    endloop
  endfacet
  facet normal 0.857734 0 -0.514093
    outer loop
      vertex 1.02278 4 13.7896
      vertex 1.10729 0 13.9306
      vertex 1.02278 0 13.7896
    endloop
  endfacet
  facet normal 0.989177 0 -0.146728
    outer loop
      vertex 0.857184 0 13.3268
      vertex 0.833065 3 13.1642
      vertex 0.857184 3 13.3268
    endloop
  endfacet
  facet normal 0.989177 0 -0.146728
    outer loop
      vertex 0.833065 3 13.1642
      vertex 0.857184 0 13.3268
      vertex 0.833065 0 13.1642
    endloop
  endfacet
  facet normal 0.0492762 0 -0.998785
    outer loop
      vertex 2.33582 0 14.6669
      vertex 2.5 4 14.675
      vertex 2.5 0 14.675
    endloop
  endfacet
  facet normal 0.0492762 0 -0.998785
    outer loop
      vertex 2.5 4 14.675
      vertex 2.33582 0 14.6669
      vertex 2.33582 4 14.6669
    endloop
  endfacet
  facet normal 0.671612 0 0.740903
    outer loop
      vertex 1.3156 4 11.8156
      vertex 1.43739 0 11.7052
      vertex 1.43739 4 11.7052
    endloop
  endfacet
  facet normal 0.671612 0 0.740903
    outer loop
      vertex 1.43739 0 11.7052
      vertex 1.3156 4 11.8156
      vertex 1.3156 0 11.8156
    endloop
  endfacet
  facet normal 0.970013 -0 0.243051
    outer loop
      vertex 0.857184 0 12.6732
      vertex 0.897124 3 12.5138
      vertex 0.857184 3 12.6732
    endloop
  endfacet
  facet normal 0.970013 0 0.243051
    outer loop
      vertex 0.897124 3 12.5138
      vertex 0.857184 0 12.6732
      vertex 0.897124 0 12.5138
    endloop
  endfacet
  facet normal 0.904112 0 -0.427296
    outer loop
      vertex 1.02278 4 13.7896
      vertex 1 3 13.7414
      vertex 1 4 13.7414
    endloop
  endfacet
  facet normal 0.904112 0 -0.427296
    outer loop
      vertex 1.02278 0 13.7896
      vertex 1 3 13.7414
      vertex 1.02278 4 13.7896
    endloop
  endfacet
  facet normal 0.903998 -4.74467e-06 -0.427537
    outer loop
      vertex 0.952501 0 13.641
      vertex 1 3 13.7414
      vertex 1.02278 0 13.7896
    endloop
  endfacet
  facet normal 0.903943 0 -0.427653
    outer loop
      vertex 1 3 13.7414
      vertex 0.952501 0 13.641
      vertex 0.952501 3 13.641
    endloop
  endfacet
  facet normal 0.989177 -0 0.146728
    outer loop
      vertex 0.833065 0 12.8358
      vertex 0.857184 3 12.6732
      vertex 0.833065 3 12.8358
    endloop
  endfacet
  facet normal 0.989177 0 0.146728
    outer loop
      vertex 0.857184 3 12.6732
      vertex 0.833065 0 12.8358
      vertex 0.857184 0 12.6732
    endloop
  endfacet
  facet normal -0.24275 0 0.970089
    outer loop
      vertex 2.82678 4 11.3572
      vertex 2.98623 0 11.3971
      vertex 2.98623 4 11.3971
    endloop
  endfacet
  facet normal -0.24275 0 0.970089
    outer loop
      vertex 2.98623 0 11.3971
      vertex 2.82678 4 11.3572
      vertex 2.82678 0 11.3572
    endloop
  endfacet
  facet normal 0.941566 0 -0.336829
    outer loop
      vertex 0.952501 0 13.641
      vertex 0.897124 3 13.4862
      vertex 0.952501 3 13.641
    endloop
  endfacet
  facet normal 0.941566 0 -0.336829
    outer loop
      vertex 0.897124 3 13.4862
      vertex 0.952501 0 13.641
      vertex 0.897124 0 13.4862
    endloop
  endfacet
  facet normal -0.59562 0 -0.803266
    outer loop
      vertex 3.43058 0 14.3927
      vertex 3.56261 4 14.2948
      vertex 3.56261 0 14.2948
    endloop
  endfacet
  facet normal -0.59562 0 -0.803266
    outer loop
      vertex 3.56261 4 14.2948
      vertex 3.43058 0 14.3927
      vertex 3.43058 4 14.3927
    endloop
  endfacet
  facet normal 0.59562 0 0.803266
    outer loop
      vertex 1.43739 4 11.7052
      vertex 1.56942 0 11.6073
      vertex 1.56942 4 11.6073
    endloop
  endfacet
  facet normal 0.59562 0 0.803266
    outer loop
      vertex 1.56942 0 11.6073
      vertex 1.43739 4 11.7052
      vertex 1.43739 0 11.7052
    endloop
  endfacet
  facet normal 0.941566 -0 0.336829
    outer loop
      vertex 0.897124 0 12.5138
      vertex 0.952501 3 12.359
      vertex 0.897124 3 12.5138
    endloop
  endfacet
  facet normal 0.941566 0 0.336829
    outer loop
      vertex 0.952501 3 12.359
      vertex 0.897124 0 12.5138
      vertex 0.952501 0 12.359
    endloop
  endfacet
  facet normal 0.146615 0 -0.989194
    outer loop
      vertex 2.17322 0 14.6428
      vertex 2.33582 4 14.6669
      vertex 2.33582 0 14.6669
    endloop
  endfacet
  facet normal 0.146615 0 -0.989194
    outer loop
      vertex 2.33582 4 14.6669
      vertex 2.17322 0 14.6428
      vertex 2.17322 4 14.6428
    endloop
  endfacet
  facet normal 0.59562 0 -0.803266
    outer loop
      vertex 1.43739 0 14.2948
      vertex 1.56942 4 14.3927
      vertex 1.56942 0 14.3927
    endloop
  endfacet
  facet normal 0.59562 0 -0.803266
    outer loop
      vertex 1.56942 4 14.3927
      vertex 1.43739 0 14.2948
      vertex 1.43739 4 14.2948
    endloop
  endfacet
  facet normal 0.514075 0 -0.857745
    outer loop
      vertex 1.56942 0 14.3927
      vertex 1.71041 4 14.4772
      vertex 1.71041 0 14.4772
    endloop
  endfacet
  facet normal 0.514075 0 -0.857745
    outer loop
      vertex 1.71041 4 14.4772
      vertex 1.56942 0 14.3927
      vertex 1.56942 4 14.3927
    endloop
  endfacet
  facet normal 0.998796 0 -0.0490578
    outer loop
      vertex 0.833065 0 13.1642
      vertex 0.825 3 13
      vertex 0.833065 3 13.1642
    endloop
  endfacet
  facet normal 0.998796 0 -0.0490578
    outer loop
      vertex 0.825 3 13
      vertex 0.833065 0 13.1642
      vertex 0.825 0 13
    endloop
  endfacet
  facet normal -0.146615 0 0.989194
    outer loop
      vertex 2.66418 4 11.3331
      vertex 2.82678 0 11.3572
      vertex 2.82678 4 11.3572
    endloop
  endfacet
  facet normal -0.146615 0 0.989194
    outer loop
      vertex 2.82678 0 11.3572
      vertex 2.66418 4 11.3331
      vertex 2.66418 0 11.3331
    endloop
  endfacet
  facet normal 0.337011 0 -0.941501
    outer loop
      vertex 1.859 0 14.5475
      vertex 2.01377 4 14.6029
      vertex 2.01377 0 14.6029
    endloop
  endfacet
  facet normal 0.337011 0 -0.941501
    outer loop
      vertex 2.01377 4 14.6029
      vertex 1.859 0 14.5475
      vertex 1.859 4 14.5475
    endloop
  endfacet
  facet normal -0.989282 0 0.146019
    outer loop
      vertex 103.143 0 12.6732
      vertex 103.167 3 12.8358
      vertex 103.143 3 12.6732
    endloop
  endfacet
  facet normal -0.989282 0 0.146019
    outer loop
      vertex 103.167 3 12.8358
      vertex 103.143 0 12.6732
      vertex 103.167 0 12.8358
    endloop
  endfacet
  facet normal -0.998815 0 0.0486633
    outer loop
      vertex 103.167 0 12.8358
      vertex 103.175 3 13
      vertex 103.167 3 12.8358
    endloop
  endfacet
  facet normal -0.998815 0 0.0486633
    outer loop
      vertex 103.175 3 13
      vertex 103.167 0 12.8358
      vertex 103.175 0 13
    endloop
  endfacet
  facet normal -0.969927 0 0.243395
    outer loop
      vertex 103.103 0 12.5138
      vertex 103.143 3 12.6732
      vertex 103.103 3 12.5138
    endloop
  endfacet
  facet normal -0.969927 0 0.243395
    outer loop
      vertex 103.143 3 12.6732
      vertex 103.103 0 12.5138
      vertex 103.143 0 12.6732
    endloop
  endfacet
  facet normal -0.739116 0 0.673578
    outer loop
      vertex 102.684 0 11.8156
      vertex 102.795 4 11.9374
      vertex 102.684 4 11.8156
    endloop
  endfacet
  facet normal -0.739116 0 0.673578
    outer loop
      vertex 102.795 4 11.9374
      vertex 102.684 0 11.8156
      vertex 102.795 0 11.9374
    endloop
  endfacet
  facet normal 0.859102 -0 0.511805
    outer loop
      vertex 100.023 0 12.2104
      vertex 100.107 4 12.0694
      vertex 100.023 4 12.2104
    endloop
  endfacet
  facet normal 0.859102 0 0.511805
    outer loop
      vertex 100.107 4 12.0694
      vertex 100.023 0 12.2104
      vertex 100.107 0 12.0694
    endloop
  endfacet
  facet normal 0.426703 0 0.904392
    outer loop
      vertex 100.71 4 11.5228
      vertex 100.859 0 11.4525
      vertex 100.859 4 11.4525
    endloop
  endfacet
  facet normal 0.426703 0 0.904392
    outer loop
      vertex 100.859 0 11.4525
      vertex 100.71 4 11.5228
      vertex 100.71 0 11.5228
    endloop
  endfacet
  facet normal -0.146263 0 -0.989246
    outer loop
      vertex 101.664 0 14.6669
      vertex 101.827 4 14.6428
      vertex 101.827 0 14.6428
    endloop
  endfacet
  facet normal -0.146263 0 -0.989246
    outer loop
      vertex 101.827 4 14.6428
      vertex 101.664 0 14.6669
      vertex 101.664 4 14.6669
    endloop
  endfacet
  facet normal -0.336567 0 0.941659
    outer loop
      vertex 101.986 4 11.3971
      vertex 102.141 0 11.4525
      vertex 102.141 4 11.4525
    endloop
  endfacet
  facet normal -0.336567 0 0.941659
    outer loop
      vertex 102.141 0 11.4525
      vertex 101.986 4 11.3971
      vertex 101.986 0 11.3971
    endloop
  endfacet
  facet normal -0.514048 0 0.857761
    outer loop
      vertex 102.29 4 11.5228
      vertex 102.431 0 11.6073
      vertex 102.431 4 11.6073
    endloop
  endfacet
  facet normal -0.514048 0 0.857761
    outer loop
      vertex 102.431 0 11.6073
      vertex 102.29 4 11.5228
      vertex 102.29 0 11.5228
    endloop
  endfacet
  facet normal -0.998815 0 -0.0486633
    outer loop
      vertex 103.175 0 13
      vertex 103.167 3 13.1642
      vertex 103.175 3 13
    endloop
  endfacet
  facet normal -0.998815 -0 -0.0486633
    outer loop
      vertex 103.167 3 13.1642
      vertex 103.175 0 13
      vertex 103.167 0 13.1642
    endloop
  endfacet
  facet normal -0.80291 0 -0.5961
    outer loop
      vertex 102.893 0 13.9306
      vertex 102.795 4 14.0626
      vertex 102.893 4 13.9306
    endloop
  endfacet
  facet normal -0.80291 -0 -0.5961
    outer loop
      vertex 102.795 4 14.0626
      vertex 102.893 0 13.9306
      vertex 102.795 0 14.0626
    endloop
  endfacet
  facet normal -0.0493301 0 0.998783
    outer loop
      vertex 101.5 4 11.325
      vertex 101.664 0 11.3331
      vertex 101.664 4 11.3331
    endloop
  endfacet
  facet normal -0.0493301 0 0.998783
    outer loop
      vertex 101.664 0 11.3331
      vertex 101.5 4 11.325
      vertex 101.5 0 11.325
    endloop
  endfacet
  facet normal 0.739116 0 -0.673578
    outer loop
      vertex 100.316 0 14.1844
      vertex 100.205 4 14.0626
      vertex 100.316 4 14.1844
    endloop
  endfacet
  facet normal 0.739116 0 -0.673578
    outer loop
      vertex 100.205 4 14.0626
      vertex 100.316 0 14.1844
      vertex 100.205 0 14.0626
    endloop
  endfacet
  facet normal 0.514048 0 0.857761
    outer loop
      vertex 100.569 4 11.6073
      vertex 100.71 0 11.5228
      vertex 100.71 4 11.5228
    endloop
  endfacet
  facet normal 0.514048 0 0.857761
    outer loop
      vertex 100.71 0 11.5228
      vertex 100.569 4 11.6073
      vertex 100.569 0 11.6073
    endloop
  endfacet
  facet normal 0.426703 0 -0.904392
    outer loop
      vertex 100.71 0 14.4772
      vertex 100.859 4 14.5475
      vertex 100.859 0 14.5475
    endloop
  endfacet
  facet normal 0.426703 0 -0.904392
    outer loop
      vertex 100.859 4 14.5475
      vertex 100.71 0 14.4772
      vertex 100.71 4 14.4772
    endloop
  endfacet
  facet normal -0.243397 0 -0.969927
    outer loop
      vertex 101.827 0 14.6428
      vertex 101.986 4 14.6029
      vertex 101.986 0 14.6029
    endloop
  endfacet
  facet normal -0.243397 0 -0.969927
    outer loop
      vertex 101.986 4 14.6029
      vertex 101.827 0 14.6428
      vertex 101.827 4 14.6428
    endloop
  endfacet
  facet normal -0.514048 0 -0.857761
    outer loop
      vertex 102.29 0 14.4772
      vertex 102.431 4 14.3927
      vertex 102.431 0 14.3927
    endloop
  endfacet
  facet normal -0.514048 0 -0.857761
    outer loop
      vertex 102.431 4 14.3927
      vertex 102.29 0 14.4772
      vertex 102.29 4 14.4772
    endloop
  endfacet
  facet normal -0.942292 0 -0.334793
    outer loop
      vertex 103.103 0 13.4862
      vertex 103.048 3 13.641
      vertex 103.103 3 13.4862
    endloop
  endfacet
  facet normal -0.942292 -0 -0.334793
    outer loop
      vertex 103.048 3 13.641
      vertex 103.103 0 13.4862
      vertex 103.048 0 13.641
    endloop
  endfacet
  facet normal 0.739116 -0 0.673578
    outer loop
      vertex 100.205 0 11.9374
      vertex 100.316 4 11.8156
      vertex 100.205 4 11.9374
    endloop
  endfacet
  facet normal 0.739116 0 0.673578
    outer loop
      vertex 100.316 4 11.8156
      vertex 100.205 0 11.9374
      vertex 100.316 0 11.8156
    endloop
  endfacet
  facet normal 0.0493301 0 0.998783
    outer loop
      vertex 101.336 4 11.3331
      vertex 101.5 0 11.325
      vertex 101.5 4 11.325
    endloop
  endfacet
  facet normal 0.0493301 0 0.998783
    outer loop
      vertex 101.5 0 11.325
      vertex 101.336 4 11.3331
      vertex 101.336 0 11.3331
    endloop
  endfacet
  facet normal 0.146263 0 0.989246
    outer loop
      vertex 101.173 4 11.3572
      vertex 101.336 0 11.3331
      vertex 101.336 4 11.3331
    endloop
  endfacet
  facet normal 0.146263 0 0.989246
    outer loop
      vertex 101.336 0 11.3331
      vertex 101.173 4 11.3572
      vertex 101.173 0 11.3572
    endloop
  endfacet
  facet normal -0.859102 0 -0.511805
    outer loop
      vertex 102.977 0 13.7896
      vertex 102.893 4 13.9306
      vertex 102.977 4 13.7896
    endloop
  endfacet
  facet normal -0.859102 -0 -0.511805
    outer loop
      vertex 102.893 4 13.9306
      vertex 102.977 0 13.7896
      vertex 102.893 0 13.9306
    endloop
  endfacet
  facet normal -0.426703 0 -0.904392
    outer loop
      vertex 102.141 0 14.5475
      vertex 102.29 4 14.4772
      vertex 102.29 0 14.4772
    endloop
  endfacet
  facet normal -0.426703 0 -0.904392
    outer loop
      vertex 102.29 4 14.4772
      vertex 102.141 0 14.5475
      vertex 102.141 4 14.5475
    endloop
  endfacet
  facet normal -0.674009 0 0.738723
    outer loop
      vertex 102.563 4 11.7052
      vertex 102.684 0 11.8156
      vertex 102.684 4 11.8156
    endloop
  endfacet
  facet normal -0.674009 0 0.738723
    outer loop
      vertex 102.684 0 11.8156
      vertex 102.563 4 11.7052
      vertex 102.563 0 11.7052
    endloop
  endfacet
  facet normal 0.243397 0 0.969927
    outer loop
      vertex 101.014 4 11.3971
      vertex 101.173 0 11.3572
      vertex 101.173 4 11.3572
    endloop
  endfacet
  facet normal 0.243397 0 0.969927
    outer loop
      vertex 101.173 0 11.3572
      vertex 101.014 4 11.3971
      vertex 101.014 0 11.3971
    endloop
  endfacet
  facet normal -0.426703 0 0.904392
    outer loop
      vertex 102.141 4 11.4525
      vertex 102.29 0 11.5228
      vertex 102.29 4 11.5228
    endloop
  endfacet
  facet normal -0.426703 0 0.904392
    outer loop
      vertex 102.29 0 11.5228
      vertex 102.141 4 11.4525
      vertex 102.141 0 11.4525
    endloop
  endfacet
  facet normal 0.80291 -0 0.5961
    outer loop
      vertex 100.107 0 12.0694
      vertex 100.205 4 11.9374
      vertex 100.107 4 12.0694
    endloop
  endfacet
  facet normal 0.80291 0 0.5961
    outer loop
      vertex 100.205 4 11.9374
      vertex 100.107 0 12.0694
      vertex 100.205 0 11.9374
    endloop
  endfacet
  facet normal -0.0493301 0 -0.998783
    outer loop
      vertex 101.5 0 14.675
      vertex 101.664 4 14.6669
      vertex 101.664 0 14.6669
    endloop
  endfacet
  facet normal -0.0493301 0 -0.998783
    outer loop
      vertex 101.664 4 14.6669
      vertex 101.5 0 14.675
      vertex 101.5 4 14.675
    endloop
  endfacet
  facet normal -0.80291 0 0.5961
    outer loop
      vertex 102.795 0 11.9374
      vertex 102.893 4 12.0694
      vertex 102.795 4 11.9374
    endloop
  endfacet
  facet normal -0.80291 0 0.5961
    outer loop
      vertex 102.893 4 12.0694
      vertex 102.795 0 11.9374
      vertex 102.893 0 12.0694
    endloop
  endfacet
  facet normal -0.902195 -0 -0.431328
    outer loop
      vertex 103.048 3 13.641
      vertex 103.048 0 13.641
      vertex 103 3 13.7414
    endloop
  endfacet
  facet normal -0.902514 0 -0.43066
    outer loop
      vertex 103 3 13.7414
      vertex 102.977 4 13.7896
      vertex 103 4 13.7414
    endloop
  endfacet
  facet normal -0.902299 -8.90559e-06 -0.431112
    outer loop
      vertex 102.977 0 13.7896
      vertex 103 3 13.7414
      vertex 103.048 0 13.641
    endloop
  endfacet
  facet normal -0.902514 0 -0.43066
    outer loop
      vertex 103 3 13.7414
      vertex 102.977 0 13.7896
      vertex 102.977 4 13.7896
    endloop
  endfacet
  facet normal 0.243397 0 -0.969927
    outer loop
      vertex 101.014 0 14.6029
      vertex 101.173 4 14.6428
      vertex 101.173 0 14.6428
    endloop
  endfacet
  facet normal 0.243397 0 -0.969927
    outer loop
      vertex 101.173 4 14.6428
      vertex 101.014 0 14.6029
      vertex 101.014 4 14.6029
    endloop
  endfacet
  facet normal 0.674009 0 -0.738723
    outer loop
      vertex 100.316 0 14.1844
      vertex 100.437 4 14.2948
      vertex 100.437 0 14.2948
    endloop
  endfacet
  facet normal 0.674009 0 -0.738723
    outer loop
      vertex 100.437 4 14.2948
      vertex 100.316 0 14.1844
      vertex 100.316 4 14.1844
    endloop
  endfacet
  facet normal 0.989194 -0 0.146615
    outer loop
      vertex 99.8331 0 12.8358
      vertex 99.8572 4 12.6732
      vertex 99.8331 4 12.8358
    endloop
  endfacet
  facet normal 0.989194 0 0.146615
    outer loop
      vertex 99.8572 4 12.6732
      vertex 99.8331 0 12.8358
      vertex 99.8572 0 12.6732
    endloop
  endfacet
  facet normal 0.998785 -0 0.0492702
    outer loop
      vertex 99.825 0 13
      vertex 99.8331 4 12.8358
      vertex 99.825 4 13
    endloop
  endfacet
  facet normal 0.998785 0 0.0492702
    outer loop
      vertex 99.8331 4 12.8358
      vertex 99.825 0 13
      vertex 99.8331 0 12.8358
    endloop
  endfacet
  facet normal -0.336567 0 -0.941659
    outer loop
      vertex 101.986 0 14.6029
      vertex 102.141 4 14.5475
      vertex 102.141 0 14.5475
    endloop
  endfacet
  facet normal -0.336567 0 -0.941659
    outer loop
      vertex 102.141 4 14.5475
      vertex 101.986 0 14.6029
      vertex 101.986 4 14.6029
    endloop
  endfacet
  facet normal -0.674009 0 -0.738723
    outer loop
      vertex 102.563 0 14.2948
      vertex 102.684 4 14.1844
      vertex 102.684 0 14.1844
    endloop
  endfacet
  facet normal -0.674009 0 -0.738723
    outer loop
      vertex 102.684 4 14.1844
      vertex 102.563 0 14.2948
      vertex 102.563 4 14.2948
    endloop
  endfacet
  facet normal -0.969927 0 -0.243395
    outer loop
      vertex 103.143 0 13.3268
      vertex 103.103 3 13.4862
      vertex 103.143 3 13.3268
    endloop
  endfacet
  facet normal -0.969927 -0 -0.243395
    outer loop
      vertex 103.103 3 13.4862
      vertex 103.143 0 13.3268
      vertex 103.103 0 13.4862
    endloop
  endfacet
  facet normal -0.739116 0 -0.673578
    outer loop
      vertex 102.795 0 14.0626
      vertex 102.684 4 14.1844
      vertex 102.795 4 14.0626
    endloop
  endfacet
  facet normal -0.739116 -0 -0.673578
    outer loop
      vertex 102.684 4 14.1844
      vertex 102.795 0 14.0626
      vertex 102.684 0 14.1844
    endloop
  endfacet
  facet normal -0.942292 0 0.334793
    outer loop
      vertex 103.048 0 12.359
      vertex 103.103 3 12.5138
      vertex 103.048 3 12.359
    endloop
  endfacet
  facet normal -0.942292 0 0.334793
    outer loop
      vertex 103.103 3 12.5138
      vertex 103.048 0 12.359
      vertex 103.103 0 12.5138
    endloop
  endfacet
  facet normal -0.595708 0 0.803201
    outer loop
      vertex 102.431 4 11.6073
      vertex 102.563 0 11.7052
      vertex 102.563 4 11.7052
    endloop
  endfacet
  facet normal -0.595708 0 0.803201
    outer loop
      vertex 102.563 0 11.7052
      vertex 102.431 4 11.6073
      vertex 102.431 0 11.6073
    endloop
  endfacet
  facet normal 0.903478 -0 0.428635
    outer loop
      vertex 99.9525 0 12.359
      vertex 100.023 4 12.2104
      vertex 99.9525 4 12.359
    endloop
  endfacet
  facet normal 0.903478 0 0.428635
    outer loop
      vertex 100.023 4 12.2104
      vertex 99.9525 0 12.359
      vertex 100.023 0 12.2104
    endloop
  endfacet
  facet normal 0.970071 0 -0.242822
    outer loop
      vertex 99.8971 0 13.4862
      vertex 99.8572 4 13.3268
      vertex 99.8971 4 13.4862
    endloop
  endfacet
  facet normal 0.970071 0 -0.242822
    outer loop
      vertex 99.8572 4 13.3268
      vertex 99.8971 0 13.4862
      vertex 99.8572 0 13.3268
    endloop
  endfacet
  facet normal -0.902514 0 0.43066
    outer loop
      vertex 102.977 4 12.2104
      vertex 103 3 12.2586
      vertex 103 4 12.2586
    endloop
  endfacet
  facet normal -0.902514 0 0.43066
    outer loop
      vertex 102.977 0 12.2104
      vertex 103 3 12.2586
      vertex 102.977 4 12.2104
    endloop
  endfacet
  facet normal -0.902299 -8.90559e-06 0.431112
    outer loop
      vertex 103.048 0 12.359
      vertex 103 3 12.2586
      vertex 102.977 0 12.2104
    endloop
  endfacet
  facet normal -0.902195 0 0.431328
    outer loop
      vertex 103 3 12.2586
      vertex 103.048 0 12.359
      vertex 103.048 3 12.359
    endloop
  endfacet
  facet normal -0.989282 0 -0.146019
    outer loop
      vertex 103.167 0 13.1642
      vertex 103.143 3 13.3268
      vertex 103.167 3 13.1642
    endloop
  endfacet
  facet normal -0.989282 -0 -0.146019
    outer loop
      vertex 103.143 3 13.3268
      vertex 103.167 0 13.1642
      vertex 103.143 0 13.3268
    endloop
  endfacet
  facet normal -0.859102 0 0.511805
    outer loop
      vertex 102.893 0 12.0694
      vertex 102.977 4 12.2104
      vertex 102.893 4 12.0694
    endloop
  endfacet
  facet normal -0.859102 0 0.511805
    outer loop
      vertex 102.977 4 12.2104
      vertex 102.893 0 12.0694
      vertex 102.977 0 12.2104
    endloop
  endfacet
  facet normal 0.336567 0 0.941659
    outer loop
      vertex 100.859 4 11.4525
      vertex 101.014 0 11.3971
      vertex 101.014 4 11.3971
    endloop
  endfacet
  facet normal 0.336567 0 0.941659
    outer loop
      vertex 101.014 0 11.3971
      vertex 100.859 4 11.4525
      vertex 100.859 0 11.4525
    endloop
  endfacet
  facet normal 0.80291 0 -0.5961
    outer loop
      vertex 100.205 0 14.0626
      vertex 100.107 4 13.9306
      vertex 100.205 4 14.0626
    endloop
  endfacet
  facet normal 0.80291 0 -0.5961
    outer loop
      vertex 100.107 4 13.9306
      vertex 100.205 0 14.0626
      vertex 100.107 0 13.9306
    endloop
  endfacet
  facet normal 0.859102 0 -0.511805
    outer loop
      vertex 100.107 0 13.9306
      vertex 100.023 4 13.7896
      vertex 100.107 4 13.9306
    endloop
  endfacet
  facet normal 0.859102 0 -0.511805
    outer loop
      vertex 100.023 4 13.7896
      vertex 100.107 0 13.9306
      vertex 100.023 0 13.7896
    endloop
  endfacet
  facet normal 0.989194 0 -0.146615
    outer loop
      vertex 99.8572 0 13.3268
      vertex 99.8331 4 13.1642
      vertex 99.8572 4 13.3268
    endloop
  endfacet
  facet normal 0.989194 0 -0.146615
    outer loop
      vertex 99.8331 4 13.1642
      vertex 99.8572 0 13.3268
      vertex 99.8331 0 13.1642
    endloop
  endfacet
  facet normal 0.0493301 0 -0.998783
    outer loop
      vertex 101.336 0 14.6669
      vertex 101.5 4 14.675
      vertex 101.5 0 14.675
    endloop
  endfacet
  facet normal 0.0493301 0 -0.998783
    outer loop
      vertex 101.5 4 14.675
      vertex 101.336 0 14.6669
      vertex 101.336 4 14.6669
    endloop
  endfacet
  facet normal 0.674009 0 0.738723
    outer loop
      vertex 100.316 4 11.8156
      vertex 100.437 0 11.7052
      vertex 100.437 4 11.7052
    endloop
  endfacet
  facet normal 0.674009 0 0.738723
    outer loop
      vertex 100.437 0 11.7052
      vertex 100.316 4 11.8156
      vertex 100.316 0 11.8156
    endloop
  endfacet
  facet normal 0.970071 -0 0.242822
    outer loop
      vertex 99.8572 0 12.6732
      vertex 99.8971 4 12.5138
      vertex 99.8572 4 12.6732
    endloop
  endfacet
  facet normal 0.970071 0 0.242822
    outer loop
      vertex 99.8971 4 12.5138
      vertex 99.8572 0 12.6732
      vertex 99.8971 0 12.5138
    endloop
  endfacet
  facet normal 0.903478 0 -0.428635
    outer loop
      vertex 100.023 0 13.7896
      vertex 99.9525 4 13.641
      vertex 100.023 4 13.7896
    endloop
  endfacet
  facet normal 0.903478 0 -0.428635
    outer loop
      vertex 99.9525 4 13.641
      vertex 100.023 0 13.7896
      vertex 99.9525 0 13.641
    endloop
  endfacet
  facet normal -0.243397 0 0.969927
    outer loop
      vertex 101.827 4 11.3572
      vertex 101.986 0 11.3971
      vertex 101.986 4 11.3971
    endloop
  endfacet
  facet normal -0.243397 0 0.969927
    outer loop
      vertex 101.986 0 11.3971
      vertex 101.827 4 11.3572
      vertex 101.827 0 11.3572
    endloop
  endfacet
  facet normal 0.941522 0 -0.336953
    outer loop
      vertex 99.9525 0 13.641
      vertex 99.8971 4 13.4862
      vertex 99.9525 4 13.641
    endloop
  endfacet
  facet normal 0.941522 0 -0.336953
    outer loop
      vertex 99.8971 4 13.4862
      vertex 99.9525 0 13.641
      vertex 99.8971 0 13.4862
    endloop
  endfacet
  facet normal -0.595708 0 -0.803201
    outer loop
      vertex 102.431 0 14.3927
      vertex 102.563 4 14.2948
      vertex 102.563 0 14.2948
    endloop
  endfacet
  facet normal -0.595708 0 -0.803201
    outer loop
      vertex 102.563 4 14.2948
      vertex 102.431 0 14.3927
      vertex 102.431 4 14.3927
    endloop
  endfacet
  facet normal 0.595708 0 0.803201
    outer loop
      vertex 100.437 4 11.7052
      vertex 100.569 0 11.6073
      vertex 100.569 4 11.6073
    endloop
  endfacet
  facet normal 0.595708 0 0.803201
    outer loop
      vertex 100.569 0 11.6073
      vertex 100.437 4 11.7052
      vertex 100.437 0 11.7052
    endloop
  endfacet
  facet normal 0.941522 -0 0.336953
    outer loop
      vertex 99.8971 0 12.5138
      vertex 99.9525 4 12.359
      vertex 99.8971 4 12.5138
    endloop
  endfacet
  facet normal 0.941522 0 0.336953
    outer loop
      vertex 99.9525 4 12.359
      vertex 99.8971 0 12.5138
      vertex 99.9525 0 12.359
    endloop
  endfacet
  facet normal 0.146263 0 -0.989246
    outer loop
      vertex 101.173 0 14.6428
      vertex 101.336 4 14.6669
      vertex 101.336 0 14.6669
    endloop
  endfacet
  facet normal 0.146263 0 -0.989246
    outer loop
      vertex 101.336 4 14.6669
      vertex 101.173 0 14.6428
      vertex 101.173 4 14.6428
    endloop
  endfacet
  facet normal 0.595708 0 -0.803201
    outer loop
      vertex 100.437 0 14.2948
      vertex 100.569 4 14.3927
      vertex 100.569 0 14.3927
    endloop
  endfacet
  facet normal 0.595708 0 -0.803201
    outer loop
      vertex 100.569 4 14.3927
      vertex 100.437 0 14.2948
      vertex 100.437 4 14.2948
    endloop
  endfacet
  facet normal 0.514048 0 -0.857761
    outer loop
      vertex 100.569 0 14.3927
      vertex 100.71 4 14.4772
      vertex 100.71 0 14.4772
    endloop
  endfacet
  facet normal 0.514048 0 -0.857761
    outer loop
      vertex 100.71 4 14.4772
      vertex 100.569 0 14.3927
      vertex 100.569 4 14.3927
    endloop
  endfacet
  facet normal 0.998785 0 -0.0492702
    outer loop
      vertex 99.8331 0 13.1642
      vertex 99.825 4 13
      vertex 99.8331 4 13.1642
    endloop
  endfacet
  facet normal 0.998785 0 -0.0492702
    outer loop
      vertex 99.825 4 13
      vertex 99.8331 0 13.1642
      vertex 99.825 0 13
    endloop
  endfacet
  facet normal -0.146263 0 0.989246
    outer loop
      vertex 101.664 4 11.3331
      vertex 101.827 0 11.3572
      vertex 101.827 4 11.3572
    endloop
  endfacet
  facet normal -0.146263 0 0.989246
    outer loop
      vertex 101.827 0 11.3572
      vertex 101.664 4 11.3331
      vertex 101.664 0 11.3331
    endloop
  endfacet
  facet normal 0.336567 0 -0.941659
    outer loop
      vertex 100.859 0 14.5475
      vertex 101.014 4 14.6029
      vertex 101.014 0 14.6029
    endloop
  endfacet
  facet normal 0.336567 0 -0.941659
    outer loop
      vertex 101.014 4 14.6029
      vertex 100.859 0 14.5475
      vertex 100.859 4 14.5475
    endloop
  endfacet
endsolid OpenSCAD_Model
