solid OpenSCAD_Model
  facet normal 1 -0 0
    outer loop
      vertex 106 0 26
      vertex 106 3 14.5979
      vertex 106 3 26
    endloop
  endfacet
  facet normal 1 0 0
    outer loop
      vertex 106 3 14.5979
      vertex 106 0 26
      vertex 106 0 14.5979
    endloop
  endfacet
  facet normal 1 -0 0
    outer loop
      vertex 106 0 11.4021
      vertex 106 3 0
      vertex 106 3 11.4021
    endloop
  endfacet
  facet normal 1 0 0
    outer loop
      vertex 106 3 0
      vertex 106 0 11.4021
      vertex 106 0 0
    endloop
  endfacet
  facet normal -0 0 1
    outer loop
      vertex 0 3 26
      vertex 106 0 26
      vertex 106 3 26
    endloop
  endfacet
  facet normal 0 0 1
    outer loop
      vertex 106 0 26
      vertex 0 3 26
      vertex 0 0 26
    endloop
  endfacet
  facet normal 0 0 -1
    outer loop
      vertex 0 0 0
      vertex 106 3 0
      vertex 106 0 0
    endloop
  endfacet
  facet normal -0 0 -1
    outer loop
      vertex 106 3 0
      vertex 0 0 0
      vertex 0 3 0
    endloop
  endfacet
  facet normal -1 0 0
    outer loop
      vertex 0 0 14.5979
      vertex 0 3 26
      vertex 0 3 14.5979
    endloop
  endfacet
  facet normal -1 -0 0
    outer loop
      vertex 0 3 26
      vertex 0 0 14.5979
      vertex 0 0 26
    endloop
  endfacet
  facet normal -1 0 0
    outer loop
      vertex 0 0 0
      vertex 0 3 11.4021
      vertex 0 3 0
    endloop
  endfacet
  facet normal -1 -0 0
    outer loop
      vertex 0 3 11.4021
      vertex 0 0 0
      vertex 0 0 11.4021
    endloop
  endfacet
  facet normal 0 1 0
    outer loop
      vertex 106 3 26
      vertex 105 3 25
      vertex 0 3 26
    endloop
  endfacet
  facet normal 0 1 -0
    outer loop
      vertex 106 3 14.5979
      vertex 105 3 25
      vertex 106 3 26
    endloop
  endfacet
  facet normal 0 1 -0
    outer loop
      vertex 105.859 3 14.5475
      vertex 105 3 25
      vertex 106 3 14.5979
    endloop
  endfacet
  facet normal 0 1 -0
    outer loop
      vertex 105.71 3 14.4772
      vertex 105 3 25
      vertex 105.859 3 14.5475
    endloop
  endfacet
  facet normal 0 1 -0
    outer loop
      vertex 105.569 3 14.3927
      vertex 105 3 25
      vertex 105.71 3 14.4772
    endloop
  endfacet
  facet normal 0 1 -0
    outer loop
      vertex 105.437 3 14.2948
      vertex 105 3 25
      vertex 105.569 3 14.3927
    endloop
  endfacet
  facet normal 0 1 -0
    outer loop
      vertex 105.316 3 14.1844
      vertex 105 3 25
      vertex 105.437 3 14.2948
    endloop
  endfacet
  facet normal 0 1 -0
    outer loop
      vertex 105.205 3 14.0626
      vertex 105 3 25
      vertex 105.316 3 14.1844
    endloop
  endfacet
  facet normal 0 1 -0
    outer loop
      vertex 105.107 3 13.9306
      vertex 105 3 25
      vertex 105.205 3 14.0626
    endloop
  endfacet
  facet normal 0 1 -0
    outer loop
      vertex 105.023 3 13.7896
      vertex 105 3 25
      vertex 105.107 3 13.9306
    endloop
  endfacet
  facet normal 0 1 0
    outer loop
      vertex 105 3 25
      vertex 105.023 3 13.7896
      vertex 105 3 13.7414
    endloop
  endfacet
  facet normal 0 1 -0
    outer loop
      vertex 1 3 25
      vertex 0 3 26
      vertex 105 3 25
    endloop
  endfacet
  facet normal 0 1 0
    outer loop
      vertex 1 3 25
      vertex 0 3 14.5979
      vertex 0 3 26
    endloop
  endfacet
  facet normal 0 1 0
    outer loop
      vertex 1 3 25
      vertex 0.140994 3 14.5475
      vertex 0 3 14.5979
    endloop
  endfacet
  facet normal 0 1 0
    outer loop
      vertex 1 3 25
      vertex 0.289589 3 14.4772
      vertex 0.140994 3 14.5475
    endloop
  endfacet
  facet normal 0 1 0
    outer loop
      vertex 1 3 25
      vertex 0.43058 3 14.3927
      vertex 0.289589 3 14.4772
    endloop
  endfacet
  facet normal 0 1 0
    outer loop
      vertex 1 3 25
      vertex 0.562609 3 14.2948
      vertex 0.43058 3 14.3927
    endloop
  endfacet
  facet normal 0 1 0
    outer loop
      vertex 1 3 25
      vertex 0.684403 3 14.1844
      vertex 0.562609 3 14.2948
    endloop
  endfacet
  facet normal 0 1 0
    outer loop
      vertex 1 3 25
      vertex 0.794792 3 14.0626
      vertex 0.684403 3 14.1844
    endloop
  endfacet
  facet normal 0 1 0
    outer loop
      vertex 1 3 25
      vertex 0.892711 3 13.9306
      vertex 0.794792 3 14.0626
    endloop
  endfacet
  facet normal 0 1 0
    outer loop
      vertex 1 3 25
      vertex 0.977218 3 13.7896
      vertex 0.892711 3 13.9306
    endloop
  endfacet
  facet normal -0 1 0
    outer loop
      vertex 0.977218 3 13.7896
      vertex 1 3 25
      vertex 1 3 13.7414
    endloop
  endfacet
  facet normal 0 1 0
    outer loop
      vertex 105.023 3 12.2104
      vertex 105 3 1
      vertex 105 3 12.2586
    endloop
  endfacet
  facet normal 0 1 0
    outer loop
      vertex 105.107 3 12.0694
      vertex 105 3 1
      vertex 105.023 3 12.2104
    endloop
  endfacet
  facet normal 0 1 0
    outer loop
      vertex 105.205 3 11.9374
      vertex 105 3 1
      vertex 105.107 3 12.0694
    endloop
  endfacet
  facet normal 0 1 0
    outer loop
      vertex 105.316 3 11.8156
      vertex 105 3 1
      vertex 105.205 3 11.9374
    endloop
  endfacet
  facet normal 0 1 0
    outer loop
      vertex 105.437 3 11.7052
      vertex 105 3 1
      vertex 105.316 3 11.8156
    endloop
  endfacet
  facet normal 0 1 0
    outer loop
      vertex 105.569 3 11.6073
      vertex 105 3 1
      vertex 105.437 3 11.7052
    endloop
  endfacet
  facet normal 0 1 0
    outer loop
      vertex 105.71 3 11.5228
      vertex 105 3 1
      vertex 105.569 3 11.6073
    endloop
  endfacet
  facet normal 0 1 0
    outer loop
      vertex 105.859 3 11.4525
      vertex 105 3 1
      vertex 105.71 3 11.5228
    endloop
  endfacet
  facet normal 0 1 0
    outer loop
      vertex 106 3 11.4021
      vertex 105 3 1
      vertex 105.859 3 11.4525
    endloop
  endfacet
  facet normal 0 1 0
    outer loop
      vertex 105 3 1
      vertex 106 3 0
      vertex 1 3 1
    endloop
  endfacet
  facet normal 0 1 -0
    outer loop
      vertex 106 3 0
      vertex 105 3 1
      vertex 106 3 11.4021
    endloop
  endfacet
  facet normal 0 1 -0
    outer loop
      vertex 1 3 1
      vertex 0.977218 3 12.2104
      vertex 1 3 12.2586
    endloop
  endfacet
  facet normal 0 1 0
    outer loop
      vertex 1 3 1
      vertex 0.892711 3 12.0694
      vertex 0.977218 3 12.2104
    endloop
  endfacet
  facet normal 0 1 0
    outer loop
      vertex 1 3 1
      vertex 0.794792 3 11.9374
      vertex 0.892711 3 12.0694
    endloop
  endfacet
  facet normal 0 1 0
    outer loop
      vertex 1 3 1
      vertex 0.684403 3 11.8156
      vertex 0.794792 3 11.9374
    endloop
  endfacet
  facet normal 0 1 0
    outer loop
      vertex 1 3 1
      vertex 0.562609 3 11.7052
      vertex 0.684403 3 11.8156
    endloop
  endfacet
  facet normal 0 1 0
    outer loop
      vertex 1 3 1
      vertex 0.43058 3 11.6073
      vertex 0.562609 3 11.7052
    endloop
  endfacet
  facet normal 0 1 0
    outer loop
      vertex 1 3 1
      vertex 0.289589 3 11.5228
      vertex 0.43058 3 11.6073
    endloop
  endfacet
  facet normal 0 1 0
    outer loop
      vertex 1 3 1
      vertex 0.140994 3 11.4525
      vertex 0.289589 3 11.5228
    endloop
  endfacet
  facet normal 0 1 0
    outer loop
      vertex 1 3 1
      vertex 0 3 11.4021
      vertex 0.140994 3 11.4525
    endloop
  endfacet
  facet normal 0 1 0
    outer loop
      vertex 1 3 1
      vertex 0 3 0
      vertex 0 3 11.4021
    endloop
  endfacet
  facet normal 0 1 0
    outer loop
      vertex 0 3 0
      vertex 1 3 1
      vertex 106 3 0
    endloop
  endfacet
  facet normal 0 -1 0
    outer loop
      vertex 0.140994 0 14.5475
      vertex 0 0 26
      vertex 0 0 14.5979
    endloop
  endfacet
  facet normal 0 -1 0
    outer loop
      vertex 0.289589 0 14.4772
      vertex 0 0 26
      vertex 0.140994 0 14.5475
    endloop
  endfacet
  facet normal 0 -1 0
    outer loop
      vertex 0.43058 0 14.3927
      vertex 0 0 26
      vertex 0.289589 0 14.4772
    endloop
  endfacet
  facet normal 0 -1 -0
    outer loop
      vertex 106 0 26
      vertex 105.859 0 14.5475
      vertex 106 0 14.5979
    endloop
  endfacet
  facet normal 0 -1 0
    outer loop
      vertex 0.562609 0 14.2948
      vertex 0 0 26
      vertex 0.43058 0 14.3927
    endloop
  endfacet
  facet normal 0 -1 0
    outer loop
      vertex 106 0 26
      vertex 105.71 0 14.4772
      vertex 105.859 0 14.5475
    endloop
  endfacet
  facet normal 0 -1 0
    outer loop
      vertex 0.684403 0 14.1844
      vertex 0 0 26
      vertex 0.562609 0 14.2948
    endloop
  endfacet
  facet normal 0 -1 0
    outer loop
      vertex 106 0 26
      vertex 105.569 0 14.3927
      vertex 105.71 0 14.4772
    endloop
  endfacet
  facet normal 0 -1 0
    outer loop
      vertex 0.794792 0 14.0626
      vertex 0 0 26
      vertex 0.684403 0 14.1844
    endloop
  endfacet
  facet normal 0 -1 0
    outer loop
      vertex 106 0 26
      vertex 105.437 0 14.2948
      vertex 105.569 0 14.3927
    endloop
  endfacet
  facet normal 0 -1 0
    outer loop
      vertex 0.892711 0 13.9306
      vertex 0 0 26
      vertex 0.794792 0 14.0626
    endloop
  endfacet
  facet normal 0 -1 0
    outer loop
      vertex 106 0 26
      vertex 105.316 0 14.1844
      vertex 105.437 0 14.2948
    endloop
  endfacet
  facet normal 0 -1 0
    outer loop
      vertex 0.977218 0 13.7896
      vertex 0 0 26
      vertex 0.892711 0 13.9306
    endloop
  endfacet
  facet normal 0 -1 0
    outer loop
      vertex 106 0 26
      vertex 105.205 0 14.0626
      vertex 105.316 0 14.1844
    endloop
  endfacet
  facet normal 0 -1 0
    outer loop
      vertex 1.0475 0 13.641
      vertex 0 0 26
      vertex 0.977218 0 13.7896
    endloop
  endfacet
  facet normal 0 -1 0
    outer loop
      vertex 106 0 26
      vertex 105.107 0 13.9306
      vertex 105.205 0 14.0626
    endloop
  endfacet
  facet normal 0 -1 0
    outer loop
      vertex 1.10287 0 13.4862
      vertex 0 0 26
      vertex 1.0475 0 13.641
    endloop
  endfacet
  facet normal 0 -1 0
    outer loop
      vertex 106 0 26
      vertex 105.023 0 13.7896
      vertex 105.107 0 13.9306
    endloop
  endfacet
  facet normal 0 -1 0
    outer loop
      vertex 1.14281 0 13.3268
      vertex 0 0 26
      vertex 1.10287 0 13.4862
    endloop
  endfacet
  facet normal 0 -1 0
    outer loop
      vertex 106 0 26
      vertex 104.952 0 13.641
      vertex 105.023 0 13.7896
    endloop
  endfacet
  facet normal 0 -1 0
    outer loop
      vertex 0 0 26
      vertex 1.14281 0 13.3268
      vertex 106 0 26
    endloop
  endfacet
  facet normal 0 -1 0
    outer loop
      vertex 106 0 26
      vertex 104.897 0 13.4862
      vertex 104.952 0 13.641
    endloop
  endfacet
  facet normal 0 -1 0
    outer loop
      vertex 104.857 0 13.3268
      vertex 106 0 26
      vertex 1.14281 0 13.3268
    endloop
  endfacet
  facet normal 0 -1 0
    outer loop
      vertex 106 0 26
      vertex 104.857 0 13.3268
      vertex 104.897 0 13.4862
    endloop
  endfacet
  facet normal 0 -1 0
    outer loop
      vertex 1.16693 0 13.1642
      vertex 104.857 0 13.3268
      vertex 1.14281 0 13.3268
    endloop
  endfacet
  facet normal 0 -1 0
    outer loop
      vertex 1.16693 0 13.1642
      vertex 104.833 0 13.1642
      vertex 104.857 0 13.3268
    endloop
  endfacet
  facet normal 0 -1 0
    outer loop
      vertex 1.175 0 13
      vertex 104.833 0 13.1642
      vertex 1.16693 0 13.1642
    endloop
  endfacet
  facet normal 0 -1 0
    outer loop
      vertex 1.175 0 13
      vertex 104.825 0 13
      vertex 104.833 0 13.1642
    endloop
  endfacet
  facet normal 0 -1 0
    outer loop
      vertex 1.16693 0 12.8358
      vertex 104.825 0 13
      vertex 1.175 0 13
    endloop
  endfacet
  facet normal 0 -1 0
    outer loop
      vertex 1.16693 0 12.8358
      vertex 104.833 0 12.8358
      vertex 104.825 0 13
    endloop
  endfacet
  facet normal 0 -1 0
    outer loop
      vertex 1.14281 0 12.6732
      vertex 104.833 0 12.8358
      vertex 1.16693 0 12.8358
    endloop
  endfacet
  facet normal 0 -1 0
    outer loop
      vertex 1.14281 0 12.6732
      vertex 104.857 0 12.6732
      vertex 104.833 0 12.8358
    endloop
  endfacet
  facet normal 0 -1 0
    outer loop
      vertex 0 0 0
      vertex 1.14281 0 12.6732
      vertex 1.10287 0 12.5138
    endloop
  endfacet
  facet normal 0 -1 -0
    outer loop
      vertex 1.14281 0 12.6732
      vertex 0 0 0
      vertex 104.857 0 12.6732
    endloop
  endfacet
  facet normal 0 -1 0
    outer loop
      vertex 0 0 0
      vertex 1.10287 0 12.5138
      vertex 1.0475 0 12.359
    endloop
  endfacet
  facet normal 0 -1 0
    outer loop
      vertex 106 0 0
      vertex 104.857 0 12.6732
      vertex 0 0 0
    endloop
  endfacet
  facet normal 0 -1 0
    outer loop
      vertex 0 0 0
      vertex 1.0475 0 12.359
      vertex 0.977218 0 12.2104
    endloop
  endfacet
  facet normal 0 -1 0
    outer loop
      vertex 104.857 0 12.6732
      vertex 106 0 0
      vertex 104.897 0 12.5138
    endloop
  endfacet
  facet normal 0 -1 0
    outer loop
      vertex 0 0 0
      vertex 0.977218 0 12.2104
      vertex 0.892711 0 12.0694
    endloop
  endfacet
  facet normal 0 -1 0
    outer loop
      vertex 104.897 0 12.5138
      vertex 106 0 0
      vertex 104.952 0 12.359
    endloop
  endfacet
  facet normal 0 -1 0
    outer loop
      vertex 0 0 0
      vertex 0.892711 0 12.0694
      vertex 0.794792 0 11.9374
    endloop
  endfacet
  facet normal 0 -1 0
    outer loop
      vertex 104.952 0 12.359
      vertex 106 0 0
      vertex 105.023 0 12.2104
    endloop
  endfacet
  facet normal 0 -1 0
    outer loop
      vertex 0 0 0
      vertex 0.794792 0 11.9374
      vertex 0.684403 0 11.8156
    endloop
  endfacet
  facet normal 0 -1 0
    outer loop
      vertex 105.023 0 12.2104
      vertex 106 0 0
      vertex 105.107 0 12.0694
    endloop
  endfacet
  facet normal 0 -1 0
    outer loop
      vertex 0 0 0
      vertex 0.684403 0 11.8156
      vertex 0.562609 0 11.7052
    endloop
  endfacet
  facet normal 0 -1 0
    outer loop
      vertex 105.107 0 12.0694
      vertex 106 0 0
      vertex 105.205 0 11.9374
    endloop
  endfacet
  facet normal 0 -1 0
    outer loop
      vertex 0 0 0
      vertex 0.562609 0 11.7052
      vertex 0.43058 0 11.6073
    endloop
  endfacet
  facet normal 0 -1 0
    outer loop
      vertex 105.205 0 11.9374
      vertex 106 0 0
      vertex 105.316 0 11.8156
    endloop
  endfacet
  facet normal 0 -1 0
    outer loop
      vertex 0 0 0
      vertex 0.43058 0 11.6073
      vertex 0.289589 0 11.5228
    endloop
  endfacet
  facet normal 0 -1 0
    outer loop
      vertex 105.316 0 11.8156
      vertex 106 0 0
      vertex 105.437 0 11.7052
    endloop
  endfacet
  facet normal 0 -1 0
    outer loop
      vertex 0 0 0
      vertex 0.289589 0 11.5228
      vertex 0.140994 0 11.4525
    endloop
  endfacet
  facet normal 0 -1 0
    outer loop
      vertex 105.437 0 11.7052
      vertex 106 0 0
      vertex 105.569 0 11.6073
    endloop
  endfacet
  facet normal 0 -1 0
    outer loop
      vertex 0 0 0
      vertex 0.140994 0 11.4525
      vertex 0 0 11.4021
    endloop
  endfacet
  facet normal 0 -1 0
    outer loop
      vertex 105.569 0 11.6073
      vertex 106 0 0
      vertex 105.71 0 11.5228
    endloop
  endfacet
  facet normal 0 -1 0
    outer loop
      vertex 105.71 0 11.5228
      vertex 106 0 0
      vertex 105.859 0 11.4525
    endloop
  endfacet
  facet normal 0 -1 0
    outer loop
      vertex 105.859 0 11.4525
      vertex 106 0 0
      vertex 106 0 11.4021
    endloop
  endfacet
  facet normal 1 -0 0
    outer loop
      vertex 105 3 25
      vertex 105 4 13.7414
      vertex 105 4 25
    endloop
  endfacet
  facet normal 1 0 0
    outer loop
      vertex 105 4 13.7414
      vertex 105 3 25
      vertex 105 3 13.7414
    endloop
  endfacet
  facet normal 1 -0 0
    outer loop
      vertex 105 3 12.2586
      vertex 105 4 1
      vertex 105 4 12.2586
    endloop
  endfacet
  facet normal 1 0 0
    outer loop
      vertex 105 4 1
      vertex 105 3 12.2586
      vertex 105 3 1
    endloop
  endfacet
  facet normal -0 0 1
    outer loop
      vertex 1 4 25
      vertex 105 3 25
      vertex 105 4 25
    endloop
  endfacet
  facet normal 0 0 1
    outer loop
      vertex 105 3 25
      vertex 1 4 25
      vertex 1 3 25
    endloop
  endfacet
  facet normal 0 0 -1
    outer loop
      vertex 1 3 1
      vertex 105 4 1
      vertex 105 3 1
    endloop
  endfacet
  facet normal -0 0 -1
    outer loop
      vertex 105 4 1
      vertex 1 3 1
      vertex 1 4 1
    endloop
  endfacet
  facet normal -1 0 0
    outer loop
      vertex 1 3 13.7414
      vertex 1 4 25
      vertex 1 4 13.7414
    endloop
  endfacet
  facet normal -1 -0 0
    outer loop
      vertex 1 4 25
      vertex 1 3 13.7414
      vertex 1 3 25
    endloop
  endfacet
  facet normal -1 0 0
    outer loop
      vertex 1 3 1
      vertex 1 4 12.2586
      vertex 1 4 1
    endloop
  endfacet
  facet normal -1 -0 0
    outer loop
      vertex 1 4 12.2586
      vertex 1 3 1
      vertex 1 3 12.2586
    endloop
  endfacet
  facet normal 0 1 0
    outer loop
      vertex 104.952 4 13.641
      vertex 105 4 25
      vertex 105 4 13.7414
    endloop
  endfacet
  facet normal 0 1 0
    outer loop
      vertex 104.897 4 13.4862
      vertex 105 4 25
      vertex 104.952 4 13.641
    endloop
  endfacet
  facet normal 0 1 0
    outer loop
      vertex 104.857 4 13.3268
      vertex 105 4 25
      vertex 104.897 4 13.4862
    endloop
  endfacet
  facet normal 0 1 0
    outer loop
      vertex 1 4 25
      vertex 1.0475 4 13.641
      vertex 1 4 13.7414
    endloop
  endfacet
  facet normal 0 1 0
    outer loop
      vertex 104.833 4 13.1642
      vertex 105 4 25
      vertex 104.857 4 13.3268
    endloop
  endfacet
  facet normal 0 1 0
    outer loop
      vertex 1 4 25
      vertex 1.10287 4 13.4862
      vertex 1.0475 4 13.641
    endloop
  endfacet
  facet normal 0 1 0
    outer loop
      vertex 105 4 25
      vertex 104.833 4 13.1642
      vertex 1 4 25
    endloop
  endfacet
  facet normal 0 1 0
    outer loop
      vertex 1 4 25
      vertex 1.14281 4 13.3268
      vertex 1.10287 4 13.4862
    endloop
  endfacet
  facet normal 0 1 -0
    outer loop
      vertex 1.16693 4 13.1642
      vertex 1 4 25
      vertex 104.833 4 13.1642
    endloop
  endfacet
  facet normal 0 1 0
    outer loop
      vertex 1 4 25
      vertex 1.16693 4 13.1642
      vertex 1.14281 4 13.3268
    endloop
  endfacet
  facet normal 0 1 -0
    outer loop
      vertex 104.825 4 13
      vertex 1.16693 4 13.1642
      vertex 104.833 4 13.1642
    endloop
  endfacet
  facet normal 0 1 0
    outer loop
      vertex 104.825 4 13
      vertex 1.175 4 13
      vertex 1.16693 4 13.1642
    endloop
  endfacet
  facet normal 0 1 0
    outer loop
      vertex 104.833 4 12.8358
      vertex 1.175 4 13
      vertex 104.825 4 13
    endloop
  endfacet
  facet normal 0 1 0
    outer loop
      vertex 104.833 4 12.8358
      vertex 1.16693 4 12.8358
      vertex 1.175 4 13
    endloop
  endfacet
  facet normal 0 1 0
    outer loop
      vertex 105 4 1
      vertex 104.833 4 12.8358
      vertex 104.857 4 12.6732
    endloop
  endfacet
  facet normal 0 1 0
    outer loop
      vertex 104.833 4 12.8358
      vertex 105 4 1
      vertex 1.16693 4 12.8358
    endloop
  endfacet
  facet normal 0 1 0
    outer loop
      vertex 105 4 1
      vertex 104.857 4 12.6732
      vertex 104.897 4 12.5138
    endloop
  endfacet
  facet normal 0 1 0
    outer loop
      vertex 1 4 1
      vertex 1.16693 4 12.8358
      vertex 105 4 1
    endloop
  endfacet
  facet normal 0 1 0
    outer loop
      vertex 105 4 1
      vertex 104.897 4 12.5138
      vertex 104.952 4 12.359
    endloop
  endfacet
  facet normal 0 1 0
    outer loop
      vertex 1.16693 4 12.8358
      vertex 1 4 1
      vertex 1.14281 4 12.6732
    endloop
  endfacet
  facet normal 0 1 0
    outer loop
      vertex 1.14281 4 12.6732
      vertex 1 4 1
      vertex 1.10287 4 12.5138
    endloop
  endfacet
  facet normal 0 1 -0
    outer loop
      vertex 105 4 1
      vertex 104.952 4 12.359
      vertex 105 4 12.2586
    endloop
  endfacet
  facet normal 0 1 0
    outer loop
      vertex 1.10287 4 12.5138
      vertex 1 4 1
      vertex 1.0475 4 12.359
    endloop
  endfacet
  facet normal 0 1 0
    outer loop
      vertex 1.0475 4 12.359
      vertex 1 4 1
      vertex 1 4 12.2586
    endloop
  endfacet
  facet normal -0.595623 0 0.803264
    outer loop
      vertex 0.43058 3 11.6073
      vertex 0.562609 0 11.7052
      vertex 0.562609 3 11.7052
    endloop
  endfacet
  facet normal -0.595623 0 0.803264
    outer loop
      vertex 0.562609 0 11.7052
      vertex 0.43058 3 11.6073
      vertex 0.43058 0 11.6073
    endloop
  endfacet
  facet normal -0.989176 0 0.146734
    outer loop
      vertex 1.14281 0 12.6732
      vertex 1.16693 4 12.8358
      vertex 1.14281 4 12.6732
    endloop
  endfacet
  facet normal -0.989176 0 0.146734
    outer loop
      vertex 1.16693 4 12.8358
      vertex 1.14281 0 12.6732
      vertex 1.16693 0 12.8358
    endloop
  endfacet
  facet normal -0.998794 0 0.0490881
    outer loop
      vertex 1.16693 0 12.8358
      vertex 1.175 4 13
      vertex 1.16693 4 12.8358
    endloop
  endfacet
  facet normal -0.998794 0 0.0490881
    outer loop
      vertex 1.175 4 13
      vertex 1.16693 0 12.8358
      vertex 1.175 0 13
    endloop
  endfacet
  facet normal -0.970013 0 0.243051
    outer loop
      vertex 1.10287 0 12.5138
      vertex 1.14281 4 12.6732
      vertex 1.10287 4 12.5138
    endloop
  endfacet
  facet normal -0.970013 0 0.243051
    outer loop
      vertex 1.14281 4 12.6732
      vertex 1.10287 0 12.5138
      vertex 1.14281 0 12.6732
    endloop
  endfacet
  facet normal -0.336603 0 0.941647
    outer loop
      vertex 0 3 11.4021
      vertex 0.140994 0 11.4525
      vertex 0.140994 3 11.4525
    endloop
  endfacet
  facet normal -0.336603 0 0.941647
    outer loop
      vertex 0.140994 0 11.4525
      vertex 0 3 11.4021
      vertex 0 0 11.4021
    endloop
  endfacet
  facet normal -0.998794 0 -0.0490881
    outer loop
      vertex 1.175 0 13
      vertex 1.16693 4 13.1642
      vertex 1.175 4 13
    endloop
  endfacet
  facet normal -0.998794 -0 -0.0490881
    outer loop
      vertex 1.16693 4 13.1642
      vertex 1.175 0 13
      vertex 1.16693 0 13.1642
    endloop
  endfacet
  facet normal -0.803146 0 -0.595782
    outer loop
      vertex 0.892711 0 13.9306
      vertex 0.794792 3 14.0626
      vertex 0.892711 3 13.9306
    endloop
  endfacet
  facet normal -0.803146 -0 -0.595782
    outer loop
      vertex 0.794792 3 14.0626
      vertex 0.892711 0 13.9306
      vertex 0.794792 0 14.0626
    endloop
  endfacet
  facet normal -0.514073 0 -0.857747
    outer loop
      vertex 0.289589 0 14.4772
      vertex 0.43058 3 14.3927
      vertex 0.43058 0 14.3927
    endloop
  endfacet
  facet normal -0.514073 0 -0.857747
    outer loop
      vertex 0.43058 3 14.3927
      vertex 0.289589 0 14.4772
      vertex 0.289589 3 14.4772
    endloop
  endfacet
  facet normal -0.941579 0 -0.336791
    outer loop
      vertex 1.10287 0 13.4862
      vertex 1.0475 4 13.641
      vertex 1.10287 4 13.4862
    endloop
  endfacet
  facet normal -0.941579 -0 -0.336791
    outer loop
      vertex 1.0475 4 13.641
      vertex 1.10287 0 13.4862
      vertex 1.0475 0 13.641
    endloop
  endfacet
  facet normal -0.427654 0 -0.903943
    outer loop
      vertex 0.140994 0 14.5475
      vertex 0.289589 3 14.4772
      vertex 0.289589 0 14.4772
    endloop
  endfacet
  facet normal -0.427654 0 -0.903943
    outer loop
      vertex 0.289589 3 14.4772
      vertex 0.140994 0 14.5475
      vertex 0.140994 3 14.5475
    endloop
  endfacet
  facet normal -0.857742 0 -0.51408
    outer loop
      vertex 0.977218 0 13.7896
      vertex 0.892711 3 13.9306
      vertex 0.977218 3 13.7896
    endloop
  endfacet
  facet normal -0.857742 -0 -0.51408
    outer loop
      vertex 0.892711 3 13.9306
      vertex 0.977218 0 13.7896
      vertex 0.892711 0 13.9306
    endloop
  endfacet
  facet normal -0.427654 0 0.903943
    outer loop
      vertex 0.140994 3 11.4525
      vertex 0.289589 0 11.5228
      vertex 0.289589 3 11.5228
    endloop
  endfacet
  facet normal -0.427654 0 0.903943
    outer loop
      vertex 0.289589 0 11.5228
      vertex 0.140994 3 11.4525
      vertex 0.140994 0 11.4525
    endloop
  endfacet
  facet normal -0.803146 0 0.595782
    outer loop
      vertex 0.794792 0 11.9374
      vertex 0.892711 3 12.0694
      vertex 0.794792 3 11.9374
    endloop
  endfacet
  facet normal -0.803146 0 0.595782
    outer loop
      vertex 0.892711 3 12.0694
      vertex 0.794792 0 11.9374
      vertex 0.892711 0 12.0694
    endloop
  endfacet
  facet normal -0.903939 0 -0.427661
    outer loop
      vertex 1.0475 4 13.641
      vertex 1 3 13.7414
      vertex 1 4 13.7414
    endloop
  endfacet
  facet normal -0.903939 0 -0.427661
    outer loop
      vertex 1.0475 0 13.641
      vertex 1 3 13.7414
      vertex 1.0475 4 13.641
    endloop
  endfacet
  facet normal -0.903991 -4.43519e-06 -0.427552
    outer loop
      vertex 0.977218 0 13.7896
      vertex 1 3 13.7414
      vertex 1.0475 0 13.641
    endloop
  endfacet
  facet normal -0.904097 0 -0.427327
    outer loop
      vertex 1 3 13.7414
      vertex 0.977218 0 13.7896
      vertex 0.977218 3 13.7896
    endloop
  endfacet
  facet normal -0.336603 0 -0.941647
    outer loop
      vertex 0 0 14.5979
      vertex 0.140994 3 14.5475
      vertex 0.140994 0 14.5475
    endloop
  endfacet
  facet normal -0.336603 0 -0.941647
    outer loop
      vertex 0.140994 3 14.5475
      vertex 0 0 14.5979
      vertex 0 3 14.5979
    endloop
  endfacet
  facet normal -0.6716 0 -0.740914
    outer loop
      vertex 0.562609 0 14.2948
      vertex 0.684403 3 14.1844
      vertex 0.684403 0 14.1844
    endloop
  endfacet
  facet normal -0.6716 0 -0.740914
    outer loop
      vertex 0.684403 3 14.1844
      vertex 0.562609 0 14.2948
      vertex 0.562609 3 14.2948
    endloop
  endfacet
  facet normal -0.970013 0 -0.243051
    outer loop
      vertex 1.14281 0 13.3268
      vertex 1.10287 4 13.4862
      vertex 1.14281 4 13.3268
    endloop
  endfacet
  facet normal -0.970013 -0 -0.243051
    outer loop
      vertex 1.10287 4 13.4862
      vertex 1.14281 0 13.3268
      vertex 1.10287 0 13.4862
    endloop
  endfacet
  facet normal -0.740963 0 -0.671545
    outer loop
      vertex 0.794792 0 14.0626
      vertex 0.684403 3 14.1844
      vertex 0.794792 3 14.0626
    endloop
  endfacet
  facet normal -0.740963 -0 -0.671545
    outer loop
      vertex 0.684403 3 14.1844
      vertex 0.794792 0 14.0626
      vertex 0.684403 0 14.1844
    endloop
  endfacet
  facet normal -0.514073 0 0.857747
    outer loop
      vertex 0.289589 3 11.5228
      vertex 0.43058 0 11.6073
      vertex 0.43058 3 11.6073
    endloop
  endfacet
  facet normal -0.514073 0 0.857747
    outer loop
      vertex 0.43058 0 11.6073
      vertex 0.289589 3 11.5228
      vertex 0.289589 0 11.5228
    endloop
  endfacet
  facet normal -0.941579 0 0.336791
    outer loop
      vertex 1.0475 0 12.359
      vertex 1.10287 4 12.5138
      vertex 1.0475 4 12.359
    endloop
  endfacet
  facet normal -0.941579 0 0.336791
    outer loop
      vertex 1.10287 4 12.5138
      vertex 1.0475 0 12.359
      vertex 1.10287 0 12.5138
    endloop
  endfacet
  facet normal -0.904097 0 0.427327
    outer loop
      vertex 0.977218 3 12.2104
      vertex 0.977218 0 12.2104
      vertex 1 3 12.2586
    endloop
  endfacet
  facet normal -0.903939 0 0.427661
    outer loop
      vertex 1 3 12.2586
      vertex 1.0475 4 12.359
      vertex 1 4 12.2586
    endloop
  endfacet
  facet normal -0.903991 -4.43519e-06 0.427552
    outer loop
      vertex 1.0475 0 12.359
      vertex 1 3 12.2586
      vertex 0.977218 0 12.2104
    endloop
  endfacet
  facet normal -0.903939 0 0.427661
    outer loop
      vertex 1 3 12.2586
      vertex 1.0475 0 12.359
      vertex 1.0475 4 12.359
    endloop
  endfacet
  facet normal -0.989176 0 -0.146734
    outer loop
      vertex 1.16693 0 13.1642
      vertex 1.14281 4 13.3268
      vertex 1.16693 4 13.1642
    endloop
  endfacet
  facet normal -0.989176 -0 -0.146734
    outer loop
      vertex 1.14281 4 13.3268
      vertex 1.16693 0 13.1642
      vertex 1.14281 0 13.3268
    endloop
  endfacet
  facet normal -0.857742 0 0.51408
    outer loop
      vertex 0.892711 0 12.0694
      vertex 0.977218 3 12.2104
      vertex 0.892711 3 12.0694
    endloop
  endfacet
  facet normal -0.857742 0 0.51408
    outer loop
      vertex 0.977218 3 12.2104
      vertex 0.892711 0 12.0694
      vertex 0.977218 0 12.2104
    endloop
  endfacet
  facet normal -0.6716 0 0.740914
    outer loop
      vertex 0.562609 3 11.7052
      vertex 0.684403 0 11.8156
      vertex 0.684403 3 11.8156
    endloop
  endfacet
  facet normal -0.6716 0 0.740914
    outer loop
      vertex 0.684403 0 11.8156
      vertex 0.562609 3 11.7052
      vertex 0.562609 0 11.7052
    endloop
  endfacet
  facet normal -0.740963 0 0.671545
    outer loop
      vertex 0.684403 0 11.8156
      vertex 0.794792 3 11.9374
      vertex 0.684403 3 11.8156
    endloop
  endfacet
  facet normal -0.740963 0 0.671545
    outer loop
      vertex 0.794792 3 11.9374
      vertex 0.684403 0 11.8156
      vertex 0.794792 0 11.9374
    endloop
  endfacet
  facet normal -0.595623 0 -0.803264
    outer loop
      vertex 0.43058 0 14.3927
      vertex 0.562609 3 14.2948
      vertex 0.562609 0 14.2948
    endloop
  endfacet
  facet normal -0.595623 0 -0.803264
    outer loop
      vertex 0.562609 3 14.2948
      vertex 0.43058 0 14.3927
      vertex 0.43058 3 14.3927
    endloop
  endfacet
  facet normal 0.859102 -0 0.511805
    outer loop
      vertex 105.023 0 12.2104
      vertex 105.107 3 12.0694
      vertex 105.023 3 12.2104
    endloop
  endfacet
  facet normal 0.859102 0 0.511805
    outer loop
      vertex 105.107 3 12.0694
      vertex 105.023 0 12.2104
      vertex 105.107 0 12.0694
    endloop
  endfacet
  facet normal 0.426703 0 0.904392
    outer loop
      vertex 105.71 3 11.5228
      vertex 105.859 0 11.4525
      vertex 105.859 3 11.4525
    endloop
  endfacet
  facet normal 0.426703 0 0.904392
    outer loop
      vertex 105.859 0 11.4525
      vertex 105.71 3 11.5228
      vertex 105.71 0 11.5228
    endloop
  endfacet
  facet normal 0.739116 0 -0.673578
    outer loop
      vertex 105.316 0 14.1844
      vertex 105.205 3 14.0626
      vertex 105.316 3 14.1844
    endloop
  endfacet
  facet normal 0.739116 0 -0.673578
    outer loop
      vertex 105.205 3 14.0626
      vertex 105.316 0 14.1844
      vertex 105.205 0 14.0626
    endloop
  endfacet
  facet normal 0.514048 0 0.857761
    outer loop
      vertex 105.569 3 11.6073
      vertex 105.71 0 11.5228
      vertex 105.71 3 11.5228
    endloop
  endfacet
  facet normal 0.514048 0 0.857761
    outer loop
      vertex 105.71 0 11.5228
      vertex 105.569 3 11.6073
      vertex 105.569 0 11.6073
    endloop
  endfacet
  facet normal 0.426703 0 -0.904392
    outer loop
      vertex 105.71 0 14.4772
      vertex 105.859 3 14.5475
      vertex 105.859 0 14.5475
    endloop
  endfacet
  facet normal 0.426703 0 -0.904392
    outer loop
      vertex 105.859 3 14.5475
      vertex 105.71 0 14.4772
      vertex 105.71 3 14.4772
    endloop
  endfacet
  facet normal 0.739116 -0 0.673578
    outer loop
      vertex 105.205 0 11.9374
      vertex 105.316 3 11.8156
      vertex 105.205 3 11.9374
    endloop
  endfacet
  facet normal 0.739116 0 0.673578
    outer loop
      vertex 105.316 3 11.8156
      vertex 105.205 0 11.9374
      vertex 105.316 0 11.8156
    endloop
  endfacet
  facet normal 0.674009 0 0.738723
    outer loop
      vertex 105.316 3 11.8156
      vertex 105.437 0 11.7052
      vertex 105.437 3 11.7052
    endloop
  endfacet
  facet normal 0.674009 0 0.738723
    outer loop
      vertex 105.437 0 11.7052
      vertex 105.316 3 11.8156
      vertex 105.316 0 11.8156
    endloop
  endfacet
  facet normal 0.80291 -0 0.5961
    outer loop
      vertex 105.107 0 12.0694
      vertex 105.205 3 11.9374
      vertex 105.107 3 12.0694
    endloop
  endfacet
  facet normal 0.80291 0 0.5961
    outer loop
      vertex 105.205 3 11.9374
      vertex 105.107 0 12.0694
      vertex 105.205 0 11.9374
    endloop
  endfacet
  facet normal 0.674009 0 -0.738723
    outer loop
      vertex 105.316 0 14.1844
      vertex 105.437 3 14.2948
      vertex 105.437 0 14.2948
    endloop
  endfacet
  facet normal 0.674009 0 -0.738723
    outer loop
      vertex 105.437 3 14.2948
      vertex 105.316 0 14.1844
      vertex 105.316 3 14.1844
    endloop
  endfacet
  facet normal 0.998815 -0 0.0486633
    outer loop
      vertex 104.825 0 13
      vertex 104.833 4 12.8358
      vertex 104.825 4 13
    endloop
  endfacet
  facet normal 0.998815 0 0.0486633
    outer loop
      vertex 104.833 4 12.8358
      vertex 104.825 0 13
      vertex 104.833 0 12.8358
    endloop
  endfacet
  facet normal 0.902195 0 0.431328
    outer loop
      vertex 104.952 4 12.359
      vertex 105 3 12.2586
      vertex 105 4 12.2586
    endloop
  endfacet
  facet normal 0.902195 -0 0.431328
    outer loop
      vertex 104.952 0 12.359
      vertex 105 3 12.2586
      vertex 104.952 4 12.359
    endloop
  endfacet
  facet normal 0.902299 -8.90559e-06 0.431112
    outer loop
      vertex 105.023 0 12.2104
      vertex 105 3 12.2586
      vertex 104.952 0 12.359
    endloop
  endfacet
  facet normal 0.902514 0 0.43066
    outer loop
      vertex 105 3 12.2586
      vertex 105.023 0 12.2104
      vertex 105.023 3 12.2104
    endloop
  endfacet
  facet normal 0.969927 0 -0.243395
    outer loop
      vertex 104.897 0 13.4862
      vertex 104.857 4 13.3268
      vertex 104.897 4 13.4862
    endloop
  endfacet
  facet normal 0.969927 0 -0.243395
    outer loop
      vertex 104.857 4 13.3268
      vertex 104.897 0 13.4862
      vertex 104.857 0 13.3268
    endloop
  endfacet
  facet normal 0.33659 0 0.941651
    outer loop
      vertex 105.859 3 11.4525
      vertex 106 0 11.4021
      vertex 106 3 11.4021
    endloop
  endfacet
  facet normal 0.33659 0 0.941651
    outer loop
      vertex 106 0 11.4021
      vertex 105.859 3 11.4525
      vertex 105.859 0 11.4525
    endloop
  endfacet
  facet normal 0.80291 0 -0.5961
    outer loop
      vertex 105.205 0 14.0626
      vertex 105.107 3 13.9306
      vertex 105.205 3 14.0626
    endloop
  endfacet
  facet normal 0.80291 0 -0.5961
    outer loop
      vertex 105.107 3 13.9306
      vertex 105.205 0 14.0626
      vertex 105.107 0 13.9306
    endloop
  endfacet
  facet normal 0.859102 0 -0.511805
    outer loop
      vertex 105.107 0 13.9306
      vertex 105.023 3 13.7896
      vertex 105.107 3 13.9306
    endloop
  endfacet
  facet normal 0.859102 0 -0.511805
    outer loop
      vertex 105.023 3 13.7896
      vertex 105.107 0 13.9306
      vertex 105.023 0 13.7896
    endloop
  endfacet
  facet normal 0.989282 0 -0.146019
    outer loop
      vertex 104.857 0 13.3268
      vertex 104.833 4 13.1642
      vertex 104.857 4 13.3268
    endloop
  endfacet
  facet normal 0.989282 0 -0.146019
    outer loop
      vertex 104.833 4 13.1642
      vertex 104.857 0 13.3268
      vertex 104.833 0 13.1642
    endloop
  endfacet
  facet normal 0.969927 -0 0.243395
    outer loop
      vertex 104.857 0 12.6732
      vertex 104.897 4 12.5138
      vertex 104.857 4 12.6732
    endloop
  endfacet
  facet normal 0.969927 0 0.243395
    outer loop
      vertex 104.897 4 12.5138
      vertex 104.857 0 12.6732
      vertex 104.897 0 12.5138
    endloop
  endfacet
  facet normal 0.902514 0 -0.43066
    outer loop
      vertex 105.023 3 13.7896
      vertex 105.023 0 13.7896
      vertex 105 3 13.7414
    endloop
  endfacet
  facet normal 0.902195 0 -0.431328
    outer loop
      vertex 105 3 13.7414
      vertex 104.952 4 13.641
      vertex 105 4 13.7414
    endloop
  endfacet
  facet normal 0.902299 -8.90559e-06 -0.431112
    outer loop
      vertex 104.952 0 13.641
      vertex 105 3 13.7414
      vertex 105.023 0 13.7896
    endloop
  endfacet
  facet normal 0.902195 0 -0.431328
    outer loop
      vertex 105 3 13.7414
      vertex 104.952 0 13.641
      vertex 104.952 4 13.641
    endloop
  endfacet
  facet normal 0.989282 -0 0.146019
    outer loop
      vertex 104.833 0 12.8358
      vertex 104.857 4 12.6732
      vertex 104.833 4 12.8358
    endloop
  endfacet
  facet normal 0.989282 0 0.146019
    outer loop
      vertex 104.857 4 12.6732
      vertex 104.833 0 12.8358
      vertex 104.857 0 12.6732
    endloop
  endfacet
  facet normal 0.942292 0 -0.334793
    outer loop
      vertex 104.952 0 13.641
      vertex 104.897 4 13.4862
      vertex 104.952 4 13.641
    endloop
  endfacet
  facet normal 0.942292 0 -0.334793
    outer loop
      vertex 104.897 4 13.4862
      vertex 104.952 0 13.641
      vertex 104.897 0 13.4862
    endloop
  endfacet
  facet normal 0.595708 0 0.803201
    outer loop
      vertex 105.437 3 11.7052
      vertex 105.569 0 11.6073
      vertex 105.569 3 11.6073
    endloop
  endfacet
  facet normal 0.595708 0 0.803201
    outer loop
      vertex 105.569 0 11.6073
      vertex 105.437 3 11.7052
      vertex 105.437 0 11.7052
    endloop
  endfacet
  facet normal 0.942292 -0 0.334793
    outer loop
      vertex 104.897 0 12.5138
      vertex 104.952 4 12.359
      vertex 104.897 4 12.5138
    endloop
  endfacet
  facet normal 0.942292 0 0.334793
    outer loop
      vertex 104.952 4 12.359
      vertex 104.897 0 12.5138
      vertex 104.952 0 12.359
    endloop
  endfacet
  facet normal 0.595708 0 -0.803201
    outer loop
      vertex 105.437 0 14.2948
      vertex 105.569 3 14.3927
      vertex 105.569 0 14.3927
    endloop
  endfacet
  facet normal 0.595708 0 -0.803201
    outer loop
      vertex 105.569 3 14.3927
      vertex 105.437 0 14.2948
      vertex 105.437 3 14.2948
    endloop
  endfacet
  facet normal 0.514048 0 -0.857761
    outer loop
      vertex 105.569 0 14.3927
      vertex 105.71 3 14.4772
      vertex 105.71 0 14.4772
    endloop
  endfacet
  facet normal 0.514048 0 -0.857761
    outer loop
      vertex 105.71 3 14.4772
      vertex 105.569 0 14.3927
      vertex 105.569 3 14.3927
    endloop
  endfacet
  facet normal 0.998815 0 -0.0486633
    outer loop
      vertex 104.833 0 13.1642
      vertex 104.825 4 13
      vertex 104.833 4 13.1642
    endloop
  endfacet
  facet normal 0.998815 0 -0.0486633
    outer loop
      vertex 104.825 4 13
      vertex 104.833 0 13.1642
      vertex 104.825 0 13
    endloop
  endfacet
  facet normal 0.33659 0 -0.941651
    outer loop
      vertex 105.859 0 14.5475
      vertex 106 3 14.5979
      vertex 106 0 14.5979
    endloop
  endfacet
  facet normal 0.33659 0 -0.941651
    outer loop
      vertex 106 3 14.5979
      vertex 105.859 0 14.5475
      vertex 105.859 3 14.5475
    endloop
  endfacet
endsolid OpenSCAD_Model
