solid OpenSCAD_Model
  facet normal -0.98918 -0.146707 0
    outer loop
      vertex 0.0384216 1.60982 0
      vertex 0.0096283 1.80396 2.4
      vertex 0.0096283 1.80396 0
    endloop
  endfacet
  facet normal -0.98918 -0.146707 0
    outer loop
      vertex 0.0096283 1.80396 2.4
      vertex 0.0384216 1.60982 0
      vertex 0.0384216 1.60982 2.4
    endloop
  endfacet
  facet normal -0.989187 0.146663 0
    outer loop
      vertex 0.0096283 30.996 0
      vertex 0.0384216 31.1902 2.4
      vertex 0.0384216 31.1902 0
    endloop
  endfacet
  facet normal -0.989187 0.146663 0
    outer loop
      vertex 0.0384216 31.1902 2.4
      vertex 0.0096283 30.996 0
      vertex 0.0096283 30.996 2.4
    endloop
  endfacet
  facet normal 1 -0 0
    outer loop
      vertex 70.64 2 2.4
      vertex 70.64 30.8 0
      vertex 70.64 30.8 2.4
    endloop
  endfacet
  facet normal 1 0 0
    outer loop
      vertex 70.64 30.8 0
      vertex 70.64 2 2.4
      vertex 70.64 2 0
    endloop
  endfacet
  facet normal -0.998796 0.0490648 0
    outer loop
      vertex 0 30.8 0
      vertex 0.0096283 30.996 2.4
      vertex 0.0096283 30.996 0
    endloop
  endfacet
  facet normal -0.998796 0.0490648 0
    outer loop
      vertex 0.0096283 30.996 2.4
      vertex 0 30.8 0
      vertex 0 30.8 2.4
    endloop
  endfacet
  facet normal -0.970042 -0.242937 0
    outer loop
      vertex 0.0861053 1.41942 0
      vertex 0.0384216 1.60982 2.4
      vertex 0.0384216 1.60982 0
    endloop
  endfacet
  facet normal -0.970042 -0.242937 0
    outer loop
      vertex 0.0384216 1.60982 2.4
      vertex 0.0861053 1.41942 0
      vertex 0.0861053 1.41942 2.4
    endloop
  endfacet
  facet normal -0.998796 -0.0490548 0
    outer loop
      vertex 0.0096283 1.80396 0
      vertex 0 2 2.4
      vertex 0 2 0
    endloop
  endfacet
  facet normal -0.998796 -0.0490548 0
    outer loop
      vertex 0 2 2.4
      vertex 0.0096283 1.80396 0
      vertex 0.0096283 1.80396 2.4
    endloop
  endfacet
  facet normal 0.514218 -0.857659 0
    outer loop
      vertex 69.5828 0.236145 0
      vertex 69.7511 0.337051 2.4
      vertex 69.5828 0.236145 2.4
    endloop
  endfacet
  facet normal 0.514218 -0.857659 0
    outer loop
      vertex 69.7511 0.337051 2.4
      vertex 69.5828 0.236145 0
      vertex 69.7511 0.337051 0
    endloop
  endfacet
  facet normal -0.146707 -0.98918 0
    outer loop
      vertex 1.60982 0.0384216 0
      vertex 1.80396 0.0096283 2.4
      vertex 1.60982 0.0384216 2.4
    endloop
  endfacet
  facet normal -0.146707 -0.98918 -0
    outer loop
      vertex 1.80396 0.0096283 2.4
      vertex 1.60982 0.0384216 0
      vertex 1.80396 0.0096283 0
    endloop
  endfacet
  facet normal -0.671625 -0.740891 0
    outer loop
      vertex 0.585785 0.585785 0
      vertex 0.731201 0.453964 2.4
      vertex 0.585785 0.585785 2.4
    endloop
  endfacet
  facet normal -0.671625 -0.740891 -0
    outer loop
      vertex 0.731201 0.453964 2.4
      vertex 0.585785 0.585785 0
      vertex 0.731201 0.453964 0
    endloop
  endfacet
  facet normal 0.80335 0.595508 0
    outer loop
      vertex 70.3029 31.9111 2.4
      vertex 70.186 32.0688 0
      vertex 70.186 32.0688 2.4
    endloop
  endfacet
  facet normal 0.80335 0.595508 0
    outer loop
      vertex 70.186 32.0688 0
      vertex 70.3029 31.9111 2.4
      vertex 70.3029 31.9111 0
    endloop
  endfacet
  facet normal -0.427552 -0.903991 0
    outer loop
      vertex 1.05721 0.236145 0
      vertex 1.23462 0.152237 2.4
      vertex 1.05721 0.236145 2.4
    endloop
  endfacet
  facet normal -0.427552 -0.903991 -0
    outer loop
      vertex 1.23462 0.152237 2.4
      vertex 1.05721 0.236145 0
      vertex 1.23462 0.152237 0
    endloop
  endfacet
  facet normal 0.803266 -0.59562 0
    outer loop
      vertex 70.186 0.731201 2.4
      vertex 70.3029 0.888855 0
      vertex 70.3029 0.888855 2.4
    endloop
  endfacet
  facet normal 0.803266 -0.59562 0
    outer loop
      vertex 70.3029 0.888855 0
      vertex 70.186 0.731201 2.4
      vertex 70.186 0.731201 0
    endloop
  endfacet
  facet normal 0.242937 -0.970042 0
    outer loop
      vertex 69.0302 0.0384216 0
      vertex 69.2206 0.0861053 2.4
      vertex 69.0302 0.0384216 2.4
    endloop
  endfacet
  facet normal 0.242937 -0.970042 0
    outer loop
      vertex 69.2206 0.0861053 2.4
      vertex 69.0302 0.0384216 0
      vertex 69.2206 0.0861053 0
    endloop
  endfacet
  facet normal 0 1 -0
    outer loop
      vertex 68.64 32.8 0
      vertex 2 32.8 2.4
      vertex 68.64 32.8 2.4
    endloop
  endfacet
  facet normal 0 1 0
    outer loop
      vertex 2 32.8 2.4
      vertex 68.64 32.8 0
      vertex 2 32.8 0
    endloop
  endfacet
  facet normal 0 0 -1
    outer loop
      vertex 68.04 2.6 0
      vertex 70.64 2 0
      vertex 70.6304 1.80396 0
    endloop
  endfacet
  facet normal 0 0 -1
    outer loop
      vertex 70.64 2 0
      vertex 68.04 2.6 0
      vertex 70.64 30.8 0
    endloop
  endfacet
  facet normal 0 0 -1
    outer loop
      vertex 68.04 2.6 0
      vertex 70.6304 1.80396 0
      vertex 70.6016 1.60982 0
    endloop
  endfacet
  facet normal 0 0 -1
    outer loop
      vertex 68.04 30.2 0
      vertex 70.64 30.8 0
      vertex 68.04 2.6 0
    endloop
  endfacet
  facet normal 0 0 -1
    outer loop
      vertex 68.04 2.6 0
      vertex 70.6016 1.60982 0
      vertex 70.5539 1.41942 0
    endloop
  endfacet
  facet normal -0 0 -1
    outer loop
      vertex 70.64 30.8 0
      vertex 68.04 30.2 0
      vertex 70.6304 30.996 0
    endloop
  endfacet
  facet normal 0 0 -1
    outer loop
      vertex 68.04 2.6 0
      vertex 70.5539 1.41942 0
      vertex 70.4877 1.23462 0
    endloop
  endfacet
  facet normal -0 0 -1
    outer loop
      vertex 70.6304 30.996 0
      vertex 68.04 30.2 0
      vertex 70.6016 31.1902 0
    endloop
  endfacet
  facet normal 0 0 -1
    outer loop
      vertex 68.04 2.6 0
      vertex 70.4877 1.23462 0
      vertex 70.4038 1.05721 0
    endloop
  endfacet
  facet normal -0 0 -1
    outer loop
      vertex 70.6016 31.1902 0
      vertex 68.04 30.2 0
      vertex 70.5539 31.3806 0
    endloop
  endfacet
  facet normal 0 0 -1
    outer loop
      vertex 68.04 2.6 0
      vertex 70.4038 1.05721 0
      vertex 70.3029 0.888855 0
    endloop
  endfacet
  facet normal -0 0 -1
    outer loop
      vertex 70.5539 31.3806 0
      vertex 68.04 30.2 0
      vertex 70.4877 31.5654 0
    endloop
  endfacet
  facet normal 0 0 -1
    outer loop
      vertex 68.04 2.6 0
      vertex 70.3029 0.888855 0
      vertex 70.186 0.731201 0
    endloop
  endfacet
  facet normal -0 0 -1
    outer loop
      vertex 70.4877 31.5654 0
      vertex 68.04 30.2 0
      vertex 70.4038 31.7428 0
    endloop
  endfacet
  facet normal 0 0 -1
    outer loop
      vertex 68.04 2.6 0
      vertex 70.186 0.731201 0
      vertex 70.0542 0.585785 0
    endloop
  endfacet
  facet normal -0 0 -1
    outer loop
      vertex 70.4038 31.7428 0
      vertex 68.04 30.2 0
      vertex 70.3029 31.9111 0
    endloop
  endfacet
  facet normal 0 0 -1
    outer loop
      vertex 68.04 2.6 0
      vertex 70.0542 0.585785 0
      vertex 69.9088 0.453964 0
    endloop
  endfacet
  facet normal -0 0 -1
    outer loop
      vertex 70.3029 31.9111 0
      vertex 68.04 30.2 0
      vertex 70.186 32.0688 0
    endloop
  endfacet
  facet normal 0 0 -1
    outer loop
      vertex 68.04 2.6 0
      vertex 69.9088 0.453964 0
      vertex 69.7511 0.337051 0
    endloop
  endfacet
  facet normal -0 0 -1
    outer loop
      vertex 70.186 32.0688 0
      vertex 68.04 30.2 0
      vertex 70.0542 32.2142 0
    endloop
  endfacet
  facet normal 0 0 -1
    outer loop
      vertex 68.04 2.6 0
      vertex 69.7511 0.337051 0
      vertex 69.5828 0.236145 0
    endloop
  endfacet
  facet normal -0 0 -1
    outer loop
      vertex 70.0542 32.2142 0
      vertex 68.04 30.2 0
      vertex 69.9088 32.346 0
    endloop
  endfacet
  facet normal 0 0 -1
    outer loop
      vertex 68.04 2.6 0
      vertex 69.5828 0.236145 0
      vertex 69.4054 0.152237 0
    endloop
  endfacet
  facet normal -0 0 -1
    outer loop
      vertex 69.9088 32.346 0
      vertex 68.04 30.2 0
      vertex 69.7511 32.4629 0
    endloop
  endfacet
  facet normal 0 0 -1
    outer loop
      vertex 68.04 2.6 0
      vertex 69.4054 0.152237 0
      vertex 69.2206 0.0861053 0
    endloop
  endfacet
  facet normal -0 0 -1
    outer loop
      vertex 69.7511 32.4629 0
      vertex 68.04 30.2 0
      vertex 69.5828 32.5638 0
    endloop
  endfacet
  facet normal 0 0 -1
    outer loop
      vertex 68.04 2.6 0
      vertex 69.2206 0.0861053 0
      vertex 69.0302 0.0384216 0
    endloop
  endfacet
  facet normal -0 0 -1
    outer loop
      vertex 69.5828 32.5638 0
      vertex 68.04 30.2 0
      vertex 69.4054 32.6478 0
    endloop
  endfacet
  facet normal 0 0 -1
    outer loop
      vertex 68.04 2.6 0
      vertex 69.0302 0.0384216 0
      vertex 68.836 0.0096283 0
    endloop
  endfacet
  facet normal -0 0 -1
    outer loop
      vertex 69.4054 32.6478 0
      vertex 68.04 30.2 0
      vertex 69.2206 32.7139 0
    endloop
  endfacet
  facet normal 0 0 -1
    outer loop
      vertex 68.04 2.6 0
      vertex 68.836 0.0096283 0
      vertex 68.64 0 0
    endloop
  endfacet
  facet normal -0 0 -1
    outer loop
      vertex 69.2206 32.7139 0
      vertex 68.04 30.2 0
      vertex 69.0302 32.7616 0
    endloop
  endfacet
  facet normal -0 0 -1
    outer loop
      vertex 69.0302 32.7616 0
      vertex 68.04 30.2 0
      vertex 68.836 32.7904 0
    endloop
  endfacet
  facet normal 0 0 -1
    outer loop
      vertex 68.64 0 0
      vertex 2.6 2.6 0
      vertex 68.04 2.6 0
    endloop
  endfacet
  facet normal 0 0 -1
    outer loop
      vertex 1.80396 0.0096283 0
      vertex 2.6 2.6 0
      vertex 2 0 0
    endloop
  endfacet
  facet normal 0 0 -1
    outer loop
      vertex 2 0 0
      vertex 2.6 2.6 0
      vertex 68.64 0 0
    endloop
  endfacet
  facet normal -0 0 -1
    outer loop
      vertex 68.836 32.7904 0
      vertex 68.04 30.2 0
      vertex 68.64 32.8 0
    endloop
  endfacet
  facet normal 0 0 -1
    outer loop
      vertex 2.6 30.2 0
      vertex 68.64 32.8 0
      vertex 68.04 30.2 0
    endloop
  endfacet
  facet normal 0 0 -1
    outer loop
      vertex 2.6 30.2 0
      vertex 2 32.8 0
      vertex 68.64 32.8 0
    endloop
  endfacet
  facet normal -0 0 -1
    outer loop
      vertex 2.6 2.6 0
      vertex 0 2 0
      vertex 2.6 30.2 0
    endloop
  endfacet
  facet normal 0 0 -1
    outer loop
      vertex 1.60982 0.0384216 0
      vertex 2.6 2.6 0
      vertex 1.80396 0.0096283 0
    endloop
  endfacet
  facet normal 0 0 -1
    outer loop
      vertex 0 30.8 0
      vertex 2.6 30.2 0
      vertex 0 2 0
    endloop
  endfacet
  facet normal 0 0 -1
    outer loop
      vertex 1.41942 0.0861053 0
      vertex 2.6 2.6 0
      vertex 1.60982 0.0384216 0
    endloop
  endfacet
  facet normal 0 -0 -1
    outer loop
      vertex 0.0096283 30.996 0
      vertex 2.6 30.2 0
      vertex 0 30.8 0
    endloop
  endfacet
  facet normal 0 0 -1
    outer loop
      vertex 1.23462 0.152237 0
      vertex 2.6 2.6 0
      vertex 1.41942 0.0861053 0
    endloop
  endfacet
  facet normal 0 0 -1
    outer loop
      vertex 2.6 30.2 0
      vertex 1.80396 32.7904 0
      vertex 2 32.8 0
    endloop
  endfacet
  facet normal 0 0 -1
    outer loop
      vertex 1.05721 0.236145 0
      vertex 2.6 2.6 0
      vertex 1.23462 0.152237 0
    endloop
  endfacet
  facet normal 0 0 -1
    outer loop
      vertex 2.6 30.2 0
      vertex 1.60982 32.7616 0
      vertex 1.80396 32.7904 0
    endloop
  endfacet
  facet normal 0 0 -1
    outer loop
      vertex 0.888855 0.337051 0
      vertex 2.6 2.6 0
      vertex 1.05721 0.236145 0
    endloop
  endfacet
  facet normal 0 0 -1
    outer loop
      vertex 2.6 30.2 0
      vertex 1.41942 32.7139 0
      vertex 1.60982 32.7616 0
    endloop
  endfacet
  facet normal 0 0 -1
    outer loop
      vertex 0.731201 0.453964 0
      vertex 2.6 2.6 0
      vertex 0.888855 0.337051 0
    endloop
  endfacet
  facet normal 0 0 -1
    outer loop
      vertex 2.6 30.2 0
      vertex 1.23462 32.6478 0
      vertex 1.41942 32.7139 0
    endloop
  endfacet
  facet normal 0 0 -1
    outer loop
      vertex 0.585785 0.585785 0
      vertex 2.6 2.6 0
      vertex 0.731201 0.453964 0
    endloop
  endfacet
  facet normal 0 0 -1
    outer loop
      vertex 2.6 30.2 0
      vertex 1.05721 32.5638 0
      vertex 1.23462 32.6478 0
    endloop
  endfacet
  facet normal 0 0 -1
    outer loop
      vertex 0.453964 0.731201 0
      vertex 2.6 2.6 0
      vertex 0.585785 0.585785 0
    endloop
  endfacet
  facet normal 0 0 -1
    outer loop
      vertex 2.6 30.2 0
      vertex 0.888855 32.4629 0
      vertex 1.05721 32.5638 0
    endloop
  endfacet
  facet normal 0 0 -1
    outer loop
      vertex 0.337051 0.888855 0
      vertex 2.6 2.6 0
      vertex 0.453964 0.731201 0
    endloop
  endfacet
  facet normal 0 0 -1
    outer loop
      vertex 2.6 30.2 0
      vertex 0.731201 32.346 0
      vertex 0.888855 32.4629 0
    endloop
  endfacet
  facet normal 0 0 -1
    outer loop
      vertex 0.236145 1.05721 0
      vertex 2.6 2.6 0
      vertex 0.337051 0.888855 0
    endloop
  endfacet
  facet normal 0 0 -1
    outer loop
      vertex 2.6 30.2 0
      vertex 0.585785 32.2142 0
      vertex 0.731201 32.346 0
    endloop
  endfacet
  facet normal 0 0 -1
    outer loop
      vertex 0.152237 1.23462 0
      vertex 2.6 2.6 0
      vertex 0.236145 1.05721 0
    endloop
  endfacet
  facet normal 0 0 -1
    outer loop
      vertex 2.6 30.2 0
      vertex 0.453964 32.0688 0
      vertex 0.585785 32.2142 0
    endloop
  endfacet
  facet normal 0 0 -1
    outer loop
      vertex 0.0861053 1.41942 0
      vertex 2.6 2.6 0
      vertex 0.152237 1.23462 0
    endloop
  endfacet
  facet normal 0 0 -1
    outer loop
      vertex 2.6 30.2 0
      vertex 0.337051 31.9111 0
      vertex 0.453964 32.0688 0
    endloop
  endfacet
  facet normal 0 0 -1
    outer loop
      vertex 0.0384216 1.60982 0
      vertex 2.6 2.6 0
      vertex 0.0861053 1.41942 0
    endloop
  endfacet
  facet normal 0 0 -1
    outer loop
      vertex 2.6 30.2 0
      vertex 0.236145 31.7428 0
      vertex 0.337051 31.9111 0
    endloop
  endfacet
  facet normal 0 0 -1
    outer loop
      vertex 0.0096283 1.80396 0
      vertex 2.6 2.6 0
      vertex 0.0384216 1.60982 0
    endloop
  endfacet
  facet normal 0 0 -1
    outer loop
      vertex 2.6 30.2 0
      vertex 0.152237 31.5654 0
      vertex 0.236145 31.7428 0
    endloop
  endfacet
  facet normal 0 0 -1
    outer loop
      vertex 2.6 2.6 0
      vertex 0.0096283 1.80396 0
      vertex 0 2 0
    endloop
  endfacet
  facet normal 0 0 -1
    outer loop
      vertex 2.6 30.2 0
      vertex 0.0861053 31.3806 0
      vertex 0.152237 31.5654 0
    endloop
  endfacet
  facet normal 0 0 -1
    outer loop
      vertex 2.6 30.2 0
      vertex 0.0384216 31.1902 0
      vertex 0.0861053 31.3806 0
    endloop
  endfacet
  facet normal 0 0 -1
    outer loop
      vertex 2.6 30.2 0
      vertex 0.0096283 30.996 0
      vertex 0.0384216 31.1902 0
    endloop
  endfacet
  facet normal 0.595508 0.80335 -0
    outer loop
      vertex 69.9088 32.346 0
      vertex 69.7511 32.4629 2.4
      vertex 69.9088 32.346 2.4
    endloop
  endfacet
  facet normal 0.595508 0.80335 0
    outer loop
      vertex 69.7511 32.4629 2.4
      vertex 69.9088 32.346 0
      vertex 69.7511 32.4629 0
    endloop
  endfacet
  facet normal -1 0 0
    outer loop
      vertex 0 30.8 0
      vertex 0 2 0
      vertex 0 30.8 2.4
    endloop
  endfacet
  facet normal -1 0 0
    outer loop
      vertex 0 30.8 2.4
      vertex 0 32.8 4.4
      vertex 0 32.8 2.4
    endloop
  endfacet
  facet normal -1 0 0
    outer loop
      vertex 0 2 2.4
      vertex 0 30.8 2.4
      vertex 0 2 0
    endloop
  endfacet
  facet normal -1 0 0
    outer loop
      vertex 0 30.8 2.4
      vertex 0 2 2.4
      vertex 0 32.8 4.4
    endloop
  endfacet
  facet normal -1 0 0
    outer loop
      vertex 0 0 4.4
      vertex 0 2 2.4
      vertex 0 0 2.4
    endloop
  endfacet
  facet normal -1 0 0
    outer loop
      vertex 0 2 2.4
      vertex 0 0 4.4
      vertex 0 32.8 4.4
    endloop
  endfacet
  facet normal 0 -1 0
    outer loop
      vertex 2 0 0
      vertex 68.64 0 2.4
      vertex 2 0 2.4
    endloop
  endfacet
  facet normal 0 -1 -0
    outer loop
      vertex 68.64 0 2.4
      vertex 2 0 0
      vertex 68.64 0 0
    endloop
  endfacet
  facet normal 0 -1 0
    outer loop
      vertex 2 0 2.4
      vertex 0 0 4.4
      vertex 0 0 2.4
    endloop
  endfacet
  facet normal 0 -1 0
    outer loop
      vertex 0 0 4.4
      vertex 2 0 2.4
      vertex 70.64 0 4.4
    endloop
  endfacet
  facet normal 0 -1 0
    outer loop
      vertex 68.64 0 2.4
      vertex 70.64 0 4.4
      vertex 2 0 2.4
    endloop
  endfacet
  facet normal 0 -1 -0
    outer loop
      vertex 70.64 0 4.4
      vertex 68.64 0 2.4
      vertex 70.64 0 2.4
    endloop
  endfacet
  facet normal 0.904006 -0.427519 0
    outer loop
      vertex 70.4038 1.05721 2.4
      vertex 70.4877 1.23462 0
      vertex 70.4877 1.23462 2.4
    endloop
  endfacet
  facet normal 0.904006 -0.427519 0
    outer loop
      vertex 70.4877 1.23462 0
      vertex 70.4038 1.05721 2.4
      vertex 70.4038 1.05721 0
    endloop
  endfacet
  facet normal 0.970049 -0.24291 0
    outer loop
      vertex 70.5741 1.5 2.4
      vertex 70.6016 1.60982 0
      vertex 70.6016 1.60982 2.4
    endloop
  endfacet
  facet normal 0.969987 -0.243159 0
    outer loop
      vertex 70.5539 1.41942 0
      vertex 70.5741 1.5 2.4
      vertex 70.5539 1.41942 2.4
    endloop
  endfacet
  facet normal 0.970023 -0.243015 -5.12437e-06
    outer loop
      vertex 70.5741 1.5 2.4
      vertex 70.5539 1.41942 0
      vertex 70.6016 1.60982 0
    endloop
  endfacet
  facet normal -0.242937 -0.970042 0
    outer loop
      vertex 1.41942 0.0861053 0
      vertex 1.60982 0.0384216 2.4
      vertex 1.41942 0.0861053 2.4
    endloop
  endfacet
  facet normal -0.242937 -0.970042 -0
    outer loop
      vertex 1.60982 0.0384216 2.4
      vertex 1.41942 0.0861053 0
      vertex 1.60982 0.0384216 0
    endloop
  endfacet
  facet normal -0.514072 0.857747 0
    outer loop
      vertex 1.05721 32.5638 0
      vertex 0.888855 32.4629 2.4
      vertex 1.05721 32.5638 2.4
    endloop
  endfacet
  facet normal -0.514072 0.857747 0
    outer loop
      vertex 0.888855 32.4629 2.4
      vertex 1.05721 32.5638 0
      vertex 0.888855 32.4629 0
    endloop
  endfacet
  facet normal 0.243015 0.970023 -0
    outer loop
      vertex 69.2206 32.7139 0
      vertex 69.0302 32.7616 2.4
      vertex 69.2206 32.7139 2.4
    endloop
  endfacet
  facet normal 0.243015 0.970023 0
    outer loop
      vertex 69.0302 32.7616 2.4
      vertex 69.2206 32.7139 0
      vertex 69.0302 32.7616 0
    endloop
  endfacet
  facet normal 0.998803 0.0489209 0
    outer loop
      vertex 70.64 30.8 2.4
      vertex 70.6304 30.996 0
      vertex 70.6304 30.996 2.4
    endloop
  endfacet
  facet normal 0.998803 0.0489209 0
    outer loop
      vertex 70.6304 30.996 0
      vertex 70.64 30.8 2.4
      vertex 70.64 30.8 0
    endloop
  endfacet
  facet normal -0.671566 0.740944 0
    outer loop
      vertex 0.731201 32.346 0
      vertex 0.585785 32.2142 2.4
      vertex 0.731201 32.346 2.4
    endloop
  endfacet
  facet normal -0.671566 0.740944 0
    outer loop
      vertex 0.585785 32.2142 2.4
      vertex 0.731201 32.346 0
      vertex 0.585785 32.2142 0
    endloop
  endfacet
  facet normal -0.336788 0.94158 0
    outer loop
      vertex 1.41942 32.7139 0
      vertex 1.23462 32.6478 2.4
      vertex 1.41942 32.7139 2.4
    endloop
  endfacet
  facet normal -0.336788 0.94158 0
    outer loop
      vertex 1.23462 32.6478 2.4
      vertex 1.41942 32.7139 0
      vertex 1.23462 32.6478 0
    endloop
  endfacet
  facet normal 0.903997 0.427539 0
    outer loop
      vertex 70.4877 31.5654 2.4
      vertex 70.4038 31.7428 0
      vertex 70.4038 31.7428 2.4
    endloop
  endfacet
  facet normal 0.903997 0.427539 0
    outer loop
      vertex 70.4038 31.7428 0
      vertex 70.4877 31.5654 2.4
      vertex 70.4877 31.5654 0
    endloop
  endfacet
  facet normal -0.857659 0.514218 0
    outer loop
      vertex 0.236145 31.7428 0
      vertex 0.337051 31.9111 2.4
      vertex 0.337051 31.9111 0
    endloop
  endfacet
  facet normal -0.857659 0.514218 0
    outer loop
      vertex 0.337051 31.9111 2.4
      vertex 0.236145 31.7428 0
      vertex 0.236145 31.7428 2.4
    endloop
  endfacet
  facet normal -0.903981 0.427572 0
    outer loop
      vertex 0.152237 31.5654 0
      vertex 0.236145 31.7428 2.4
      vertex 0.236145 31.7428 0
    endloop
  endfacet
  facet normal -0.903981 0.427572 0
    outer loop
      vertex 0.236145 31.7428 2.4
      vertex 0.152237 31.5654 0
      vertex 0.152237 31.5654 2.4
    endloop
  endfacet
  facet normal 0.970001 0.243102 0
    outer loop
      vertex 70.5741 31.3 2.4
      vertex 70.5539 31.3806 0
      vertex 70.5539 31.3806 2.4
    endloop
  endfacet
  facet normal 0.970038 0.242951 -0
    outer loop
      vertex 70.6016 31.1902 0
      vertex 70.5741 31.3 2.4
      vertex 70.6016 31.1902 2.4
    endloop
  endfacet
  facet normal 0.970023 0.243015 -3.09925e-06
    outer loop
      vertex 70.5741 31.3 2.4
      vertex 70.6016 31.1902 0
      vertex 70.5539 31.3806 0
    endloop
  endfacet
  facet normal -0.59562 0.803266 0
    outer loop
      vertex 0.888855 32.4629 0
      vertex 0.731201 32.346 2.4
      vertex 0.888855 32.4629 2.4
    endloop
  endfacet
  facet normal -0.59562 0.803266 0
    outer loop
      vertex 0.731201 32.346 2.4
      vertex 0.888855 32.4629 0
      vertex 0.731201 32.346 0
    endloop
  endfacet
  facet normal 0.514196 0.857673 -0
    outer loop
      vertex 69.7511 32.4629 0
      vertex 69.5828 32.5638 2.4
      vertex 69.7511 32.4629 2.4
    endloop
  endfacet
  facet normal 0.514196 0.857673 0
    outer loop
      vertex 69.5828 32.5638 2.4
      vertex 69.7511 32.4629 0
      vertex 69.5828 32.5638 0
    endloop
  endfacet
  facet normal -0.857733 -0.514095 0
    outer loop
      vertex 0.337051 0.888855 0
      vertex 0.236145 1.05721 2.4
      vertex 0.236145 1.05721 0
    endloop
  endfacet
  facet normal -0.857733 -0.514095 0
    outer loop
      vertex 0.236145 1.05721 2.4
      vertex 0.337051 0.888855 0
      vertex 0.337051 0.888855 2.4
    endloop
  endfacet
  facet normal -0.970042 0.242937 0
    outer loop
      vertex 0.0384216 31.1902 0
      vertex 0.0861053 31.3806 2.4
      vertex 0.0861053 31.3806 0
    endloop
  endfacet
  facet normal -0.970042 0.242937 0
    outer loop
      vertex 0.0861053 31.3806 2.4
      vertex 0.0384216 31.1902 0
      vertex 0.0384216 31.1902 2.4
    endloop
  endfacet
  facet normal -0.740891 -0.671625 0
    outer loop
      vertex 0.585785 0.585785 0
      vertex 0.453964 0.731201 2.4
      vertex 0.453964 0.731201 0
    endloop
  endfacet
  facet normal -0.740891 -0.671625 0
    outer loop
      vertex 0.453964 0.731201 2.4
      vertex 0.585785 0.585785 0
      vertex 0.585785 0.585785 2.4
    endloop
  endfacet
  facet normal 0.857673 0.514196 0
    outer loop
      vertex 70.4038 31.7428 2.4
      vertex 70.3029 31.9111 0
      vertex 70.3029 31.9111 2.4
    endloop
  endfacet
  facet normal 0.857673 0.514196 0
    outer loop
      vertex 70.3029 31.9111 0
      vertex 70.4038 31.7428 2.4
      vertex 70.4038 31.7428 0
    endloop
  endfacet
  facet normal 0.989182 0.146696 0
    outer loop
      vertex 70.6304 30.996 2.4
      vertex 70.6016 31.1902 0
      vertex 70.6016 31.1902 2.4
    endloop
  endfacet
  facet normal 0.989182 0.146696 0
    outer loop
      vertex 70.6016 31.1902 0
      vertex 70.6304 30.996 2.4
      vertex 70.6304 30.996 0
    endloop
  endfacet
  facet normal 0.146663 -0.989187 0
    outer loop
      vertex 68.836 0.0096283 0
      vertex 69.0302 0.0384216 2.4
      vertex 68.836 0.0096283 2.4
    endloop
  endfacet
  facet normal 0.146663 -0.989187 0
    outer loop
      vertex 69.0302 0.0384216 2.4
      vertex 68.836 0.0096283 0
      vertex 69.0302 0.0384216 0
    endloop
  endfacet
  facet normal 0.0490648 -0.998796 0
    outer loop
      vertex 68.64 0 0
      vertex 68.836 0.0096283 2.4
      vertex 68.64 0 2.4
    endloop
  endfacet
  facet normal 0.0490648 -0.998796 0
    outer loop
      vertex 68.836 0.0096283 2.4
      vertex 68.64 0 0
      vertex 68.836 0.0096283 0
    endloop
  endfacet
  facet normal -0.941529 -0.336931 0
    outer loop
      vertex 0.152237 1.23462 0
      vertex 0.0861053 1.41942 2.4
      vertex 0.0861053 1.41942 0
    endloop
  endfacet
  facet normal -0.941529 -0.336931 0
    outer loop
      vertex 0.0861053 1.41942 2.4
      vertex 0.152237 1.23462 0
      vertex 0.152237 1.23462 2.4
    endloop
  endfacet
  facet normal -0.427935 0.903809 0
    outer loop
      vertex 1.23462 32.6478 0
      vertex 1.05721 32.5638 2.4
      vertex 1.23462 32.6478 2.4
    endloop
  endfacet
  facet normal -0.427935 0.903809 0
    outer loop
      vertex 1.05721 32.5638 2.4
      vertex 1.23462 32.6478 0
      vertex 1.05721 32.5638 0
    endloop
  endfacet
  facet normal -0.0490548 -0.998796 0
    outer loop
      vertex 1.80396 0.0096283 0
      vertex 2 0 2.4
      vertex 1.80396 0.0096283 2.4
    endloop
  endfacet
  facet normal -0.0490548 -0.998796 -0
    outer loop
      vertex 2 0 2.4
      vertex 1.80396 0.0096283 0
      vertex 2 0 0
    endloop
  endfacet
  facet normal 0.671607 0.740908 -0
    outer loop
      vertex 70.0542 32.2142 0
      vertex 69.9088 32.346 2.4
      vertex 70.0542 32.2142 2.4
    endloop
  endfacet
  facet normal 0.671607 0.740908 0
    outer loop
      vertex 69.9088 32.346 2.4
      vertex 70.0542 32.2142 0
      vertex 69.9088 32.346 0
    endloop
  endfacet
  facet normal -0.146741 0.989175 0
    outer loop
      vertex 1.80396 32.7904 0
      vertex 1.60982 32.7616 2.4
      vertex 1.80396 32.7904 2.4
    endloop
  endfacet
  facet normal -0.146741 0.989175 0
    outer loop
      vertex 1.60982 32.7616 2.4
      vertex 1.80396 32.7904 0
      vertex 1.60982 32.7616 0
    endloop
  endfacet
  facet normal -0.048911 0.998803 0
    outer loop
      vertex 2 32.8 0
      vertex 1.80396 32.7904 2.4
      vertex 2 32.8 2.4
    endloop
  endfacet
  facet normal -0.048911 0.998803 0
    outer loop
      vertex 1.80396 32.7904 2.4
      vertex 2 32.8 0
      vertex 1.80396 32.7904 0
    endloop
  endfacet
  facet normal -0.941529 0.336931 0
    outer loop
      vertex 0.0861053 31.3806 0
      vertex 0.152237 31.5654 2.4
      vertex 0.152237 31.5654 0
    endloop
  endfacet
  facet normal -0.941529 0.336931 0
    outer loop
      vertex 0.152237 31.5654 2.4
      vertex 0.0861053 31.3806 0
      vertex 0.0861053 31.3806 2.4
    endloop
  endfacet
  facet normal -0.243015 0.970023 0
    outer loop
      vertex 1.60982 32.7616 0
      vertex 1.41942 32.7139 2.4
      vertex 1.60982 32.7616 2.4
    endloop
  endfacet
  facet normal -0.243015 0.970023 0
    outer loop
      vertex 1.41942 32.7139 2.4
      vertex 1.60982 32.7616 0
      vertex 1.41942 32.7139 0
    endloop
  endfacet
  facet normal 0.336931 -0.941529 0
    outer loop
      vertex 69.2206 0.0861053 0
      vertex 69.4054 0.152237 2.4
      vertex 69.2206 0.0861053 2.4
    endloop
  endfacet
  facet normal 0.336931 -0.941529 0
    outer loop
      vertex 69.4054 0.152237 2.4
      vertex 69.2206 0.0861053 0
      vertex 69.4054 0.152237 0
    endloop
  endfacet
  facet normal -0.803318 0.59555 0
    outer loop
      vertex 0.337051 31.9111 0
      vertex 0.453964 32.0688 2.4
      vertex 0.453964 32.0688 0
    endloop
  endfacet
  facet normal -0.803318 0.59555 0
    outer loop
      vertex 0.453964 32.0688 2.4
      vertex 0.337051 31.9111 0
      vertex 0.337051 31.9111 2.4
    endloop
  endfacet
  facet normal 0.427955 0.9038 -0
    outer loop
      vertex 69.5828 32.5638 0
      vertex 69.4054 32.6478 2.4
      vertex 69.5828 32.5638 2.4
    endloop
  endfacet
  facet normal 0.427955 0.9038 0
    outer loop
      vertex 69.4054 32.6478 2.4
      vertex 69.5828 32.5638 0
      vertex 69.4054 32.6478 0
    endloop
  endfacet
  facet normal 0.857747 -0.514072 0
    outer loop
      vertex 70.3029 0.888855 2.4
      vertex 70.4038 1.05721 0
      vertex 70.4038 1.05721 2.4
    endloop
  endfacet
  facet normal 0.857747 -0.514072 0
    outer loop
      vertex 70.4038 1.05721 0
      vertex 70.3029 0.888855 2.4
      vertex 70.3029 0.888855 0
    endloop
  endfacet
  facet normal 0.427572 -0.903981 0
    outer loop
      vertex 69.4054 0.152237 0
      vertex 69.5828 0.236145 2.4
      vertex 69.4054 0.152237 2.4
    endloop
  endfacet
  facet normal 0.427572 -0.903981 0
    outer loop
      vertex 69.5828 0.236145 2.4
      vertex 69.4054 0.152237 0
      vertex 69.5828 0.236145 0
    endloop
  endfacet
  facet normal 0.989175 -0.146741 0
    outer loop
      vertex 70.6016 1.60982 2.4
      vertex 70.6304 1.80396 0
      vertex 70.6304 1.80396 2.4
    endloop
  endfacet
  facet normal 0.989175 -0.146741 0
    outer loop
      vertex 70.6304 1.80396 0
      vertex 70.6016 1.60982 2.4
      vertex 70.6016 1.60982 0
    endloop
  endfacet
  facet normal -0.514095 -0.857733 0
    outer loop
      vertex 0.888855 0.337051 0
      vertex 1.05721 0.236145 2.4
      vertex 0.888855 0.337051 2.4
    endloop
  endfacet
  facet normal -0.514095 -0.857733 -0
    outer loop
      vertex 1.05721 0.236145 2.4
      vertex 0.888855 0.337051 0
      vertex 1.05721 0.236145 0
    endloop
  endfacet
  facet normal 0.740908 0.671607 0
    outer loop
      vertex 70.186 32.0688 2.4
      vertex 70.0542 32.2142 0
      vertex 70.0542 32.2142 2.4
    endloop
  endfacet
  facet normal 0.740908 0.671607 0
    outer loop
      vertex 70.0542 32.2142 0
      vertex 70.186 32.0688 2.4
      vertex 70.186 32.0688 0
    endloop
  endfacet
  facet normal 0.0489209 0.998803 -0
    outer loop
      vertex 68.836 32.7904 0
      vertex 68.64 32.8 2.4
      vertex 68.836 32.7904 2.4
    endloop
  endfacet
  facet normal 0.0489209 0.998803 0
    outer loop
      vertex 68.64 32.8 2.4
      vertex 68.836 32.7904 0
      vertex 68.64 32.8 0
    endloop
  endfacet
  facet normal 0.146696 0.989182 -0
    outer loop
      vertex 69.0302 32.7616 0
      vertex 68.836 32.7904 2.4
      vertex 69.0302 32.7616 2.4
    endloop
  endfacet
  facet normal 0.146696 0.989182 0
    outer loop
      vertex 68.836 32.7904 2.4
      vertex 69.0302 32.7616 0
      vertex 68.836 32.7904 0
    endloop
  endfacet
  facet normal 0.336788 0.94158 -0
    outer loop
      vertex 69.4054 32.6478 0
      vertex 69.2206 32.7139 2.4
      vertex 69.4054 32.6478 2.4
    endloop
  endfacet
  facet normal 0.336788 0.94158 0
    outer loop
      vertex 69.2206 32.7139 2.4
      vertex 69.4054 32.6478 0
      vertex 69.2206 32.7139 0
    endloop
  endfacet
  facet normal -0.803235 -0.595663 0
    outer loop
      vertex 0.453964 0.731201 0
      vertex 0.337051 0.888855 2.4
      vertex 0.337051 0.888855 0
    endloop
  endfacet
  facet normal -0.803235 -0.595663 0
    outer loop
      vertex 0.337051 0.888855 2.4
      vertex 0.453964 0.731201 0
      vertex 0.453964 0.731201 2.4
    endloop
  endfacet
  facet normal 0.941419 -0.33724 0
    outer loop
      vertex 70.4877 1.23462 2.4
      vertex 70.5539 1.41942 0
      vertex 70.5539 1.41942 2.4
    endloop
  endfacet
  facet normal 0.941419 -0.33724 0
    outer loop
      vertex 70.5539 1.41942 0
      vertex 70.4877 1.23462 2.4
      vertex 70.4877 1.23462 0
    endloop
  endfacet
  facet normal 0.671666 -0.740854 0
    outer loop
      vertex 69.9088 0.453964 0
      vertex 70.0542 0.585785 2.4
      vertex 69.9088 0.453964 2.4
    endloop
  endfacet
  facet normal 0.671666 -0.740854 0
    outer loop
      vertex 70.0542 0.585785 2.4
      vertex 69.9088 0.453964 0
      vertex 70.0542 0.585785 0
    endloop
  endfacet
  facet normal 0.740944 -0.671566 0
    outer loop
      vertex 70.0542 0.585785 2.4
      vertex 70.186 0.731201 0
      vertex 70.186 0.731201 2.4
    endloop
  endfacet
  facet normal 0.740944 -0.671566 0
    outer loop
      vertex 70.186 0.731201 0
      vertex 70.0542 0.585785 2.4
      vertex 70.0542 0.585785 0
    endloop
  endfacet
  facet normal 0.59555 -0.803318 0
    outer loop
      vertex 69.7511 0.337051 0
      vertex 69.9088 0.453964 2.4
      vertex 69.7511 0.337051 2.4
    endloop
  endfacet
  facet normal 0.59555 -0.803318 0
    outer loop
      vertex 69.9088 0.453964 2.4
      vertex 69.7511 0.337051 0
      vertex 69.9088 0.453964 0
    endloop
  endfacet
  facet normal -0.336931 -0.941529 0
    outer loop
      vertex 1.23462 0.152237 0
      vertex 1.41942 0.0861053 2.4
      vertex 1.23462 0.152237 2.4
    endloop
  endfacet
  facet normal -0.336931 -0.941529 -0
    outer loop
      vertex 1.41942 0.0861053 2.4
      vertex 1.23462 0.152237 0
      vertex 1.41942 0.0861053 0
    endloop
  endfacet
  facet normal 0.941419 0.33724 0
    outer loop
      vertex 70.5539 31.3806 2.4
      vertex 70.4877 31.5654 0
      vertex 70.4877 31.5654 2.4
    endloop
  endfacet
  facet normal 0.941419 0.33724 0
    outer loop
      vertex 70.4877 31.5654 0
      vertex 70.5539 31.3806 2.4
      vertex 70.5539 31.3806 0
    endloop
  endfacet
  facet normal -0.740854 0.671666 0
    outer loop
      vertex 0.453964 32.0688 0
      vertex 0.585785 32.2142 2.4
      vertex 0.585785 32.2142 0
    endloop
  endfacet
  facet normal -0.740854 0.671666 0
    outer loop
      vertex 0.585785 32.2142 2.4
      vertex 0.453964 32.0688 0
      vertex 0.453964 32.0688 2.4
    endloop
  endfacet
  facet normal 0.998803 -0.048911 0
    outer loop
      vertex 70.6304 1.80396 2.4
      vertex 70.64 2 0
      vertex 70.64 2 2.4
    endloop
  endfacet
  facet normal 0.998803 -0.048911 0
    outer loop
      vertex 70.64 2 0
      vertex 70.6304 1.80396 2.4
      vertex 70.6304 1.80396 0
    endloop
  endfacet
  facet normal -0.595663 -0.803235 0
    outer loop
      vertex 0.731201 0.453964 0
      vertex 0.888855 0.337051 2.4
      vertex 0.731201 0.453964 2.4
    endloop
  endfacet
  facet normal -0.595663 -0.803235 -0
    outer loop
      vertex 0.888855 0.337051 2.4
      vertex 0.731201 0.453964 0
      vertex 0.888855 0.337051 0
    endloop
  endfacet
  facet normal -0.903991 -0.427552 0
    outer loop
      vertex 0.236145 1.05721 0
      vertex 0.152237 1.23462 2.4
      vertex 0.152237 1.23462 0
    endloop
  endfacet
  facet normal -0.903991 -0.427552 0
    outer loop
      vertex 0.152237 1.23462 2.4
      vertex 0.236145 1.05721 0
      vertex 0.236145 1.05721 2.4
    endloop
  endfacet
  facet normal 0 0 -1
    outer loop
      vertex 0 0 2.4
      vertex 1.80396 0.0096283 2.4
      vertex 2 0 2.4
    endloop
  endfacet
  facet normal 0 0 -1
    outer loop
      vertex 0 0 2.4
      vertex 1.60982 0.0384216 2.4
      vertex 1.80396 0.0096283 2.4
    endloop
  endfacet
  facet normal 0 0 -1
    outer loop
      vertex 0 0 2.4
      vertex 1.41942 0.0861053 2.4
      vertex 1.60982 0.0384216 2.4
    endloop
  endfacet
  facet normal 0 0 -1
    outer loop
      vertex 0 0 2.4
      vertex 1.23462 0.152237 2.4
      vertex 1.41942 0.0861053 2.4
    endloop
  endfacet
  facet normal 0 0 -1
    outer loop
      vertex 0 0 2.4
      vertex 1.05721 0.236145 2.4
      vertex 1.23462 0.152237 2.4
    endloop
  endfacet
  facet normal 0 0 -1
    outer loop
      vertex 0 0 2.4
      vertex 0.888855 0.337051 2.4
      vertex 1.05721 0.236145 2.4
    endloop
  endfacet
  facet normal 0 0 -1
    outer loop
      vertex 0 0 2.4
      vertex 0.731201 0.453964 2.4
      vertex 0.888855 0.337051 2.4
    endloop
  endfacet
  facet normal 0 0 -1
    outer loop
      vertex 0 0 2.4
      vertex 0.585785 0.585785 2.4
      vertex 0.731201 0.453964 2.4
    endloop
  endfacet
  facet normal 0 0 -1
    outer loop
      vertex 0 0 2.4
      vertex 0.453964 0.731201 2.4
      vertex 0.585785 0.585785 2.4
    endloop
  endfacet
  facet normal 0 0 -1
    outer loop
      vertex 0 0 2.4
      vertex 0.337051 0.888855 2.4
      vertex 0.453964 0.731201 2.4
    endloop
  endfacet
  facet normal 0 0 -1
    outer loop
      vertex 0 0 2.4
      vertex 0.236145 1.05721 2.4
      vertex 0.337051 0.888855 2.4
    endloop
  endfacet
  facet normal 0 0 -1
    outer loop
      vertex 0 0 2.4
      vertex 0.152237 1.23462 2.4
      vertex 0.236145 1.05721 2.4
    endloop
  endfacet
  facet normal 0 0 -1
    outer loop
      vertex 0 0 2.4
      vertex 0.0861053 1.41942 2.4
      vertex 0.152237 1.23462 2.4
    endloop
  endfacet
  facet normal 0 0 -1
    outer loop
      vertex 0 0 2.4
      vertex 0.0384216 1.60982 2.4
      vertex 0.0861053 1.41942 2.4
    endloop
  endfacet
  facet normal 0 0 -1
    outer loop
      vertex 0 0 2.4
      vertex 0.0096283 1.80396 2.4
      vertex 0.0384216 1.60982 2.4
    endloop
  endfacet
  facet normal -0 0 -1
    outer loop
      vertex 0.0096283 1.80396 2.4
      vertex 0 0 2.4
      vertex 0 2 2.4
    endloop
  endfacet
  facet normal 0 0 -1
    outer loop
      vertex 70.5539 31.3806 2.4
      vertex 70.64 31.3 2.4
      vertex 70.5741 31.3 2.4
    endloop
  endfacet
  facet normal 0 0 -1
    outer loop
      vertex 70.4877 31.5654 2.4
      vertex 70.64 31.3 2.4
      vertex 70.5539 31.3806 2.4
    endloop
  endfacet
  facet normal 0 0 -1
    outer loop
      vertex 70.64 31.3 2.4
      vertex 70.4877 31.5654 2.4
      vertex 70.64 32.8 2.4
    endloop
  endfacet
  facet normal 0 0 -1
    outer loop
      vertex 70.4038 31.7428 2.4
      vertex 70.64 32.8 2.4
      vertex 70.4877 31.5654 2.4
    endloop
  endfacet
  facet normal 0 0 -1
    outer loop
      vertex 70.3029 31.9111 2.4
      vertex 70.64 32.8 2.4
      vertex 70.4038 31.7428 2.4
    endloop
  endfacet
  facet normal 0 0 -1
    outer loop
      vertex 70.186 32.0688 2.4
      vertex 70.64 32.8 2.4
      vertex 70.3029 31.9111 2.4
    endloop
  endfacet
  facet normal 0 0 -1
    outer loop
      vertex 70.0542 32.2142 2.4
      vertex 70.64 32.8 2.4
      vertex 70.186 32.0688 2.4
    endloop
  endfacet
  facet normal 0 0 -1
    outer loop
      vertex 69.9088 32.346 2.4
      vertex 70.64 32.8 2.4
      vertex 70.0542 32.2142 2.4
    endloop
  endfacet
  facet normal 0 0 -1
    outer loop
      vertex 69.7511 32.4629 2.4
      vertex 70.64 32.8 2.4
      vertex 69.9088 32.346 2.4
    endloop
  endfacet
  facet normal 0 0 -1
    outer loop
      vertex 69.5828 32.5638 2.4
      vertex 70.64 32.8 2.4
      vertex 69.7511 32.4629 2.4
    endloop
  endfacet
  facet normal 0 0 -1
    outer loop
      vertex 69.4054 32.6478 2.4
      vertex 70.64 32.8 2.4
      vertex 69.5828 32.5638 2.4
    endloop
  endfacet
  facet normal 0 0 -1
    outer loop
      vertex 69.2206 32.7139 2.4
      vertex 70.64 32.8 2.4
      vertex 69.4054 32.6478 2.4
    endloop
  endfacet
  facet normal 0 0 -1
    outer loop
      vertex 69.0302 32.7616 2.4
      vertex 70.64 32.8 2.4
      vertex 69.2206 32.7139 2.4
    endloop
  endfacet
  facet normal 0 0 -1
    outer loop
      vertex 68.836 32.7904 2.4
      vertex 70.64 32.8 2.4
      vertex 69.0302 32.7616 2.4
    endloop
  endfacet
  facet normal 0 0 -1
    outer loop
      vertex 68.64 32.8 2.4
      vertex 70.64 32.8 2.4
      vertex 68.836 32.7904 2.4
    endloop
  endfacet
  facet normal 0 0 0
    outer loop
      vertex 2 32.8 2.4
      vertex 70.64 32.8 2.4
      vertex 68.64 32.8 2.4
    endloop
  endfacet
  facet normal 0 0 -0
    outer loop
      vertex 2 32.8 2.4
      vertex 0 32.8 2.4
      vertex 70.64 32.8 2.4
    endloop
  endfacet
  facet normal 0 0 -1
    outer loop
      vertex 1.80396 32.7904 2.4
      vertex 0 32.8 2.4
      vertex 2 32.8 2.4
    endloop
  endfacet
  facet normal 0 0 -1
    outer loop
      vertex 1.60982 32.7616 2.4
      vertex 0 32.8 2.4
      vertex 1.80396 32.7904 2.4
    endloop
  endfacet
  facet normal 0 0 -1
    outer loop
      vertex 1.41942 32.7139 2.4
      vertex 0 32.8 2.4
      vertex 1.60982 32.7616 2.4
    endloop
  endfacet
  facet normal 0 0 -1
    outer loop
      vertex 1.23462 32.6478 2.4
      vertex 0 32.8 2.4
      vertex 1.41942 32.7139 2.4
    endloop
  endfacet
  facet normal 0 0 -1
    outer loop
      vertex 1.05721 32.5638 2.4
      vertex 0 32.8 2.4
      vertex 1.23462 32.6478 2.4
    endloop
  endfacet
  facet normal 0 0 -1
    outer loop
      vertex 0.888855 32.4629 2.4
      vertex 0 32.8 2.4
      vertex 1.05721 32.5638 2.4
    endloop
  endfacet
  facet normal 0 0 -1
    outer loop
      vertex 0.731201 32.346 2.4
      vertex 0 32.8 2.4
      vertex 0.888855 32.4629 2.4
    endloop
  endfacet
  facet normal 0 0 -1
    outer loop
      vertex 0.585785 32.2142 2.4
      vertex 0 32.8 2.4
      vertex 0.731201 32.346 2.4
    endloop
  endfacet
  facet normal 0 0 -1
    outer loop
      vertex 0.453964 32.0688 2.4
      vertex 0 32.8 2.4
      vertex 0.585785 32.2142 2.4
    endloop
  endfacet
  facet normal 0 0 -1
    outer loop
      vertex 0.337051 31.9111 2.4
      vertex 0 32.8 2.4
      vertex 0.453964 32.0688 2.4
    endloop
  endfacet
  facet normal 0 0 -1
    outer loop
      vertex 0.236145 31.7428 2.4
      vertex 0 32.8 2.4
      vertex 0.337051 31.9111 2.4
    endloop
  endfacet
  facet normal 0 0 -1
    outer loop
      vertex 0.152237 31.5654 2.4
      vertex 0 32.8 2.4
      vertex 0.236145 31.7428 2.4
    endloop
  endfacet
  facet normal 0 0 -1
    outer loop
      vertex 0.0861053 31.3806 2.4
      vertex 0 32.8 2.4
      vertex 0.152237 31.5654 2.4
    endloop
  endfacet
  facet normal 0 0 -1
    outer loop
      vertex 0.0384216 31.1902 2.4
      vertex 0 32.8 2.4
      vertex 0.0861053 31.3806 2.4
    endloop
  endfacet
  facet normal 0 0 -1
    outer loop
      vertex 0.0096283 30.996 2.4
      vertex 0 32.8 2.4
      vertex 0.0384216 31.1902 2.4
    endloop
  endfacet
  facet normal 0 0 -1
    outer loop
      vertex 0 32.8 2.4
      vertex 0.0096283 30.996 2.4
      vertex 0 30.8 2.4
    endloop
  endfacet
  facet normal 0 0 -1
    outer loop
      vertex 70.4877 1.23462 2.4
      vertex 70.64 1.5 2.4
      vertex 70.64 0 2.4
    endloop
  endfacet
  facet normal -0 0 -1
    outer loop
      vertex 70.64 1.5 2.4
      vertex 70.5539 1.41942 2.4
      vertex 70.5741 1.5 2.4
    endloop
  endfacet
  facet normal 0 0 -1
    outer loop
      vertex 70.64 1.5 2.4
      vertex 70.4877 1.23462 2.4
      vertex 70.5539 1.41942 2.4
    endloop
  endfacet
  facet normal 0 0 -1
    outer loop
      vertex 70.64 0 2.4
      vertex 70.4038 1.05721 2.4
      vertex 70.4877 1.23462 2.4
    endloop
  endfacet
  facet normal 0 0 -1
    outer loop
      vertex 70.64 0 2.4
      vertex 70.3029 0.888855 2.4
      vertex 70.4038 1.05721 2.4
    endloop
  endfacet
  facet normal 0 0 -1
    outer loop
      vertex 70.64 0 2.4
      vertex 70.186 0.731201 2.4
      vertex 70.3029 0.888855 2.4
    endloop
  endfacet
  facet normal 0 0 -1
    outer loop
      vertex 70.64 0 2.4
      vertex 70.0542 0.585785 2.4
      vertex 70.186 0.731201 2.4
    endloop
  endfacet
  facet normal 0 0 -1
    outer loop
      vertex 70.64 0 2.4
      vertex 69.9088 0.453964 2.4
      vertex 70.0542 0.585785 2.4
    endloop
  endfacet
  facet normal 0 0 -1
    outer loop
      vertex 70.64 0 2.4
      vertex 69.7511 0.337051 2.4
      vertex 69.9088 0.453964 2.4
    endloop
  endfacet
  facet normal 0 0 -1
    outer loop
      vertex 70.64 0 2.4
      vertex 69.5828 0.236145 2.4
      vertex 69.7511 0.337051 2.4
    endloop
  endfacet
  facet normal 0 0 -1
    outer loop
      vertex 70.64 0 2.4
      vertex 69.4054 0.152237 2.4
      vertex 69.5828 0.236145 2.4
    endloop
  endfacet
  facet normal 0 0 -1
    outer loop
      vertex 70.64 0 2.4
      vertex 69.2206 0.0861053 2.4
      vertex 69.4054 0.152237 2.4
    endloop
  endfacet
  facet normal 0 0 -1
    outer loop
      vertex 70.64 0 2.4
      vertex 69.0302 0.0384216 2.4
      vertex 69.2206 0.0861053 2.4
    endloop
  endfacet
  facet normal 0 0 -1
    outer loop
      vertex 70.64 0 2.4
      vertex 68.836 0.0096283 2.4
      vertex 69.0302 0.0384216 2.4
    endloop
  endfacet
  facet normal 0 -0 -1
    outer loop
      vertex 68.836 0.0096283 2.4
      vertex 70.64 0 2.4
      vertex 68.64 0 2.4
    endloop
  endfacet
  facet normal -0 0 1
    outer loop
      vertex 1.5 31.3 2.4
      vertex 68.04 30.2 2.4
      vertex 70.5741 31.3 2.4
    endloop
  endfacet
  facet normal 0 0 1
    outer loop
      vertex 2.6 30.2 2.4
      vertex 1.5 31.3 2.4
      vertex 2.6 2.6 2.4
    endloop
  endfacet
  facet normal 0 0 1
    outer loop
      vertex 68.04 30.2 2.4
      vertex 1.5 31.3 2.4
      vertex 2.6 30.2 2.4
    endloop
  endfacet
  facet normal 0 0 1
    outer loop
      vertex 68.04 30.2 2.4
      vertex 70.64 30.8 2.4
      vertex 70.6304 30.996 2.4
    endloop
  endfacet
  facet normal 0 0 1
    outer loop
      vertex 70.64 30.8 2.4
      vertex 68.04 30.2 2.4
      vertex 70.64 2 2.4
    endloop
  endfacet
  facet normal 0 0 1
    outer loop
      vertex 68.04 30.2 2.4
      vertex 70.6304 30.996 2.4
      vertex 70.6016 31.1902 2.4
    endloop
  endfacet
  facet normal -0 0 1
    outer loop
      vertex 68.04 2.6 2.4
      vertex 70.64 2 2.4
      vertex 68.04 30.2 2.4
    endloop
  endfacet
  facet normal 0 0 1
    outer loop
      vertex 70.6304 1.80396 2.4
      vertex 68.04 2.6 2.4
      vertex 70.6016 1.60982 2.4
    endloop
  endfacet
  facet normal 0 0 1
    outer loop
      vertex 68.04 30.2 2.4
      vertex 70.6016 31.1902 2.4
      vertex 70.5741 31.3 2.4
    endloop
  endfacet
  facet normal 0 0 1
    outer loop
      vertex 70.64 2 2.4
      vertex 68.04 2.6 2.4
      vertex 70.6304 1.80396 2.4
    endloop
  endfacet
  facet normal 0 0 1
    outer loop
      vertex 70.6016 1.60982 2.4
      vertex 68.04 2.6 2.4
      vertex 70.5741 1.5 2.4
    endloop
  endfacet
  facet normal 0 0 1
    outer loop
      vertex 1.5 1.5 2.4
      vertex 68.04 2.6 2.4
      vertex 2.6 2.6 2.4
    endloop
  endfacet
  facet normal 0 0 1
    outer loop
      vertex 68.04 2.6 2.4
      vertex 1.5 1.5 2.4
      vertex 70.5741 1.5 2.4
    endloop
  endfacet
  facet normal 0 0 1
    outer loop
      vertex 1.5 1.5 2.4
      vertex 2.6 2.6 2.4
      vertex 1.5 31.3 2.4
    endloop
  endfacet
  facet normal -1 0 0
    outer loop
      vertex 68.04 2.6 0
      vertex 68.04 30.2 2.4
      vertex 68.04 30.2 0
    endloop
  endfacet
  facet normal -1 -0 0
    outer loop
      vertex 68.04 30.2 2.4
      vertex 68.04 2.6 0
      vertex 68.04 2.6 2.4
    endloop
  endfacet
  facet normal 1 -0 0
    outer loop
      vertex 2.6 2.6 2.4
      vertex 2.6 30.2 0
      vertex 2.6 30.2 2.4
    endloop
  endfacet
  facet normal 1 0 0
    outer loop
      vertex 2.6 30.2 0
      vertex 2.6 2.6 2.4
      vertex 2.6 2.6 0
    endloop
  endfacet
  facet normal 0 -1 0
    outer loop
      vertex 2.6 30.2 0
      vertex 68.04 30.2 2.4
      vertex 2.6 30.2 2.4
    endloop
  endfacet
  facet normal 0 -1 -0
    outer loop
      vertex 68.04 30.2 2.4
      vertex 2.6 30.2 0
      vertex 68.04 30.2 0
    endloop
  endfacet
  facet normal 0 1 -0
    outer loop
      vertex 68.04 2.6 0
      vertex 2.6 2.6 2.4
      vertex 68.04 2.6 2.4
    endloop
  endfacet
  facet normal 0 1 0
    outer loop
      vertex 2.6 2.6 2.4
      vertex 68.04 2.6 0
      vertex 2.6 2.6 0
    endloop
  endfacet
  facet normal 1 -0 0
    outer loop
      vertex 70.64 0 4.4
      vertex 70.64 1.5 2.4
      vertex 70.64 1.5 4.4
    endloop
  endfacet
  facet normal 1 0 0
    outer loop
      vertex 70.64 1.5 2.4
      vertex 70.64 0 4.4
      vertex 70.64 0 2.4
    endloop
  endfacet
  facet normal 0 0 1
    outer loop
      vertex 70.64 32.8 4.4
      vertex 1.5 31.3 4.4
      vertex 70.64 31.3 4.4
    endloop
  endfacet
  facet normal 0 0 1
    outer loop
      vertex 1.5 31.3 4.4
      vertex 0 32.8 4.4
      vertex 1.5 1.5 4.4
    endloop
  endfacet
  facet normal -0 0 1
    outer loop
      vertex 0 32.8 4.4
      vertex 1.5 31.3 4.4
      vertex 70.64 32.8 4.4
    endloop
  endfacet
  facet normal -0 0 1
    outer loop
      vertex 1.5 1.5 4.4
      vertex 70.64 0 4.4
      vertex 70.64 1.5 4.4
    endloop
  endfacet
  facet normal 0 0 1
    outer loop
      vertex 1.5 1.5 4.4
      vertex 0 0 4.4
      vertex 70.64 0 4.4
    endloop
  endfacet
  facet normal 0 0 1
    outer loop
      vertex 0 0 4.4
      vertex 1.5 1.5 4.4
      vertex 0 32.8 4.4
    endloop
  endfacet
  facet normal 0 1 0
    outer loop
      vertex 70.5741 1.5 2.4
      vertex 70.64 1.5 4.4
      vertex 70.64 1.5 2.4
    endloop
  endfacet
  facet normal 0 1 0
    outer loop
      vertex 70.64 1.5 4.4
      vertex 70.5741 1.5 2.4
      vertex 1.5 1.5 4.4
    endloop
  endfacet
  facet normal 0 1 0
    outer loop
      vertex 1.5 1.5 4.4
      vertex 70.5741 1.5 2.4
      vertex 1.5 1.5 2.4
    endloop
  endfacet
  facet normal 1 -0 0
    outer loop
      vertex 70.64 31.3 4.4
      vertex 70.64 32.8 2.4
      vertex 70.64 32.8 4.4
    endloop
  endfacet
  facet normal 1 0 0
    outer loop
      vertex 70.64 32.8 2.4
      vertex 70.64 31.3 4.4
      vertex 70.64 31.3 2.4
    endloop
  endfacet
  facet normal 0 1 -0
    outer loop
      vertex 70.64 32.8 2.4
      vertex 0 32.8 4.4
      vertex 70.64 32.8 4.4
    endloop
  endfacet
  facet normal 0 1 0
    outer loop
      vertex 0 32.8 4.4
      vertex 70.64 32.8 2.4
      vertex 0 32.8 2.4
    endloop
  endfacet
  facet normal 0 -1 0
    outer loop
      vertex 70.5741 31.3 2.4
      vertex 1.5 31.3 4.4
      vertex 1.5 31.3 2.4
    endloop
  endfacet
  facet normal 0 -1 0
    outer loop
      vertex 1.5 31.3 4.4
      vertex 70.5741 31.3 2.4
      vertex 70.64 31.3 4.4
    endloop
  endfacet
  facet normal 0 -1 -0
    outer loop
      vertex 70.64 31.3 4.4
      vertex 70.5741 31.3 2.4
      vertex 70.64 31.3 2.4
    endloop
  endfacet
  facet normal 1 -0 0
    outer loop
      vertex 1.5 1.5 4.4
      vertex 1.5 31.3 2.4
      vertex 1.5 31.3 4.4
    endloop
  endfacet
  facet normal 1 0 0
    outer loop
      vertex 1.5 31.3 2.4
      vertex 1.5 1.5 4.4
      vertex 1.5 1.5 2.4
    endloop
  endfacet
endsolid OpenSCAD_Model
